<?xml version="1.0" encoding="UTF-8" standalone="no"?>
<svg
   xmlns:dc="http://purl.org/dc/elements/1.1/"
   xmlns:cc="http://creativecommons.org/ns#"
   xmlns:rdf="http://www.w3.org/1999/02/22-rdf-syntax-ns#"
   xmlns:svg="http://www.w3.org/2000/svg"
   xmlns="http://www.w3.org/2000/svg"
   id="svg8"
   version="1.1"
   viewBox="0 0 40.114023 32.272171"
   height="121.97356"
   width="151.61206">
  <defs
     id="defs2" />
  <metadata
     id="metadata5">
    <rdf:RDF>
      <cc:Work
         rdf:about="">
        <dc:format>image/svg+xml</dc:format>
        <dc:type
           rdf:resource="http://purl.org/dc/dcmitype/StillImage" />
        <dc:title></dc:title>
      </cc:Work>
    </rdf:RDF>
  </metadata>
  <g
     transform="translate(-1.5741457,-263.56863)"
     id="layer1">
    <g
       id="text3715"
       style="font-style:normal;font-weight:normal;font-size:30.23351288px;line-height:1.25;font-family:sans-serif;letter-spacing:0px;word-spacing:0px;fill:#000000;fill-opacity:1;stroke:none;stroke-width:0.75583786"
       transform="matrix(-0.6725765,0.7313598,0.74080784,0.68126515,43.262316,0)"
       aria-label="H">
      <path
         id="path3717"
         style="font-style:normal;font-variant:normal;font-weight:normal;font-stretch:normal;font-size:48.37362289px;font-family:Flowers1;-inkscape-font-specification:Flowers1;stroke-width:0.75583786"
         d="m 226.70223,152.86679 q -0.33862,0.53211 -0.96747,1.59633 -0.43537,-0.43536 -1.16097,-0.43536 -0.53211,0 -1.20934,0.62886 -1.40284,-0.72561 -1.40284,-0.96747 0,-0.87073 0.82236,-1.49959 0.87072,-0.67723 1.74145,-0.67723 0.48373,0 1.16096,0.48374 0.72561,0.43536 1.01585,0.87072 z m 2.08007,2.17682 q 0,0.67723 -0.53211,2.75729 -0.1935,0.87073 -1.35447,1.59633 -1.74145,1.06422 -1.93494,1.25772 -0.14512,-0.53211 -0.14512,-1.01585 0,-2.08006 1.54795,-4.11176 1.54796,-2.08006 1.54796,-3.24103 v -1.30609 q 0,-0.0484 0,-0.0967 0,0 0.0484,-0.1935 0.82236,1.54796 0.82236,4.35363 z m -4.45038,1.69307 q 0,0.24187 -0.24187,0.87073 -0.19349,0.62886 -0.19349,0.9191 v 1.54795 q -1.69308,-0.67723 -2.70892,-1.11259 l -0.0484,0.38699 q -1.40283,-0.58048 -1.59633,-0.87073 -0.19349,-0.33861 -0.19349,-1.93494 0,-0.77398 -0.24187,-1.74145 -0.38699,-1.59633 -0.38699,-1.69308 1.20934,0.77398 2.41868,1.45121 0.87073,0.48374 1.78983,0.9191 1.40283,0.82235 1.40283,1.25771 z m -5.70809,0.0484 q -0.33861,0.19349 -0.58048,0.62885 -0.19349,0.43537 -0.29024,0.43537 0,0 -1.98332,-0.43537 -0.14512,-0.33861 -0.14512,-0.7256 0,-0.82235 0.38699,-1.59633 0.43536,-0.82235 1.20934,-0.82235 h 0.87072 q 0.38699,1.59633 0.53211,2.51543 z m 9.7231,3.62802 q -0.62885,0.9191 -0.62885,1.6447 0,0.24187 0.0967,0.77398 0.0968,0.48374 0.0968,0.77398 0,1.06422 -2.17681,1.45121 0,1.74145 -1.25772,1.74145 -0.48373,0 -1.54795,-0.43537 -1.01585,-0.43536 -1.54796,-0.43536 -0.33861,0 -0.7256,0.14512 -0.0484,-0.0484 -0.0484,-0.14512 0,-0.48373 1.1126,-1.30609 1.11259,-0.87072 1.69307,-0.96747 -0.82235,-0.7256 -1.35446,-3.19266 0.0484,-0.0484 0.0968,-0.0484 0.29024,0 1.49958,0.7256 1.25772,0.67723 1.40284,0.9191 0.58048,-0.77398 3.2894,-1.6447 z m 0.0484,6.19182 q 0,0.9191 -0.9191,0.9191 -0.38699,0 -1.25772,-0.62886 0.43537,-0.53211 0.38699,-0.96747 1.16097,-0.38699 1.25772,-0.38699 0.14512,0 0.33861,0.48374 0.1935,0.43536 0.1935,0.58048 z m -5.99833,-3.04754 q -1.93495,0.43537 -1.74145,0.43537 -0.77398,0 -2.27356,-1.8382 -0.96748,-1.25771 -1.98332,-2.5638 -0.58049,-0.33862 -1.64471,-1.16097 0.53211,-0.0967 0.82236,-0.0967 3.19266,0 5.90158,2.70893 0.14512,1.6447 0.9191,2.51542 z m -5.56297,-2.46705 q 0,0.0484 -0.29024,0.53211 -0.24187,0.48374 -0.24187,0.62886 -1.40283,0.43536 -1.30609,0.43536 -0.43536,0 -0.43536,-0.87073 0,-0.53211 0.33862,-1.01584 0.33861,-0.48374 0.87072,-0.48374 0.24187,0 1.06422,0.77398 z m 13.35112,12.77064 q 0,1.54795 -0.9191,4.45037 -1.01584,3.43453 -2.08006,3.43453 -0.58049,0 -0.58049,-0.53211 0,0.0967 1.1126,-2.51543 1.16096,-2.61218 1.16096,-4.5955 0,-1.16096 -0.53211,-3.04753 -0.48373,-1.88657 -0.48373,-2.22519 0,-0.87073 0.58048,-0.87073 0.77398,0 1.30609,2.56381 0.43536,2.03169 0.43536,3.33778 z m -9.7231,-8.9975 q -0.29024,0.82235 -0.58048,0.82235 -0.0968,0 -1.59633,-0.43536 -1.49958,-0.48373 -2.37031,-0.48373 -1.20934,0 -2.75729,0.87072 1.83819,-2.80567 4.2085,-2.80567 0.29024,0 0.43536,0.0967 0.87073,1.54795 2.66055,1.93494 z m 7.25605,10.59383 q 0,1.6447 -0.43537,1.93494 -0.14512,-0.77398 -0.77398,-1.59633 -0.62885,-0.82235 -0.62885,-0.87072 -0.0968,-0.62886 -0.33862,-1.88658 -0.14512,-0.38698 -0.33861,-1.11259 0,-0.0484 0,-0.19349 0.29024,-0.1935 0.53211,-0.1935 1.01584,0 1.54795,1.54796 0.43537,1.16097 0.43537,2.37031 z m -2.46706,-0.87073 q -0.19349,-0.14512 -0.62886,-0.14512 -1.40283,0 -1.40283,1.01585 0,0.29024 0.0967,0.62885 -2.0317,-0.82235 -2.56381,-1.25771 -1.25771,-0.9191 -1.25771,-2.46706 0,-0.87072 0.67723,-1.4512 0.67723,-0.62886 1.59633,-0.62886 1.6447,0 2.5638,1.30609 0.9191,1.25771 0.9191,2.99916 z m 0.96747,4.83736 q -0.38699,0.24187 -1.30608,0.24187 h -1.16097 q -1.49958,0 -3.09591,-0.7256 -1.88657,-0.87073 -1.88657,-2.17682 0,-1.20934 1.11259,-1.83819 0.7256,0.53211 2.22519,1.4512 0.48373,0.14513 1.35446,0.48374 0.48373,0.72561 1.6447,1.88657 0.38699,0.24187 1.11259,0.67723 z M 226.799,190.308 q 0,0.7256 -0.82235,1.20934 -0.77398,0.53211 -1.54796,0.53211 -1.01585,0 -2.70892,-0.53211 -1.69308,-0.48374 -2.41868,-1.01585 l 0.0967,-0.19349 q 0.82235,0.24187 1.64471,0.24187 2.66054,0 2.66054,-1.20934 0,-0.58049 -0.87072,-0.87073 -0.87073,-0.29024 -1.49958,-0.19349 0.29024,-0.43537 1.54795,-0.77398 1.06422,-0.33862 1.78983,-0.33862 0.43536,0 0.87072,0.29024 0.48374,0.33862 0.48374,0.77398 l -0.1935,0.53211 q 0.96748,0.48374 0.96748,1.54796 z m -0.77398,-6.9658 q 0,0.82235 -3.57965,3.43452 -2.27356,1.54796 -4.54712,3.09592 -0.14512,0.14512 -1.59633,1.54795 -1.20934,1.20934 -1.54796,1.20934 -0.53211,0 -0.53211,-0.58048 0,-1.20934 3.14429,-3.28941 0.43536,-0.29024 4.35363,-3.24103 3.67639,-2.85404 3.72477,-2.85404 0.58048,0 0.58048,0.67723 z" />
    </g>
  </g>
</svg>
