<?xml version="1.0" encoding="UTF-8" standalone="no"?>
<svg
   xmlns:dc="http://purl.org/dc/elements/1.1/"
   xmlns:cc="http://creativecommons.org/ns#"
   xmlns:rdf="http://www.w3.org/1999/02/22-rdf-syntax-ns#"
   xmlns:svg="http://www.w3.org/2000/svg"
   xmlns="http://www.w3.org/2000/svg"
   id="svg8"
   version="1.1"
   viewBox="0 0 20.108333 20.108333"
   height="76"
   width="76">
  <defs
     id="defs2" />
  <metadata
     id="metadata5">
    <rdf:RDF>
      <cc:Work
         rdf:about="">
        <dc:format>image/svg+xml</dc:format>
        <dc:type
           rdf:resource="http://purl.org/dc/dcmitype/StillImage" />
        <dc:title></dc:title>
      </cc:Work>
    </rdf:RDF>
  </metadata>
  <g
     transform="translate(0,-276.89165)"
     id="layer1">
    <flowRoot
       transform="matrix(0.26458333,0,0,0.26458333,0,276.89165)"
       style="font-style:normal;font-weight:normal;font-size:40px;line-height:1.25;font-family:sans-serif;letter-spacing:0px;word-spacing:0px;fill:#000000;fill-opacity:1;stroke:none"
       id="flowRoot3721"
       xml:space="preserve"><flowRegion
         id="flowRegion3723"><rect
           y="4.7842455"
           x="5.5558391"
           height="52.022858"
           width="52.275394"
           id="rect3725" /></flowRegion><flowPara
         id="flowPara3727">ಅअाा</flowPara></flowRoot>    <g
       id="g3839">
      <g
         id="text3731"
         style="font-style:normal;font-weight:normal;font-size:16.37117386px;line-height:1.25;font-family:sans-serif;letter-spacing:0px;word-spacing:0px;fill:#000000;fill-opacity:1;stroke:none;stroke-width:0.40927932"
         transform="scale(0.95723435,1.0446763)"
         aria-label="अ">
        <path
           id="path3841"
           style="font-style:normal;font-variant:normal;font-weight:normal;font-stretch:normal;font-size:21.8282299px;font-family:'Adishila Heavy';-inkscape-font-specification:'Adishila Heavy, ';stroke-width:0.40927932"
           d="m 9.8444086,276.70881 q -0.1278998,-0.0959 -0.202508,-0.15987 -0.06395,-0.064 -0.095925,-0.13856 -0.031975,-0.0853 -0.042633,-0.19185 -0.010658,-0.10658 -0.010658,-0.28778 l 0.031975,-3.5279 q -0.1492164,0.0746 -0.2984328,0.10659 -0.1385581,0.0213 -0.2771162,0.0213 -0.2238246,0 -0.4263326,-0.0746 -0.1918497,-0.0746 -0.3730411,-0.18119 -0.1811913,-0.11724 -0.3410661,-0.2558 -0.1492164,-0.13856 -0.2877745,-0.27711 0.053292,0.0853 0.085267,0.2025 0.031975,0.10659 0.053292,0.21317 0.021317,0.10658 0.021317,0.20251 0.010658,0.0853 0.010658,0.1279 0,0.46896 -0.1705331,0.94859 -0.170533,0.46896 -0.5115991,0.85266 -0.3304078,0.3837 -0.8420069,0.62884 -0.5009409,0.23449 -1.183073,0.23449 -0.5862074,0 -1.1617564,-0.29844 -0.575549,-0.29843 -1.1510981,-0.85266 -0.5648907,-0.56489 -1.1297814,-1.37492 -0.56489072,-0.81004 -1.12978144,-1.84389 0,-0.0107 0.0639499,-0.0746 0.0746082,-0.064 0.15987473,-0.1279 0.0852665,-0.0746 0.17053305,-0.1279 0.0852665,-0.0533 0.11724147,-0.0533 0.5115991,0.93793 0.9912233,1.50282 0.4902825,0.56489 0.9379318,0.87398 0.4583075,0.30909 0.8846402,0.41568 0.4369909,0.0959 0.8526652,0.0959 0.3304078,0 0.607524,-0.13856 0.2877745,-0.13855 0.5009408,-0.36238 0.2131663,-0.22382 0.3304078,-0.5116 0.1278998,-0.28777 0.1278998,-0.59686 0,-0.18119 -0.074608,-0.33041 -0.06395,-0.15988 -0.170533,-0.27712 -0.1065832,-0.1279 -0.2344829,-0.21316 -0.1278998,-0.0853 -0.2557996,-0.13856 -0.4369909,0.2558 -0.8420069,0.39436 -0.3943577,0.13855 -0.6394989,0.13855 -0.095925,0 -0.3304078,-0.18119 -0.234483,-0.18119 -0.4796242,-0.41567 -0.234483,-0.23448 -0.4156743,-0.44765 -0.1811914,-0.22383 -0.1811914,-0.29843 0,-0.0959 0.2131663,-0.19185 0.2131663,-0.0959 0.5329158,-0.21317 0.3197495,-0.11724 0.6821322,-0.2558 0.373041,-0.14922 0.6927905,-0.35172 0.3197494,-0.21317 0.5329158,-0.47963 0.2131663,-0.27711 0.2131663,-0.6395 0,-0.17053 -0.1598748,-0.31975 -0.1598747,-0.14921 -0.4583075,-0.14921 -0.607524,0 -1.2470229,0.2558 -0.639499,0.24514 -1.4495309,0.7141 -0.1172415,0.064 -0.1705331,0.10659 -0.053292,0.032 -0.1598747,0.032 -0.021317,0 -0.1278998,-0.10658 -0.095925,-0.10658 -0.2344829,-0.26646 -0.1385581,-0.15987 -0.2877745,-0.34106 -0.14921645,-0.19185 -0.27711624,-0.35173 -0.12789978,-0.17053 -0.21316631,-0.28777 -0.0852665,-0.11725 -0.0852665,-0.13856 0.20250799,-0.18119 0.52225747,-0.35173 0.3197494,-0.17053 0.6608155,-0.30909 0.3410661,-0.13856 0.6608156,-0.21316 0.3304078,-0.0853 0.5435741,-0.0853 0.8206903,0 1.5454557,0.28777 0.7247655,0.27712 1.2576812,0.69279 0.5435741,0.41568 0.8526653,0.8953 0.3197494,0.46897 0.3197494,0.84201 0,0.47962 -0.2557996,0.88464 -0.2451412,0.39436 -0.6181822,0.71411 0.3304077,0.20251 0.5862073,0.33041 0.2664579,0.1279 0.4796242,0.2025 0.2131663,0.0746 0.3943577,0.10659 0.1811913,0.0213 0.3623827,0.0213 0.202508,0 0.4369909,-0.0746 0.234483,-0.0746 0.4583076,-0.19184 0.2344829,-0.11725 0.4476492,-0.26646 0.2131663,-0.14922 0.3730411,-0.29844 l 0.021317,-2.27022 H 7.9259118 L 7.190488,266.47683 q -0.095925,-0.17053 -0.095925,-0.28778 0,-0.22382 0.373041,-0.22382 h 5.4144238 v 1.87586 h -1.278997 v 6.91725 q 0,0.98057 0.02132,1.57743 0.03197,0.58621 0.05329,0.84201 0,0.0213 0,0.0853 0,0.0533 0,0.11725 0.01066,0.0533 0.01066,0.10658 0,0.0426 0,0.0533 0,0.0853 -0.02132,0.1279 -0.01066,0.0426 -0.117242,0.0426 -0.09593,0 -0.309091,-0.10658 -0.202508,-0.10658 -0.415674,-0.24514 z" />
      </g>
      <g
         id="flowRoot3733"
         style="font-style:normal;font-weight:normal;font-size:40px;line-height:1.25;font-family:sans-serif;letter-spacing:0px;word-spacing:0px;fill:#000000;fill-opacity:1;stroke:none"
         transform="matrix(0.41111268,0,0,0.47038635,-11.422222,259.62648)"
         aria-label="a">
        <path
           id="path3844"
           style="font-style:italic;font-variant:normal;font-weight:bold;font-stretch:normal;font-size:48px;font-family:'TeX Gyre Pagella';-inkscape-font-specification:'TeX Gyre Pagella Bold Italic'"
           d="m 52.871766,74.772374 c 0,2.112 1.056,3.6 2.592,3.6 3.648,0 7.968,-4.224 12.432,-12.048 l -1.776,7.248 c -0.24,0.912 -0.336,1.824 -0.336,2.688 0,1.296 0.576,2.112 1.536,2.112 2.016,0 4.704,-1.536 8.352,-4.752 l -0.576,-1.44 -0.96,0.768 c -1.056,0.816 -2.112,1.488 -2.64,1.488 -0.432,0 -0.576,-0.336 -0.672,-1.2 l 0.48,-2.352 2.16,-10.272 c 0.336,-1.536 0.672,-2.64 1.536,-5.04 l -0.768,-0.576 -2.16,1.296 c -2.256,-0.96 -3.312,-1.248 -4.896,-1.248 -1.968,0 -3.024,0.288 -4.512,1.296 -2.688,1.776 -5.664,4.368 -6.432,5.568 -1.68,2.64 -3.36,9.072 -3.36,12.864 z m 5.376,-2.112 c 0,-1.776 1.056,-6.624 2.256,-10.368 1.056,-3.36 2.4,-4.752 4.416,-4.752 1.296,0 2.304,0.288 3.936,1.056 -0.672,4.32 -2.256,8.016 -4.944,11.616 -1.968,2.592 -3.792,4.224 -4.848,4.224 -0.432,0 -0.816,-0.816 -0.816,-1.776 z" />
      </g>
    </g>
  </g>
</svg>
