<?xml version="1.0" encoding="UTF-8" standalone="no"?>
<svg
   xmlns:dc="http://purl.org/dc/elements/1.1/"
   xmlns:cc="http://creativecommons.org/ns#"
   xmlns:rdf="http://www.w3.org/1999/02/22-rdf-syntax-ns#"
   xmlns:svg="http://www.w3.org/2000/svg"
   xmlns="http://www.w3.org/2000/svg"
   version="1.1"
   id="svg3389"
   viewBox="0 0 254.0101 229.80536"
   height="64.856178mm"
   width="71.687294mm">
  <defs
     id="defs3391" />
  <metadata
     id="metadata3394">
    <rdf:RDF>
      <cc:Work
         rdf:about="">
        <dc:format>image/svg+xml</dc:format>
        <dc:type
           rdf:resource="http://purl.org/dc/dcmitype/StillImage" />
        <dc:title></dc:title>
      </cc:Work>
    </rdf:RDF>
  </metadata>
  <g
     transform="translate(-68.164198,-306.09703)"
     id="layer1">
    <path
       id="path3408"
       d="m 253.42429,535.41114 c 0,-1.18579 3.74172,-1.7834 4.40874,-0.70415 0.40635,0.65747 -0.41939,1.19541 -1.83497,1.19541 -1.41557,0 -2.57377,-0.22107 -2.57377,-0.49126 z m -20.06246,-3.85692 c -1.0165,-1.0165 -5.77767,-3.23726 -10.58037,-4.93501 -4.8027,-1.69776 -10.96048,-4.24108 -13.68397,-5.65182 -2.72349,-1.41074 -5.82729,-2.56499 -6.89734,-2.56499 -1.07004,0 -4.01501,-1.40625 -6.54437,-3.125 -2.52938,-1.71875 -5.10985,-3.125 -5.73439,-3.125 -1.14277,0 -18.02461,-14.8529 -18.77374,-16.51743 -0.2209,-0.49082 -1.47249,-0.22366 -2.7813,0.59371 -3.66602,2.28946 -5.47967,-0.45512 -5.09463,-7.70966 0.37537,-7.07232 -1.94088,-12.49368 -6.65854,-15.58481 -1.85313,-1.21422 -3.18174,-3.25547 -3.17182,-4.87312 0.0284,-4.62951 1.43062,-8.40869 3.11998,-8.40869 2.70988,0 3.46065,-4.1543 1.06707,-5.90453 -1.20007,-0.87751 -2.49631,-1.59708 -2.88053,-1.59907 -0.38423,-0.003 -1.79319,-1.63743 -3.13104,-3.63434 -2.28952,-3.41742 -2.91381,-3.62361 -10.625,-3.50931 -4.5059,0.0667 -10.98983,-0.4119 -14.40873,-1.06376 -5.39064,-1.0278 -6.57321,-1.8217 -8.90456,-5.97788 l -2.68837,-4.79267 -3.32124,3.55329 c -3.03491,3.24694 -8.74806,12.09983 -13.098138,20.2964 -0.95067,1.79127 -2.46454,4.10845 -3.36416,5.14926 -2.00358,2.31803 -14.28235,26.82107 -14.28235,28.5013 0,0.66456 -1.11265,3.66035 -2.47255,6.65731 -1.60238,3.53133 -2.48221,8.19846 -2.5,13.2615 -0.024,6.82 -0.32781,7.8125 -2.39173,7.8125 -1.56675,0 -2.99414,-1.58119 -4.23156,-4.6875 -1.91037,-4.79566 -1.48327,-10.98021 1.38118,-20 0.70958,-2.23438 1.05272,-4.0625 0.76252,-4.0625 -1.01122,0 3.59806,-10.64347 5.68394,-13.125 1.15578,-1.375 3.12352,-5.27154 4.37277,-8.65898 1.24925,-3.38742 3.59303,-8.10655 5.2084,-10.48692 1.61536,-2.38039 2.93703,-4.8754 2.93703,-5.54449 0,-0.66908 2.53125,-4.58382 5.625,-8.69941 3.09375,-4.1156 5.624998,-8.01665 5.624998,-8.66901 0,-0.65235 1.41433,-2.42475 3.14296,-3.93865 3.00328,-2.63021 8.14563,-11.13307 12.81009,-21.18143 1.44627,-3.11562 3.42487,-5.09992 5.92195,-5.93904 2.0625,-0.69307 5.65292,-2.42166 7.97871,-3.84131 l 4.22871,-2.58117 -4.22871,-3.56507 -4.22871,-3.56507 4.50865,-4.78973 c 6.07285,-6.45142 6.43454,-8.11612 2.89512,-13.32485 -4.36846,-6.42876 -4.06698,-8.86001 0.97364,-7.85189 2.20132,0.44027 5.37433,2.05745 7.05113,3.59375 3.5584,3.26025 10.19646,13.25453 10.19646,15.35184 0,0.79427 -2.73171,4.33856 -6.07048,7.87621 -6.58024,6.97222 -6.4988,7.58576 1.34199,10.11073 3.875,1.24786 4.78044,2.21026 5.45318,5.79624 0.44367,2.36496 0.44285,6.72604 -0.002,9.69127 -0.72983,4.86688 1.4487,17.27675 3.66141,20.85699 0.41979,0.67924 2.43653,1.23499 4.48165,1.23499 2.89568,0 4.26712,0.93005 6.19852,4.20353 2.15487,3.65223 3.30646,4.30139 8.7807,4.94973 8.5759,1.01569 18.30952,-3.44657 26.45084,-12.12607 l 6.0052,-6.40219 3.00068,3.39242 c 3.04036,3.43737 17.45942,10.98258 20.98786,10.98258 2.36377,0 5.96021,-5.25328 5.96021,-8.70602 0,-2.27904 -0.78964,-2.54398 -7.58218,-2.54398 -8.64348,0 -12.41782,-1.51973 -12.41782,-5 0,-3.24418 3.66636,-5 10.44059,-5 7.23673,0 9.55941,-0.95317 9.55941,-3.92296 0,-3.43923 -2.88394,-4.0961 -10.90828,-2.48459 -5.87656,1.18019 -7.50097,1.09931 -9.93357,-0.49459 -3.7267,-2.44184 -3.7775,-6.32331 -0.0956,-7.31 11.55223,-3.09589 29.37473,1.3142 32.90569,8.14235 2.28155,4.41203 4.26795,4.45382 13.012,0.27373 13.35155,-6.3827 16.90467,-7.96085 17.91572,-7.95741 0.56149,0.002 2.86458,-1.40278 5.11798,-3.12153 4.8596,-3.70659 11.144,-4.29115 10.5058,-0.97721 -0.35139,1.8246 -9.78174,8.35642 -16.01969,11.09585 -20.70433,9.09244 -27.5,14.76696 -27.5,22.96311 0,1.41949 -2.52812,5.18209 -5.61805,8.36131 l -5.61803,5.78043 -7.19447,-0.73041 c -11.15913,-1.13293 -16.45016,-3.16064 -21.89231,-8.38994 l -5.01571,-4.81955 -5.45571,4.56041 c -6.10954,5.10694 -6.94348,7.781 -2.42663,7.781 2.6827,0 10.6475,5.29764 11.76735,7.82682 0.2318,0.5235 1.4951,1.52643 2.80737,2.22873 1.84623,0.98808 3.21542,0.66361 6.05326,-1.43449 3.29569,-2.43661 4.58908,-2.62056 12.76265,-1.81516 10.79072,1.06329 15.75207,3.32617 16.84566,7.68335 1.14876,4.57703 -0.92035,6.13704 -5.8572,4.41605 -6.4087,-2.23409 -11.45284,-1.66012 -16.69091,1.89925 -4.4053,2.99347 -5.2556,3.1626 -9.03289,1.79672 -5.04259,-1.82342 -6.13782,-1.2715 -7.10856,3.58219 -0.86519,4.3259 -7.47918,9.06903 -15.75279,11.29688 -4.5448,1.22378 -5.74394,1.10722 -8.61391,-0.83733 -3.02342,-2.0485 -9.81802,-5.39301 -10.9563,-5.39301 -1.14684,0 5.12481,9.79506 8.67484,13.54834 6.07787,6.42586 23.13304,18.91102 30.14959,22.07089 9.53998,4.29626 18.38415,7.71326 22.44908,8.67334 2.00824,0.47432 4.95057,1.88438 6.53852,3.13347 l 2.88719,2.27105 -3.88229,0.77646 c -5.86108,1.17221 -7.85448,0.95602 -9.88223,-1.07172 z M 198.17429,473.1524 c 2.78015,-2.78015 1.77534,-10.7885 -1.9375,-15.44175 -3.81539,-4.78178 -5.51565,-5.16477 -10.76789,-2.42555 -1.96921,1.02701 -4.53116,1.8673 -5.69322,1.8673 -1.16207,0 -4.23403,1.94293 -6.82658,4.31761 -5.03369,4.61069 -5.69857,8.67485 -1.81709,11.10724 2.81088,1.76149 5.74892,-0.78321 8.60962,-7.45694 2.86845,-6.69181 3.85162,-7.19297 9.15233,-4.66523 4.81799,2.29753 7.72478,7.54011 6.43458,11.60517 -0.90975,2.86636 0.52204,3.41586 2.84575,1.09215 z M 140.21,433.93811 c 2.35755,-2.35753 2.44111,-3.30889 0.46429,-5.28571 -2.97521,-2.97521 -11,-1.4186 -11,2.13374 0,4.88172 6.77815,6.90955 10.53571,3.15197 z m 5.71429,-19.91071 c 2.27391,-2.73989 -0.56148,-5.625 -5.52806,-5.625 -4.10629,0 -6.97194,1.86333 -6.97194,4.53335 0,3.02801 10.15681,3.91502 12.5,1.09165 z m 86.20724,65.5451 c -1.50435,-2.81091 0.21182,-6.1701 3.15225,-6.1701 2.36161,0 8.14051,4.94491 8.14051,6.96573 0,3.03398 -9.6054,2.35723 -11.29276,-0.79563 z m -96.51974,-0.60337 c -3.92232,-2.16407 -4.34161,-5.19253 -1.48397,-10.71859 2.35824,-4.56034 0.49929,-7.92105 -3.78646,-6.84539 -1.49537,0.37531 -4.4206,-0.4173 -6.73536,-1.82499 -3.26281,-1.98423 -4.01236,-3.1788 -3.69931,-5.8956 0.37496,-3.25403 0.66697,-3.38951 6.49758,-3.01445 8.61142,0.55394 19.43838,4.83193 20.65932,8.16299 0.54315,1.48186 0.93088,6.91305 0.86162,12.0693 l -0.12592,9.375 -4.375,0.29415 c -2.40625,0.16177 -5.92188,-0.55931 -7.8125,-1.60242 z m -18.4375,-0.92662 c -2.02122,-1.01742 -3.27073,-2.83944 -3.5376,-5.15844 -0.77744,-6.75594 6.77625,-7.88158 12.41109,-1.84947 5.23942,5.60881 4.86757,8.62268 -1.06099,8.59938 -2.57813,-0.01 -6.09375,-0.72631 -7.8125,-1.59147 z m 120,-77.58177 c -8.71448,-4.44823 -11.2778,-12.25762 -6.15927,-18.76477 2.15661,-2.74168 3.59716,-3.29357 8.59695,-3.29357 9.63086,0 11.70629,5.25791 3.84192,9.73318 -4.40055,2.50417 -5.13166,7.16922 -1.31349,8.38107 2.56779,0.81497 13.79852,-3.45339 13.76475,-5.23146 -0.01,-0.55429 -0.53379,-1.82123 -1.16278,-2.81544 -1.84115,-2.91015 0.75848,-6.63193 3.57826,-5.12283 3.49728,1.87169 4.10365,6.08373 1.10671,7.68764 -1.84394,0.98685 -2.14951,1.72137 -1.13725,2.73364 1.82789,1.82789 1.76487,6.25352 -0.11575,8.1342 -2.58219,2.58219 -14.75393,1.7466 -21,-1.44166 z m 63.75,0.68057 c 0,-2.26579 3.55657,-5.22055 11.3842,-9.45788 7.60877,-4.11885 9.8658,-4.53967 9.8658,-1.83947 0,0.56369 -2.033,1.87433 -4.51779,2.91254 -2.48477,1.03821 -6.44185,3.57701 -8.79348,5.64177 -4.07506,3.57794 -7.93873,4.91294 -7.93873,2.74304 z m -138.51806,-6.94317 c -2.1255,-5.87797 -1.89944,-8.55945 0.67973,-8.06275 3.28027,0.63172 4.85953,6.36836 2.62961,9.55202 -1.79301,2.55988 -1.85528,2.53185 -3.30934,-1.48927 z m 38.83056,-2.03739 c -3.97803,-1.66588 -3.4968,-4.53085 1.5625,-9.30239 5.12289,-4.8315 5.95424,-8.84312 1.5625,-7.53972 -1.54688,0.45909 -4.61195,2.74699 -6.81128,5.08423 -2.37037,2.51902 -5.20856,4.24953 -6.96959,4.24953 -3.58478,0 -8.40663,-4.79798 -8.40663,-8.36501 0,-1.41838 -0.87198,-3.30256 -1.93774,-4.18706 -1.59985,-1.32775 -2.29615,-1.24975 -3.99325,0.44734 -1.90735,1.90735 -1.89757,2.3867 0.13554,6.65018 1.97786,4.14764 2.00276,4.78295 0.25589,6.52983 -1.74689,1.74688 -2.46849,1.67605 -7.41672,-0.72798 -6.35941,-3.08964 -11.63556,-11.89154 -10.1159,-16.87577 1.23236,-4.04196 4.32141,-7.22153 7.01591,-7.22153 1.26845,0 2.30627,-0.84375 2.30627,-1.875 0,-1.03125 -0.4533,-1.875 -1.00734,-1.875 -0.55403,0 -5.39519,-2.85186 -10.75812,-6.33746 -5.36294,-3.4856 -11.23776,-6.98301 -13.05517,-7.77203 -1.8174,-0.78901 -6.11687,-3.75273 -9.55437,-6.58604 -3.4375,-2.83331 -9.00849,-7.01626 -12.37998,-9.29545 -6.89641,-4.6621 -8.56739,-5.98863 -15.09206,-11.98106 -5.33654,-4.90121 -5.46852,-8.45531 -0.33601,-9.04789 2.8704,-0.3314 5.35937,1.52194 15.47443,11.52259 7.12051,7.03998 15.69225,14.06296 20.94373,17.15957 4.88944,2.88313 10.23137,6.27609 11.87096,7.53991 1.63959,1.26382 4.25196,2.29786 5.80526,2.29786 1.6586,0 5.58722,2.57044 9.51893,6.22811 3.6821,3.42546 7.30555,6.23796 8.0521,6.25 0.74655,0.012 3.94749,2.03984 7.1132,4.50622 l 5.75583,4.48433 8.50381,-1.32392 c 8.07662,-1.25742 8.73836,-1.16872 13.17251,1.76567 2.56778,1.69927 5.15607,3.08959 5.75175,3.08959 0.59569,0 2.12064,1.1465 3.38878,2.54777 2.24944,2.48561 2.22466,2.713 -1.01544,9.31943 -4.63339,9.4473 -12.22146,13.62231 -19.3403,10.64115 z m -88.75,-16.44897 c -7.40241,-5.18987 -6.85648,-9.80938 1.15927,-9.80938 3.34295,0 9.42848,4.42883 10.43258,7.59246 0.93978,2.96099 -1.33578,6.20397 -4.24491,6.04954 -1.11894,-0.0594 -4.42507,-1.78407 -7.34694,-3.83262 z"
       style="fill:#000000" />
  </g>
</svg>
