<?xml version="1.0" encoding="UTF-8" standalone="no"?>
<svg
   xmlns:dc="http://purl.org/dc/elements/1.1/"
   xmlns:cc="http://creativecommons.org/ns#"
   xmlns:rdf="http://www.w3.org/1999/02/22-rdf-syntax-ns#"
   xmlns:svg="http://www.w3.org/2000/svg"
   xmlns="http://www.w3.org/2000/svg"
   version="1.1"
   id="svg2"
   viewBox="0 0 673.91618 76.549593"
   height="21.603996mm"
   width="190.19412mm">
  <defs
     id="defs4" />
  <metadata
     id="metadata7">
    <rdf:RDF>
      <cc:Work
         rdf:about="">
        <dc:format>image/svg+xml</dc:format>
        <dc:type
           rdf:resource="http://purl.org/dc/dcmitype/StillImage" />
        <dc:title></dc:title>
      </cc:Work>
    </rdf:RDF>
  </metadata>
  <g
     transform="translate(-47.31953,-165.34028)"
     id="layer1">
    <path
       id="path3347"
       transform="translate(46.613793,158.4387)"
       d="M 662.42188,6.9023438 C 657.43636,6.9347778 650.59391,7.9874031 649.55469,8.0332031 581.57333,24.425668 520.33156,36.43197 458.55027,50.788781 c -36.25506,8.62021 -52.33572,5.344163 -69.95066,7.576453 -0.80852,0.4997 -11.33328,1.112139 -23.38867,1.361328 -12.05538,0.24919 -22.95399,0.782174 -24.21875,1.183594 -2.34476,0.7442 -10.07894,-4.87817 -14.23633,-10.90625 -3.26399,-4.73268 -14.09375,-9.946077 -18.625,-9.492187 -6.84265,0.68543 -5.08917,4.43556 6.02148,12.875 4.0089,3.04507 4.11779,5.33659 0.71289,15 -3.24402,9.20684 -9.21131,10.543497 -5.08007,12.623047 7.28287,3.66599 12.61049,0.964176 19.16406,-6.214844 3.99091,-4.37179 9.17604,-4.386365 35.22851,-5.140625 78.50723,-3.76235 83.91765,-8.227379 128.20685,-16.669759 79.21219,-18.32435 119.66501,-26.589763 181.06446,-41.107422 4.57611,1.14853 -5.71467,0.59106 -5.71466,-3.4923504 0,-1.15383 -2.3212,-1.5018821 -5.3125,-1.4824218 z M 3.9785156,25.574219 c -1.336147,0.01 -1.8082017,0.546485 -2.6523437,1.390625 -2.01310114,9.145462 -0.52128344,9.789922 26.1172611,16.284993 25.290514,4.602362 41.407441,12.326322 74.308877,19.210582 l 2.40394,5.225128 c 4.07878,9.04514 15.25059,13.733175 33.32422,13.984375 20.20971,-2.90809 25.33035,-9.666988 34.15234,-18.992188 4.11995,-4.29688 16.33671,-9.916015 17.43555,-9.916015 l -3.14258,14.523437 c 1.04779,10.18932 4.69421,13.740946 21.17578,16.166016 18.30433,-1.9544 24.12205,-5.85339 28.10352,-18.46875 -2.53034,-13.01853 0.86287,-15.336528 -14.18946,-23.710938 -7.43745,-3.1981 -20.03084,-3.651329 -37.08139,1.01965 -19.94574,7.76811 -23.39083,25.976554 -48.28775,28.445194 -5.40515,-0.6978 -11.89367,-2.119203 -15.81768,-6.328643 -5.3992,-5.79191 -1.32542,-9.641297 2.57745,-14.602997 2.9612,-3.76455 5.14198,-4.149406 7.48828,-1.322266 2.4275,8.921606 -7.48828,1.322266 7.55078,15.226562 29.66193,-9.249041 5.93754,-30.488379 -15.4707,-28.054687 -9.81582,5.307749 -14.07493,6.90503 -19.37086,16.658603 C 77.385868,51.54544 46.543447,38.032733 23.564453,30.943359 10.829742,27.007489 6.2054266,25.557839 3.9785156,25.574219 Z M 286.00391,37.900391 c -0.57987,0.0166 -1.22099,0.05206 -1.93946,0.09766 -8.4735,0.53766 -8.78443,3.597918 -1.18554,11.642578 8.18457,8.66468 7.47019,15.801878 -2.35157,23.486328 -4.70393,3.68032 -5.42893,5.668726 -2.96289,8.134766 2.77736,2.77736 11.36183,1.756183 17.31836,-2.060547 7.48469,-4.7959 9.50876,-7.315746 11.32422,-14.103516 1.44024,-5.38493 1.32999,-6.111055 -1.70117,-11.234375 -4.45589,-6.47003 -11.58391,-16.09958 -18.50195,-15.962894 z m -36.42579,2.720703 c -2.44663,-0.0575 -4.46716,0.500643 -5.67968,1.785156 -1.29553,8.27917 9.77089,8.038811 13.25,18.494141 -5.80526,9.74062 -7.69087,2.678783 -17.67383,14.933593 5.57414,9.39634 17.25179,2.993572 24.47656,1.175782 7.61867,-6.00825 10.4802,-8.065349 10.68945,-17.142578 C 272.48364,48.895 258.3161,40.826437 249.57812,40.621094 Z M 209.7168,56.886719 c 2.94715,-0.107124 5.74786,2.471792 5.70508,8.375 -1.86926,7.22991 -11.31055,7.326043 -11.99805,-2.253907 0.9785,-3.840004 3.69254,-6.026572 6.29297,-6.121093 z"
       style="fill:#000000" />
  </g>
</svg>
