<?xml version="1.0" encoding="UTF-8" standalone="no"?>
<!-- Created with Inkscape (http://www.inkscape.org/) -->

<svg
   xmlns:dc="http://purl.org/dc/elements/1.1/"
   xmlns:cc="http://creativecommons.org/ns#"
   xmlns:rdf="http://www.w3.org/1999/02/22-rdf-syntax-ns#"
   xmlns:svg="http://www.w3.org/2000/svg"
   xmlns="http://www.w3.org/2000/svg"
   xmlns:sodipodi="http://sodipodi.sourceforge.net/DTD/sodipodi-0.dtd"
   xmlns:inkscape="http://www.inkscape.org/namespaces/inkscape"
   width="84.666985mm"
   height="65.148499mm"
   viewBox="0 0 300.00113 230.84114"
   id="svg3429"
   version="1.1"
   inkscape:version="0.91 r13725"
   sodipodi:docname="manuscript_fleuron_3.svg">
  <defs
     id="defs3431" />
  <sodipodi:namedview
     id="base"
     pagecolor="#ffffff"
     bordercolor="#666666"
     borderopacity="1.0"
     inkscape:pageopacity="0.0"
     inkscape:pageshadow="2"
     inkscape:zoom="1.979899"
     inkscape:cx="171.82679"
     inkscape:cy="90.046759"
     inkscape:document-units="px"
     inkscape:current-layer="layer1"
     showgrid="false"
     fit-margin-top="0"
     fit-margin-left="0"
     fit-margin-right="0"
     fit-margin-bottom="0"
     inkscape:window-width="1920"
     inkscape:window-height="1023"
     inkscape:window-x="0"
     inkscape:window-y="27"
     inkscape:window-maximized="1" />
  <metadata
     id="metadata3434">
    <rdf:RDF>
      <cc:Work
         rdf:about="">
        <dc:format>image/svg+xml</dc:format>
        <dc:type
           rdf:resource="http://purl.org/dc/dcmitype/StillImage" />
        <dc:title></dc:title>
      </cc:Work>
    </rdf:RDF>
  </metadata>
  <g
     inkscape:label="Layer 1"
     inkscape:groupmode="layer"
     id="layer1"
     transform="translate(-203.17321,-391.56782)">
    <path
       style="fill:#000000"
       d="m 220.25654,621.66021 c -2.97469,-2.97469 3.9619,-11.14672 20.41667,-24.053 4.46875,-3.50506 9.53125,-7.51915 11.25,-8.92021 7.94709,-6.47817 11.08572,-8.69345 12.31703,-8.69345 0.73213,0 2.90093,-1.40708 4.81955,-3.12685 7.20999,-6.46267 12.40802,-10.2516 17.86342,-13.02093 3.09375,-1.57047 8.29818,-4.7672 11.56539,-7.10382 3.26722,-2.33661 6.46739,-4.2484 7.11148,-4.2484 1.26745,0 11.15992,-7.81765 16.49965,-13.03906 2.8307,-2.76799 3.94364,-3.09344 7.80434,-2.28215 5.8232,1.22367 2.8042,7.36105 -5.74432,11.67775 -2.94885,1.48906 -7.89279,4.53272 -10.98654,6.76368 -3.09375,2.23097 -7.45726,4.98942 -9.6967,6.12989 -2.23944,1.14049 -7.02069,4.91414 -10.625,8.38592 -3.60431,3.47176 -9.83894,8.09579 -13.85473,10.27563 -13.45603,7.30416 -14.82875,8.14229 -17.60028,10.746 -1.51768,1.42579 -3.31213,2.59234 -3.98767,2.59234 -0.67554,0 -3.45178,2.29636 -6.16943,5.10302 -2.71766,2.80667 -6.62869,5.98598 -8.69119,7.06513 -3.67008,1.92027 -5.24024,3.22997 -14.60356,12.181 -4.61627,4.413 -6.13697,5.11865 -7.68811,3.56751 z m 110.96986,-7.03635 c -6.32614,-5.44152 -0.6094,-10.02656 5.87084,-4.70862 2.35818,1.93522 2.68193,2.8619 1.61167,4.6131 -2.04107,3.33967 -3.68653,3.36069 -7.48251,0.0955 z m 103.19681,-1.64495 c -1.71875,-0.89491 -4.60489,-1.92662 -6.41365,-2.29268 -4.90043,-0.99179 -10.11898,-13.19268 -5.64275,-13.19268 1.48895,0 8.45754,6.44698 14.82331,13.71375 2.67865,3.05779 1.34426,3.91219 -2.76691,1.77161 z m -83.84604,-4.21435 c -1.08407,-0.63412 -2.98268,-3.39638 -4.21915,-6.13836 -2.91167,-6.45695 -4.31356,-6.86061 -12.79967,-3.68555 -8.60108,3.21808 -16.32108,2.18261 -15.5788,-2.08954 0.63926,-3.67927 4.28012,-4.94568 18.31866,-6.3719 9.1292,-0.92745 26.2405,11.59995 23.96042,17.54174 -0.83396,2.17325 -6.4942,2.60801 -9.68146,0.74361 z m -147.40396,-5.4008 c 0,-4.39157 14.95067,-17.12021 20.10887,-17.12021 1.1157,0 3.37575,-1.5559 5.02234,-3.45755 3.75892,-4.34119 11.24643,-9.40556 18.87951,-12.76965 3.23715,-1.42669 6.18747,-3.08221 6.55626,-3.67892 0.99937,-1.61702 10.46616,-6.34388 12.70527,-6.34388 1.0699,0 6.17697,-3.62515 11.34904,-8.05589 5.17207,-4.43074 10.97105,-8.40012 12.88662,-8.82085 3.69346,-0.81122 8.43221,-5.09981 7.1034,-6.42861 -0.43451,-0.43451 -3.75919,-0.17456 -7.38816,0.57768 -6.42558,1.33192 -6.85971,1.23552 -16.59815,-3.68572 -18.78635,-9.49351 -20.47713,-17.54502 -5.22231,-24.86866 4.20564,-2.01907 4.34105,-2.68339 2.61647,-12.83621 -1.75408,-10.32654 14.91463,-19.82751 25.40375,-14.47985 6.47823,3.30279 9.43138,2.02985 4.94401,-2.13108 -1.85181,-1.71709 -3.36692,-3.66172 -3.36692,-4.3214 0,-0.65967 -1.40625,-1.19941 -3.125,-1.19941 -1.94445,0 -3.125,-0.70833 -3.125,-1.875 0,-1.25341 -1.25344,-1.875 -3.78094,-1.875 -2.7909,0 -4.06605,-0.7499 -4.86978,-2.86387 -0.59887,-1.57513 -1.99119,-3.61276 -3.09406,-4.52806 -2.36978,-1.96674 -2.68836,-7.54514 -0.44272,-7.75201 4.09455,-0.37721 6.74886,0.67168 9.38508,3.70864 5.44002,6.26701 5.93208,6.95882 7.43358,10.45115 0.82839,1.92675 2.88963,4.02918 4.58054,4.67206 1.69091,0.64289 3.45207,2.35889 3.9137,3.81335 1.32894,4.1871 5.60175,2.67113 7.7554,-2.75156 1.9137,-4.81849 -3.39196,-14.7497 -7.87989,-14.7497 -1.93162,0 -6.99117,-6.84307 -5.88065,-7.9536 1.41321,-1.41321 2.54525,-0.88334 8.98071,4.2036 9.27855,7.33427 12.1193,6.13704 11.18447,-4.71364 -0.82503,-9.57615 16.19938,-13.7647 27.88647,-6.86097 3.5922,2.12196 7.32809,1.43547 7.32809,-1.34657 0,-1.09082 -1.84898,-1.99765 -4.91031,-2.40826 -11.44994,-1.53576 -20.35804,-14.72113 -10.58899,-15.67333 3.12125,-0.30423 4.63462,0.4866 7.77431,4.0625 4.64648,5.29204 5.10228,5.33083 15.06585,1.28227 6.66135,-2.70675 8.45993,-2.97273 12.58699,-1.86143 7.76591,2.09115 8.16254,8.07639 0.62886,9.48971 -13.42547,2.51864 -15.27229,4.98444 -4.72287,6.30582 7.75877,0.97183 15.11478,5.69729 17.40634,11.18175 2.02574,4.84831 3.84982,5.30027 8.15374,2.02034 1.63959,-1.2495 4.94983,-3.02138 7.35608,-3.93751 9.48784,-3.61231 13.3324,-5.63112 18.33537,-9.62805 2.8657,-2.28945 6.03138,-4.16263 7.03484,-4.16263 2.52526,0 10.54561,-3.44802 11.45934,-4.92647 0.41279,-0.66789 1.51427,-0.92126 2.44778,-0.56305 0.93348,0.35822 3.13991,-0.79135 4.90314,-2.55459 3.61564,-3.61564 7.79369,-4.39599 6.57827,-1.22866 -0.41731,1.08748 -0.75874,2.18609 -0.75874,2.44136 0,0.25526 -2.10938,1.45736 -4.6875,2.67133 -2.57813,1.21397 -6.9375,3.71449 -9.6875,5.55671 -4.84974,3.24883 -13.57095,8.19866 -21.25,12.0607 -2.0625,1.0373 -6.38216,4.05875 -9.59926,6.71433 -3.21709,2.65559 -6.38717,4.82834 -7.04461,4.82834 -0.65746,0 -2.80653,0.84028 -4.77574,1.8673 -1.96922,1.02701 -4.51154,1.87076 -5.64963,1.875 -1.13807,0.004 -4.42567,1.97645 -7.30576,4.3827 -6.30656,5.26899 -7.04303,5.31741 -14.25824,0.9375 -7.89985,-4.79551 -8.05232,-12.45074 -0.17652,-8.86229 3.85621,1.75701 5.32207,0.67573 6.40165,-4.72216 1.56675,-7.83374 -7.75599,-11.19756 -11.71253,-4.2261 -1.42696,2.51431 -2.74786,3.48782 -4.00436,2.95122 -1.03125,-0.4404 -5.06455,-1.06814 -8.96289,-1.39498 -6.19265,-0.5192 -7.18242,-0.9709 -7.83631,-3.57622 -1.54388,-6.15127 -8.2008,-2.77329 -8.2008,4.1614 0,3.24275 -0.79704,4.62808 -3.66683,6.37331 -2.61316,1.58915 -3.35659,2.73189 -2.58722,3.97677 1.21446,1.96503 -0.25231,5.4465 -4.05504,9.62485 -1.74869,1.92142 -2.26076,3.68322 -1.70924,5.88067 1.62634,6.47987 -3.83692,13.70235 -8.0796,10.6813 -2.36311,-1.68268 -3.50088,-3.50591 -3.3131,-5.30903 0.42324,-4.06369 -4.36166,-3.72591 -5.36553,0.37876 -0.7274,2.9742 -1.14342,3.10701 -8.62123,2.75219 -8.60931,-0.4085 -14.32511,1.99411 -13.60759,5.7199 0.337,1.74989 2.39502,2.08897 13.51397,2.22663 15.97123,0.19773 17.98873,0.87717 17.01793,5.73117 -0.52308,2.61544 -0.2287,3.57011 1.10092,3.57011 2.4223,0 6.08435,5.74363 5.17423,8.11535 -1.60637,4.18614 -7.05167,2.23736 -7.05167,-2.52366 0,-4.40833 0,-4.40833 -10.9375,-4.27444 -21.58776,0.26425 -36.25423,8.22956 -26.875,14.59572 4.69494,3.1867 34.30617,2.10295 39.73519,-1.45427 3.27177,-2.14375 3.46,-2.13156 5.97851,0.38695 3.923,3.92299 1.7572,8.80446 -4.7762,10.76503 -2.75,0.82522 -10.81783,5.94728 -17.92851,11.38237 -7.11068,5.43508 -13.57943,10.22391 -14.375,10.64187 -7.71674,4.05403 -9.57272,4.86508 -11.13312,4.86508 -0.9905,0 -2.7485,1.04709 -3.90668,2.32686 -1.15818,1.27978 -4.47974,3.30583 -7.38124,4.50234 -2.9015,1.1965 -6.1192,2.66861 -7.15045,3.27134 -1.03125,0.60274 -5.43676,3.1509 -9.79001,5.66258 -4.35326,2.51169 -8.20797,5.33013 -8.56603,6.26322 -0.35806,0.93309 -2.82511,2.28193 -5.48233,2.99746 -3.36276,0.90549 -7.4744,3.94926 -13.52668,10.01356 -9.16407,9.18228 -13.88495,11.16544 -13.88495,5.83285 z m 241.41562,-5.24521 c -1.41972,-2.40625 -3.16278,-4.375 -3.87346,-4.375 -0.71069,0 -1.29216,-0.84375 -1.29216,-1.875 0,-3.27572 3.08085,-2.0349 7.86394,3.16725 5.19669,5.65199 5.74379,7.45775 2.25953,7.45775 -1.39102,0 -3.44696,-1.81424 -4.95785,-4.375 z m -35.19831,-7.82125 c -1.73672,-1.19831 -8.09046,-7.11799 -14.11942,-13.15484 -12.2825,-12.29855 -12.03104,-12.2616 -16.46317,-2.41927 -2.55838,5.68137 -4.16956,7.5735 -7.86368,9.23496 -11.58858,5.21207 -17.65141,5.97645 -20.98246,2.64541 -1.17699,-1.177 -2.83229,-2.2416 -3.67843,-2.36578 -5.0158,-0.73617 -9.94975,-6.70975 -7.03161,-8.51325 0.59319,-0.36662 1.80547,-3.35294 2.69396,-6.63628 2.5473,-9.41336 9.805,-12.30292 15.81241,-6.2955 2.56905,2.56905 -2.52515,12.59705 -7.31835,14.40629 -3.8748,1.46257 -4.59485,3.7092 -1.56185,4.87306 1.20045,0.46066 2.69465,-0.30631 3.87232,-1.98765 1.30882,-1.86861 2.94733,-2.61524 5.16121,-2.35183 7.92947,0.94345 13.9438,-13.40694 8.38676,-20.01111 -4.69761,-5.5828 -4.07033,-6.47796 4.53948,-6.47796 8.43604,0 6.84628,-1.11086 23.2695,16.25976 2.91993,3.08838 8.96112,9.27149 13.42485,13.74024 4.46373,4.46875 7.94578,8.65234 7.7379,9.29687 -0.66815,2.07153 -2.64313,1.98987 -5.87942,-0.24312 z m 15.03269,-12.39251 c -3.78125,-3.14053 -7.05873,-6.79812 -7.28326,-8.12799 -0.22455,-1.32987 -1.72329,-2.91791 -3.33054,-3.52899 -1.60725,-0.61107 -3.26461,-2.18966 -3.68303,-3.50795 -0.41841,-1.3183 -4.96976,-5.9801 -10.11411,-10.35956 -5.14436,-4.37946 -9.65829,-8.92332 -10.03093,-10.09748 -0.37267,-1.17414 -2.57446,-2.76083 -4.89287,-3.52598 -2.3184,-0.76514 -4.89165,-2.20615 -5.71832,-3.20223 -0.82668,-0.99609 -2.43402,-1.81106 -3.57186,-1.81106 -1.13785,0 -3.34579,-0.89442 -4.90654,-1.98762 -6.00629,-4.20697 2.9554,-7.53951 9.78146,-3.63738 4.04491,2.31229 9.8979,2.35468 12.40157,0.0899 1.60138,-1.44862 2.96462,-1.52053 7.23089,-0.38144 4.43475,1.18407 5.60873,1.08583 7.50229,-0.62782 1.23465,-1.11735 3.83639,-2.63665 5.78164,-3.37623 4.1843,-1.59087 3.82518,-3.9875 -0.84479,-5.63796 -2.27416,-0.80373 -4.68931,-0.69901 -7.52471,0.32628 -6.04204,2.18478 -14.54689,-1.68714 -14.54689,-6.62265 0,-0.88329 8.08525,-3.14505 11.2428,-3.14505 3.34007,0 7.5072,-3.30088 7.5072,-5.94664 0,-6.28283 -10.84036,-6.35073 -27.1875,-0.1703 -3.9387,1.48913 -3.68917,6.67384 0.50842,10.56404 3.90831,3.62209 3.81924,3.78061 -2.69592,4.79836 -8.68425,1.3566 -13.0355,-10.6986 -6.29466,-17.43943 1.74331,-1.74332 3.16966,-4.00551 3.16966,-5.02708 0,-1.02157 0.84331,-2.18102 1.87403,-2.57655 2.19889,-0.84379 -2.87705,-5.45825 -6.5926,-5.99321 -2.54746,-0.36678 -3.76993,-5.70994 -1.30587,-5.70766 0.90719,8.3e-4 3.2838,1.40708 5.28137,3.125 4.46681,3.84148 3.78809,3.89189 9.60246,-0.71317 4.29571,-3.40226 9.57035,-6.51575 19.89061,-11.7409 13.57939,-6.87525 16.47298,-8.17246 18.22964,-8.17246 1.09887,0 4.29798,-1.96875 7.10915,-4.375 2.81116,-2.40625 6.39122,-4.375 7.9557,-4.375 1.56447,0 4.91671,-1.40625 7.44943,-3.125 2.53272,-1.71875 5.9327,-3.125 7.55552,-3.125 1.62281,0 2.95056,-0.51888 2.95056,-1.15306 0,-1.99988 8.78235,-4.31459 10.36507,-2.73186 1.01324,1.01323 0.82628,1.38492 -0.69657,1.38492 -1.14484,0 -3.92921,1.59885 -6.1875,3.55299 -3.95859,3.42544 -26.34448,15.1646 -29.03889,15.228 -0.72441,0.0171 -4.12961,2.09986 -7.56711,4.62848 -3.4375,2.52862 -8.5,5.80388 -11.25,7.27835 -22.0108,11.8016 -22.18059,12.06437 -8.76629,13.56593 5.82558,0.65211 8.22172,1.58921 10.81455,4.22949 1.83197,1.86546 4.22992,4.11706 5.32879,5.00355 2.21645,1.78805 2.69752,7.1833 0.74795,8.38821 -3.12402,1.93076 -1.23001,6.83439 3.58944,9.29309 12.66985,6.46367 -1.11145,20.08191 -20.32239,20.08191 -7.10824,0 -11.9671,2.79881 -7.39536,4.25989 3.68251,1.17689 31.03635,29.40582 32.27456,33.30706 0.42472,1.33817 1.51789,2.43305 2.42925,2.43305 1.88658,0 3.53682,3.40247 2.47979,5.1128 -1.11607,1.80583 -2.02039,1.34891 -9.30529,-4.70156 z m -108.19588,-2.24348 c -5.50502,-5.50503 -4.32122,-11.46591 3.42297,-17.23584 13.15271,-9.79963 24.0657,-5.54924 11.722,4.56548 -4.43079,3.6307 -5.62893,5.46251 -5.9375,9.07776 -0.53509,6.26904 -4.84815,7.95191 -9.20747,3.5926 z m 35.69588,-34.17885 c 0,-3.43573 3.6159,-5.8455 5.69651,-3.79636 1.15462,1.13715 1.7183,2.68402 1.25263,3.4375 -0.97238,1.57333 -6.94914,1.88196 -6.94914,0.35886 z m 93.86161,-11.97942 c -0.79447,-0.95729 -3.10837,-2.42973 -5.142,-3.27208 -9.87907,-4.09205 -11.56701,-25.11864 -2.40985,-30.0194 6.59239,-3.52813 10.35338,8.77078 4.23489,13.84868 -3.52807,2.92804 -2.09749,7.10485 3.83035,11.18331 5.74864,3.95518 7.28436,7.84577 3.64776,9.24126 -2.60175,0.99839 -2.49731,1.02303 -4.16115,-0.98177 z M 233.48571,517.97879 c -2.12163,-0.94177 -1.96833,-3.59233 0.31749,-5.48939 3.92821,-3.26011 4.36121,-16.24585 0.54171,-16.24585 -2.21704,0 -3.92991,-5.05773 -2.35539,-6.9549 2.48885,-2.99889 4.9243,-2.06606 10.81517,4.1424 11.07815,11.67543 3.95471,30.43976 -9.31898,24.54774 z m 218.75,-3.81309 c -0.85938,-0.34676 -1.5625,-1.97914 -1.5625,-3.6275 0,-3.56897 5.17265,-5.49487 8.14124,-3.03118 4.87476,4.04571 -0.23562,9.21818 -6.57874,6.65868 z m -233.4375,-6.91584 c -5.05581,-2.86696 -5.90503,-7.5995 -1.76159,-9.81701 5.56608,-2.97888 12.94789,3.53754 10.68563,9.4329 -0.846,2.20465 -5.37018,2.39939 -8.92404,0.38411 z m 71.36661,-58.71915 c -2.52467,-3.60448 -2.6087,-8.53716 -0.14542,-8.53716 1.0154,0 2.74946,1.37859 3.85349,3.06354 3.71186,5.66502 0.1297,10.95279 -3.70807,5.47362 z m -4.82933,-1.13068 c 0.75107,-2.87215 1.09916,-2.98264 2.00006,-0.63493 0.37388,0.97435 -0.0647,2.05727 -0.97479,2.40648 -1.12958,0.43346 -1.4549,-0.12866 -1.02528,-1.77155 z m 192.26767,-7.31757 c -0.8718,-1.4106 4.28346,-5.25907 5.79415,-4.32541 1.38861,0.85821 0.23713,2.6517 -2.71786,4.23316 -1.44038,0.77086 -2.63475,0.80668 -3.07629,0.0922 z m 17.55947,-11.73941 c 1.32324,-1.81433 3.63803,-3.28843 5.19808,-3.31022 5.37351,-0.0751 2.49529,4.05151 -3.95506,5.67045 -3.62858,0.91072 -3.62858,0.91072 -1.24302,-2.36023 z m -36.69933,-3.3495 c 1.81967,-2.91375 8.45991,-3.50929 8.45991,-0.75874 0,2.01702 -2.66268,3.25874 -6.98782,3.25874 -2.72045,0 -2.87231,-0.25789 -1.47209,-2.5 z m -100.91509,-1.62129 c -5.62708,-1.82226 -6.875,-3.26459 -6.875,-7.946 0,-5.19678 1.72425,-6.00317 8.10937,-3.79259 12.18464,4.21843 10.97799,15.69343 -1.23437,11.73859 z m -127.8388,-0.46533 c -2.26982,-0.91325 -5.69842,-8.00645 -4.45507,-9.2168 0.57413,-0.5589 2.87199,-0.24017 5.10637,0.70828 6.39954,2.71648 5.75876,11.08759 -0.6513,8.50852 z m 243.1593,-2.38454 c -1.26586,-1.26587 0.42756,-4.27884 2.40489,-4.27884 1.03921,0 1.65791,0.9024 1.42876,2.08392 -0.43381,2.23689 -2.56912,3.45944 -3.83365,2.19492 z m -221.7839,-7.748 c -0.80486,-0.51199 -1.85524,-2.49215 -2.33418,-4.40037 -0.57458,-2.28933 -2.22262,-4.03433 -4.84497,-5.13002 -4.44335,-1.85655 -11.13391,-9.08961 -10.04204,-10.85629 2.04251,-3.30484 13.05959,4.14128 13.05959,8.82659 0,0.94971 2.0155,3.57287 4.4789,5.82925 4.94026,4.5251 4.69691,8.92042 -0.3173,5.73084 z"
       id="path3540"
       inkscape:connector-curvature="0" />
  </g>
</svg>
