<?xml version="1.0" encoding="UTF-8" standalone="no"?>
<svg
   xmlns:dc="http://purl.org/dc/elements/1.1/"
   xmlns:cc="http://creativecommons.org/ns#"
   xmlns:rdf="http://www.w3.org/1999/02/22-rdf-syntax-ns#"
   xmlns:svg="http://www.w3.org/2000/svg"
   xmlns="http://www.w3.org/2000/svg"
   viewBox="0 0 396.94193 434.66666"
   height="434.66666"
   width="396.94193"
   id="svg993"
   version="1.1">
  <metadata
     id="metadata999">
    <rdf:RDF>
      <cc:Work
         rdf:about="">
        <dc:format>image/svg+xml</dc:format>
        <dc:type
           rdf:resource="http://purl.org/dc/dcmitype/StillImage" />
        <dc:title></dc:title>
      </cc:Work>
    </rdf:RDF>
  </metadata>
  <defs
     id="defs997" />
  <path
     id="path1003"
     d="m 190.07516,432.88649 c -1.339,-0.9791 -2.58423,-3.68312 -2.76719,-6.00895 -0.22005,-2.79728 -2.38423,-6.59533 -6.39319,-11.21983 -12.11449,-13.97453 -16.65576,-18.32438 -19.13074,-18.32438 -1.38822,0 -3.70754,-0.7896 -5.15403,-1.75467 -5.85749,-3.90795 -18.43811,-7.57867 -25.9743,-7.57867 -4.27552,0 -11.27213,-0.85938 -15.54802,-1.90973 -6.85154,-1.68305 -36.552469,-4.40143 -39.582219,-3.62276 -0.627658,0.16131 -4.479815,-2.45524 -8.560352,-5.81457 -4.080536,-3.35932 -8.066999,-6.5305 -8.858805,-7.04706 -1.487352,-0.97033 -10.166944,-11.59685 -11.995893,-14.6867 -0.568911,-0.96114 -0.275975,-5.56304 0.650968,-10.22647 1.476593,-7.42872 1.41888,-8.88565 -0.465931,-11.76224 -1.366637,-2.08575 -2.422561,-7.56626 -2.895064,-15.0261 -0.40908,-6.45856 -1.320344,-13.57919 -2.025031,-15.8236 -0.704685,-2.24442 -2.202422,-7.03764 -3.328305,-10.65162 -1.125883,-3.61397 -2.047059,-8.09156 -2.047059,-9.95021 0,-5.24963 -10.364545,-25.02055 -14.550053,-27.755 C 6.732123,244.10858 3.9999999,242.13738 3.9999999,241.13402 3.9999999,240.51032 3.1,240 2,240 c -1.34190792,0 -2,-1.34208 -2,-4.0787 0,-2.3796 0.55543608,-3.73541 1.3333333,-3.25464 0.7333333,0.45323 1.3333333,1.68864 1.3333333,2.74536 0,1.12696 1.2934449,1.92131 3.1284826,1.92131 4.1848504,0 10.5431958,3.28781 15.1265908,7.82175 11.246287,11.12492 17.744926,18.97666 17.744926,21.43968 0,1.52612 0.590932,3.81661 1.313181,5.09 3.084187,5.43766 6.84391,19.91184 7.320167,28.18117 0.282871,4.91152 0.878301,10.40095 1.32318,12.19872 1.342377,5.4246 3.701663,29.31434 3.878071,39.26868 l 0.165401,9.33333 5.333333,0.1244 c 8.874864,0.20711 9.027829,0.27913 8.331307,3.92276 -0.429672,2.24768 0.07676,3.76704 1.51123,4.53389 3.006498,1.60723 29.573364,0.97936 32.824134,-0.77574 1.46666,-0.79187 5.27965,-1.83919 8.47329,-2.32736 6.07362,-0.92843 12.78348,-3.87764 15.89008,-6.98423 1.00491,-1.00491 2.59729,-1.82711 3.53864,-1.82711 2.28652,0 17.5378,-14.8251 18.61004,-18.09 0.46541,-1.41717 4.13992,-6.17666 8.16557,-10.57666 l 7.31936,-8 0.001,4.35347 c 8.3e-4,2.39439 -1.01014,7.99219 -2.24662,12.43954 -1.949,7.01017 -2.01423,8.91464 -0.49026,14.3132 0.96684,3.42492 1.6864,7.56295 1.59902,9.19563 -0.19224,3.592 9.25908,16.59802 13.84516,19.05242 1.81181,0.96966 3.29421,2.51808 3.29421,3.44094 0,0.92285 1.48667,2.84733 3.30369,4.27661 1.81704,1.42927 3.88411,4.12525 4.59348,5.99108 0.97743,2.57081 1.96624,3.21551 4.08295,2.66197 2.38188,-0.62288 2.53773,-1.04904 1.05843,-2.89432 -2.78368,-3.47237 -6.37078,-10.42178 -6.38483,-12.3696 -0.007,-0.98685 -1.95711,-4.2399 -4.33333,-7.22901 -9.20544,-11.57976 -12.6612,-22.53169 -10.57299,-33.50769 0.80827,-4.24834 1.79105,-11.08975 2.184,-15.20313 0.39293,-4.11339 1.68325,-9.79764 2.86739,-12.63167 2.00352,-4.79509 1.99144,-5.45269 -0.174,-9.47368 -2.16475,-4.01969 -2.17468,-4.55332 -0.14255,-7.65476 1.20161,-1.83356 2.1846,-4.85491 2.1846,-6.71404 0,-1.85913 0.55233,-3.38024 1.22739,-3.38024 1.79082,0 3.26862,-8.03732 1.75594,-9.55 -1.26196,-1.26196 -6.98333,6.72268 -6.98333,9.74583 0,0.7572 -1.18211,2.3729 -2.62691,3.59045 -1.4448,1.21755 -4.69717,6.45073 -7.22752,11.62931 -2.53033,5.17858 -5.54822,10.20205 -6.70642,11.16326 -1.1582,0.96122 -2.10582,2.32323 -2.10582,3.02668 0,0.70346 -2.1,3.84179 -4.66666,6.97407 -2.56667,3.13227 -4.66667,6.47304 -4.66667,7.42393 0,2.53008 -11.97263,13.56633 -18.07691,16.66313 -2.89103,1.46667 -7.58407,4.68526 -10.42897,7.15242 -4.4617,3.86929 -5.8796,4.39092 -10.31751,3.79566 -3.88801,-0.52149 -5.98749,-0.0273 -8.59356,2.02258 -4.18412,3.29122 -12.084968,4.26609 -21.916381,2.70421 -5.417879,-0.86072 -7.187299,-1.66693 -6.774237,-3.08661 0.307502,-1.05687 0.832292,-4.32159 1.166198,-7.25492 0.333906,-2.93334 1.432312,-6.51684 2.440904,-7.96335 1.008591,-1.44649 1.833801,-5.47803 1.833801,-8.95893 0,-7.85271 6.444738,-22.18816 13.372076,-29.74439 2.016899,-2.2 4.029786,-5.2 4.473083,-6.66666 0.443297,-1.46667 2.609832,-3.86667 4.81452,-5.33334 2.204688,-1.46666 4.610006,-4.48121 5.345146,-6.69897 0.83144,-2.50829 3.16126,-5.01495 6.16432,-6.6322 2.65523,-1.42995 5.72241,-3.9654 6.81595,-5.63436 1.09355,-1.66896 3.05628,-3.03447 4.36164,-3.03447 1.30535,0 3.78635,-1.53502 5.51332,-3.41117 1.72697,-1.87615 4.53871,-3.97984 6.24832,-4.67488 4.08408,-1.66036 3.03757,-4.46329 -1.87787,-5.02963 -2.14344,-0.24696 -4.37699,-1.29696 -4.96343,-2.33333 -1.64373,-2.90485 -9.60752,-2.37248 -11.77111,0.78689 -3.29381,4.80976 -29.317779,8.28258 -40.661619,5.42616 -3.345432,-0.84238 -7.260867,-1.15765 -8.700968,-0.70057 -4.058851,1.28823 -2.335335,5.03123 3.022237,6.56345 2.640588,0.7552 5.693,2.11952 6.783138,3.03183 3.151286,2.63724 9.304986,3.33901 16.44953,1.87592 7.687737,-1.57435 19.644752,-5.59051 20.611712,-6.92313 1.24461,-1.71528 6.43817,-2.72662 7.25069,-1.41192 0.94578,1.53029 -4.30612,6.80038 -6.77691,6.80038 -1.40217,0 -8.8648,6.48878 -19.140441,16.64264 -13.976068,13.81044 -21.963864,24.61118 -23.904979,32.32322 -3.035628,12.06054 -4.490821,16.36747 -5.530121,16.36747 -1.617176,0 -2.905991,-8.23574 -3.106715,-19.85243 -0.173817,-10.0595 -2.118497,-19.77414 -5.501137,-27.4809 -0.965621,-2.2 -2.467562,-6.4 -3.337648,-9.33333 C 49.749314,276.4 47.688993,271.6 46.040909,268.66666 44.392825,265.73333 42.663214,261.74406 42.19733,259.80161 41.731446,257.85917 36.696458,251.34188 31.008468,245.31874 20.921756,234.6377 12.866204,229.28068 3.9450463,227.32126 0.67218996,226.60242 0,225.79128 0,222.56072 c 0,-2.14172 0.15,-3.90055 0.33333333,-3.90848 0.18333333,-0.008 3.21796527,-0.88967 6.74362657,-1.95939 6.3028041,-1.91235 6.3954321,-1.89813 5.5239841,0.84756 -1.042272,3.28391 1.146645,5.07617 6.235796,5.10584 3.802042,0.0221 5.939074,-1.85681 6.686449,-5.87901 0.351199,-1.89007 2.360668,-2.99031 7.627746,-4.1764 4.549199,-1.02443 8.328426,-2.88019 10.387292,-5.10058 C 45.318223,205.57061 47.390335,204 48.142921,204 c 0.752585,0 3.278304,-1.43147 5.612707,-3.18104 8.792706,-6.5899 14.30396,-8.34882 26.911037,-8.58867 11.902428,-0.22645 28.488675,2.70156 30.123925,5.31785 1.03253,1.65199 20.2946,6.45186 25.89157,6.45186 3.08621,0 4.93781,-0.90555 6.39313,-3.12666 1.89819,-2.89698 1.83784,-3.31321 -0.8216,-5.66666 -6.86519,-6.07527 -11.00659,-8.54002 -14.34947,-8.54002 -1.96774,0 -4.32464,-0.9 -5.23756,-2 -1.7487,-2.10706 -8,-2.79524 -8,-0.88069 0,0.61563 1.53384,1.81819 3.40852,2.67235 1.87469,0.85416 3.03928,2.15046 2.58798,2.88068 -1.01001,1.63422 -8.99257,1.75873 -10.72983,0.16736 -0.69667,-0.63816 -5.55981,-2.43816 -10.806981,-4 -17.537068,-5.21995 -39.557569,-3.2016 -48.66328,4.46034 -2.200552,1.85164 -4.554968,3.36663 -5.232036,3.36663 -3.886495,0 2.181538,-17.27981 8.662019,-24.66667 1.93006,-2.2 3.807659,-5.5 4.172442,-7.33333 0.364782,-1.83333 1.274978,-6.06728 2.022658,-9.40877 0.747679,-3.34148 0.967787,-7.096 0.489128,-8.34338 C 59.477556,140.71536 61.049911,132 62.666666,132 c 0.666874,0 1.573062,2.25 2.013752,5 1.532786,9.56492 12.594407,24.84322 23.123849,31.93864 4.131025,2.78374 8.307886,5.81136 9.281914,6.72802 0.974028,0.91667 2.554636,1.66667 3.512459,1.66667 0.95783,0 2.48844,0.9 3.40136,2 1.87275,2.25652 8,2.73508 8,0.62483 0,-0.75636 -0.85476,-1.70319 -1.89945,-2.10408 -1.0447,-0.40088 -5.24565,-3.83206 -9.33545,-7.62482 -9.325767,-8.64845 -18.022961,-15.5626 -19.575952,-15.5626 -0.654032,0 -1.189149,-1.70701 -1.189149,-3.79334 0,-2.08635 -1.15629,-4.83979 -2.569531,-6.11875 -1.413243,-1.27897 -2.989111,-4.80885 -3.501928,-7.8442 -0.512818,-3.03535 -1.861108,-6.9362 -2.996198,-8.66857 -1.313286,-2.00433 -1.993499,-5.82181 -1.870479,-10.49749 0.165217,-6.27957 -0.188659,-7.44762 -2.434272,-8.03487 -3.166024,-0.82793 -3.329333,-2.13386 -0.554797,-4.43652 5.890917,-4.88903 5.062722,-10.317293 -2.021839,-13.251815 -2.228025,-0.922878 -4.050956,-2.205169 -4.050956,-2.849533 0,-1.315743 -0.942824,-1.274689 34.890941,-1.519257 l 26.22427,-0.178983 6.26273,4.879247 C 133.86213,97.404364 140,104.7132 140,107.38265 c 0,0.84217 3.3,4.99325 7.33333,9.22462 4.03333,4.23137 7.33333,8.22574 7.33333,8.87639 0,1.99018 3.66466,1.3134 4.48662,-0.82857 1.2837,-3.34528 -1.98136,-9.48867 -9.48024,-17.83763 -2.37983,-2.6496 -4.32983,-5.13054 -4.33334,-5.51319 -0.004,-0.38265 -2.55637,-3.422842 -5.67304,-6.755982 -6.41734,-6.863076 -14.02226,-11.881623 -18.00496,-11.881623 -1.47962,0 -4.4088,-0.896304 -6.50929,-1.991785 -5.31874,-2.773913 -36.879837,-2.821685 -43.475582,-0.06581 -3.475982,1.452359 -5.835356,1.614793 -9.351848,0.643843 -4.807937,-1.327535 -8.635673,-4.530126 -6.723058,-5.625048 2.706288,-1.54928 15.164814,-3.776291 17.32067,-3.096137 2.742152,0.865125 31.380638,1.037301 44.410738,0.267001 12.03853,-0.711683 21.05607,-2.641012 27.40207,-5.862761 6.65816,-3.380223 23.12408,-19.46828 24.77624,-24.207672 0.72592,-2.082367 3.61505,-4.794507 7.1846,-6.744453 3.45017,-1.884734 5.97042,-4.217992 5.97042,-5.527427 0,-1.246268 0.96059,-3.226536 2.13466,-4.400594 1.39302,-1.39303 1.84742,-3.279027 1.30793,-5.428571 -0.68135,-2.714676 -0.33752,-3.29392 1.9552,-3.29392 2.00844,0 2.60099,0.648745 2.13119,2.333333 C 188.17532,26.91108 187.72422,28 186.74348,28 c -0.59224,0 -1.4374,1.802961 -1.87814,4.006581 -0.45092,2.254608 -3.34705,6.481592 -6.62316,9.666666 -3.20201,3.113047 -6.955,8.360086 -8.33998,11.660086 -1.38498,3.299999 -3.18171,6.599999 -3.99272,7.333333 -2.24996,2.034456 -6.98955,14.613284 -8.78927,23.326681 -1.24104,6.008516 -1.24912,8.953328 -0.0353,12.89657 3.93726,12.791563 5.96009,11.088203 6.39113,-5.381784 0.37181,-14.206837 1.27923,-16.671683 11.84487,-32.174801 3.99824,-5.866666 8.03669,-11.860255 8.97434,-13.319087 0.93766,-1.458832 3.75874,-4.666542 6.26908,-7.128244 4.95735,-4.861307 5.17686,-6.375411 3.89783,-26.886001 -0.29724,-4.7666668 6.5e-4,-9.4166667 0.662,-10.3333334 C 195.86965,0.63325036 199.55738,0 204.82992,0 h 8.50341 v 4.0741123 c 0,2.5987357 2.77636,8.6722857 7.66667,16.7715297 4.21666,6.98358 8.50477,14.403293 9.52913,16.488251 1.71169,3.483937 6.42493,6.156484 8.02883,4.552584 0.37093,-0.370931 -0.0432,-1.823414 -0.92015,-3.227739 -2.07464,-3.322035 -0.77756,-6.751005 2.1392,-5.655196 2.75487,1.034989 13.55632,11.962315 13.55632,13.714301 0,1.80409 -1.73065,1.5939 -4.68931,-0.56952 -5.27902,-3.860122 -8.05397,1.250734 -3.61437,6.65692 3.60988,4.395836 16.90283,12.528089 20.47835,12.528089 1.77758,0 4.41549,0.821748 5.86198,1.826107 1.44651,1.004359 4.73002,2.130528 7.29668,2.5026 2.56667,0.372072 8.14595,1.650324 12.39839,2.84056 4.25244,1.190237 12.65244,2.173255 18.66667,2.184484 11.44746,0.02137 17.12323,1.572212 11.38098,3.109726 -1.71199,0.458394 -6.53342,0.841636 -10.71432,0.85165 -4.18089,0.01 -10.99069,0.90095 -15.1329,1.979861 -7.29871,1.901071 -19.25826,8.340356 -19.2631,10.371679 -0.001,0.55 -0.8815,1 -1.95598,1 -1.0745,0 -3.9245,1.667266 -6.33334,3.705036 -2.40885,2.037769 -6.92973,5.419365 -10.0464,7.514665 C 254.55,105.315 252,107.74315 252,108.61558 c 0,0.87244 -1.5,2.99542 -3.33334,4.71775 -4.25352,3.99597 -4.42065,8.00306 -0.33333,7.99157 1.91709,-0.005 3.80173,-1.41764 5.22104,-3.91238 1.22156,-2.14718 4.67156,-5.45091 7.66667,-7.34163 2.99509,-1.89072 5.44562,-4.01071 5.44562,-4.71109 0,-1.93941 13.51462,-11.701672 17.61198,-12.721989 1.98658,-0.494696 4.31005,-1.740579 5.16326,-2.76863 0.89466,-1.078002 4.00094,-1.869182 7.33866,-1.869182 3.18306,0 8.83181,-1.2 12.55277,-2.666667 6.98876,-2.754712 16.65053,-3.481057 19.79516,-1.488144 2.49154,1.579016 -5.19226,4.154811 -12.39412,4.154811 -3.04391,0 -6.10437,0.533572 -6.80104,1.185716 -0.69667,0.652142 -4.71327,2.167913 -8.92576,3.368378 -4.21251,1.200466 -9.84624,3.666894 -12.5194,5.480952 -2.67316,1.814057 -5.65861,3.298285 -6.63432,3.298285 -0.97571,0 -3.07148,1.75491 -4.65727,3.8998 -1.58578,2.14488 -4.28642,4.25197 -6.00142,4.68241 -1.715,0.43043 -3.74631,1.95627 -4.51403,3.39075 -0.76771,1.43448 -2.88503,4.21501 -4.70515,6.17895 -1.82012,1.96395 -3.30932,4.33717 -3.30932,5.27382 0,0.93665 -1.5,3.48565 -3.33333,5.66445 -2.21476,2.63209 -3.33333,5.5843 -3.33333,8.79754 0,3.86463 -0.6696,5.14121 -3.33334,6.35488 -1.89954,0.86549 -3.33333,2.63904 -3.33333,4.12321 0,1.43244 -1.18101,4.78614 -2.62448,7.45266 -1.44347,2.6665 -3.17009,8.04518 -3.83696,11.95261 -2.70643,15.85807 6.55939,10.17267 45.20064,-27.73461 11.32677,-11.11163 23.13513,-21.98814 26.24081,-24.17002 3.10567,-2.18187 6.29787,-5.18382 7.09377,-6.671 0.79592,-1.48717 4.10492,-3.84321 7.35334,-5.23565 3.24841,-1.39243 5.90621,-3.41259 5.90621,-4.48923 0,-1.076644 1.14632,-2.321363 2.54739,-2.766044 1.40106,-0.44468 3.5817,-2.387083 4.84588,-4.316452 1.86549,-2.847096 1.99614,-3.992079 0.69356,-6.077847 -0.88271,-1.413446 -1.41336,-2.689986 -1.17922,-2.836756 0.23415,-0.146769 2.07572,-0.975478 4.09239,-1.841576 4.72671,-2.029976 5.12761,-7.797262 0.66667,-9.590343 -2.22583,-0.894675 -2.40984,-1.227663 -0.71307,-1.290368 3.33731,-0.123334 11.71307,-7.932024 11.71307,-10.920042 0,-2.432046 0.16784,-2.449312 3.37594,-0.34728 3.04706,1.996511 3.17975,2.428795 1.36203,4.437352 -1.80176,1.990914 -1.75717,2.709259 0.42321,6.818736 1.34043,2.526363 2.17998,5.493385 1.86567,6.593385 -1.61135,5.639374 -1.74795,5.812234 -3.33723,4.222956 -0.85596,-0.855958 -2.28976,-1.556289 -3.18622,-1.556289 -1.86616,0 -5.08578,8.645673 -3.92128,10.529873 0.72776,1.177542 -0.68887,12.043795 -3.32055,25.470125 -0.64683,3.3 -1.67833,9.07682 -2.29224,12.83738 -1.21643,7.45137 -4.50123,13.49549 -8.04703,14.80677 -2.11713,0.78293 -12.25564,10.36673 -12.25564,11.5851 0,2.01494 -11.29449,11.43902 -13.71818,11.4464 -1.62167,0.005 -7.12071,2.69875 -12.22009,5.98624 -5.09938,3.28748 -11.39938,6.67819 -14,7.53488 C 278.92613,183.22188 272,187.84666 272,189.58408 c 0,1.69085 6.69145,1.24845 13.81776,-0.91355 4.13061,-1.25315 7.2624,-1.53188 8.62764,-0.76787 1.67548,0.93766 1.08068,1.39874 -2.7254,2.11276 -2.67775,0.50235 -5.16964,1.69782 -5.53755,2.65658 -0.36792,0.95876 -2.65948,2.17438 -5.09236,2.70138 -4.289,0.92907 -11.96536,5.45 -12.86787,7.57846 -0.24445,0.57649 -2.37977,1.04816 -4.74516,1.04816 -2.3654,0 -5.42353,0.82101 -6.79585,1.82448 -2.43209,1.77838 -2.43011,1.85768 0.0785,3.13785 2.90374,1.48184 11.24026,-0.24904 11.24026,-2.33379 0,-0.71237 1.35888,-1.29521 3.01974,-1.29521 1.66086,0 5.25952,-1.20045 7.99702,-2.66765 2.7375,-1.46722 5.42862,-2.54702 5.98026,-2.39955 0.55163,0.14745 7.00298,-1.71367 14.33631,-4.13583 8.84248,-2.92062 17.95162,-4.83292 27.04504,-5.67757 13.2342,-1.22929 13.97112,-1.15488 21.16112,2.13681 4.09718,1.87575 8.07966,3.41046 8.84997,3.41046 0.77031,0 2.47363,0.9711 3.78515,2.15802 1.6233,1.46907 3.5223,1.87248 5.94824,1.26362 l 3.56364,-0.89442 -2.73036,-2.5437 c -1.5017,-1.39904 -3.53115,-3.65468 -4.50991,-5.01252 -2.11139,-2.92914 -10.80632,-7.12083 -21.48712,-10.35863 -6.13208,-1.85888 -8.3934,-2.024 -11.06275,-0.80776 -1.84534,0.8408 -5.93513,1.52872 -9.08841,1.52872 -3.81946,0 -6.7596,0.89015 -8.80794,2.66667 -2.07855,1.80272 -4.98848,2.66666 -8.98179,2.66666 -7.34589,0 -7.11565,-2.6202 0.41291,-4.69917 4.91732,-1.35788 9.18313,-3.26208 18.47422,-8.24663 6.53443,-3.50564 21.63833,-19.30617 25.32912,-26.49737 1.91288,-3.72708 4.34012,-10.62708 5.39387,-15.33333 1.05376,-4.70626 2.52914,-10.95683 3.27865,-13.89016 0.74949,-2.93334 1.37704,-7.88334 1.39453,-11 0.0175,-3.11667 0.63182,-5.66667 1.36515,-5.66667 2.26849,0 1.39228,16.08086 -1.48933,27.33333 -4.06731,15.88247 -4.25467,18.12895 -2.56867,30.79842 1.92696,14.48029 3.99963,18.44825 14.058,26.913 4.4,3.70288 10.1,8.58121 12.66667,10.84074 2.56666,2.25954 5.06625,4.10966 5.55462,4.11138 2.03918,0.007 8.95028,10.45162 9.7553,14.74274 0.67876,3.61811 0.26225,5.34566 -1.88606,7.82267 -1.51646,1.74849 -2.7572,3.92308 -2.7572,4.83241 0,0.90934 -0.84592,1.97795 -1.87981,2.3747 -1.03391,0.39674 -2.86137,4.09778 -4.06105,8.22454 -2.8874,9.93227 -9.25535,18.40075 -20.55814,27.3394 -8.35385,6.60652 -14.47714,14.6752 -12.97792,17.101 0.312,0.50483 0.0448,9.77459 -0.59366,20.59948 -1.04583,17.7303 -0.90472,20.51112 1.42325,28.04821 1.97283,6.38728 2.57593,12.23092 2.54935,24.70132 l -0.0348,16.33474 -7.60027,4.94096 c -10.43825,6.78594 -10.95976,6.91862 -16.40573,4.17386 -3.39114,-1.70913 -5.22228,-2.00514 -6.22168,-1.00574 -2.04194,2.04193 -30.33843,3.21136 -31.51812,1.30258 -0.56995,-0.9222 1.14821,-2.32608 4.47684,-3.65793 2.97095,-1.18875 5.40175,-2.68479 5.40175,-3.32452 0,-2.06837 -6.67587,-2.9146 -15.69975,-1.99008 -8.92359,0.91425 -36.62807,9.19249 -40.30025,12.04192 -1.1,0.85355 -3.5161,2.19404 -5.36908,2.97888 -11.70626,4.95817 -29.26923,26.5522 -29.31579,36.04433 -0.0447,9.10188 -0.74815,9.71099 -11.2158,9.71099 -5.89331,0 -10.52805,-0.68617 -12.02417,-1.78017 z m 10.5915,-2.21983 c -0.45322,-0.73333 -1.68864,-1.33333 -2.74536,-1.33333 -1.05672,0 -1.9213,0.6 -1.9213,1.33333 0,0.73333 1.23541,1.33333 2.74536,1.33333 1.50994,0 2.37453,-0.6 1.9213,-1.33333 z m -8.88352,-19.95232 c 0.35195,-2.40731 -2.11405,-5.50836 -11.33333,-14.25196 -12.00564,-11.38621 -22.06869,-17.79572 -27.9396,-17.79572 -1.79889,0 -4.66944,-0.91649 -6.37903,-2.03665 -2.01174,-1.31815 -5.64062,-1.92884 -10.28641,-1.73107 -3.94796,0.16807 -13.8889,-0.15127 -22.09099,-0.70964 -14.249891,-0.97008 -25.753781,0.45168 -25.753781,3.18291 0,1.03229 14.034171,2.16884 32.000001,2.59152 6.23333,0.14664 12.01981,0.83554 12.85883,1.53088 0.83902,0.69534 4.73902,1.62645 8.66666,2.06913 7.88581,0.88881 26.47451,9.26319 26.47451,11.927 0,0.91459 1.3384,2.08768 2.97421,2.60687 4.65473,1.47736 10.00425,5.91364 13.88679,11.51614 3.85886,5.56835 6.21422,5.94284 6.92214,1.10059 z m 33.22899,-17.04768 c 13.45848,-13.50316 19.26064,-33.07528 16.16585,-54.5314 -0.8619,-5.9756 -1.1454,-11.96367 -0.62998,-13.30682 0.8158,-2.12595 1.51538,-1.75507 5.40366,2.86471 4.70368,5.58859 5.19518,5.67495 6.58115,1.15646 0.6378,-2.07932 -0.35824,-4.17437 -3.80343,-8 -2.87616,-3.19377 -4.67938,-6.57217 -4.69845,-8.80271 -0.0191,-2.23297 -1.05257,-4.16652 -2.6976,-5.0469 -3.11448,-1.66682 -3.64335,-8.19624 -0.85156,-10.51323 1.4514,-1.20455 2.25776,-0.34732 4.02417,4.27793 1.21498,3.18139 3.27594,6.93582 4.57988,8.34315 1.30396,1.40735 3.77924,5.47623 5.50063,9.04196 10.8628,22.50144 37.19444,38.44768 62.83206,38.05061 4.71982,-0.0731 9.9669,-0.52309 11.66018,-1 3.5769,-1.00741 3.96133,-3.47407 0.57078,-3.66245 -5.08564,-0.28259 -13.24215,-2.26136 -17.89647,-4.34171 -4.04932,-1.80993 -5.06674,-3.07579 -5.78387,-7.19627 -0.61363,-3.5258 -1.55336,-5 -3.18724,-5 -1.27439,0 -3.72623,-1.5 -5.44856,-3.33333 -1.72233,-1.83333 -3.81467,-3.33333 -4.64963,-3.33333 -2.23858,0 -8.01405,-6.712 -9.89873,-11.50388 -0.99309,-2.52499 -4.82116,-6.47065 -9.70195,-10 -4.4339,-3.2062 -9.40834,-7.54548 -11.05433,-9.64285 -2.01977,-2.57367 -4.32327,-3.88032 -7.08549,-4.01924 -5.1301,-0.25802 -6.46459,-1.53092 -4.31738,-4.11816 2.32923,-2.80654 1.07051,-5.17828 -4.48904,-8.4585 -4.64268,-2.73925 -4.80442,-2.7469 -6.11942,-0.28981 -0.74288,1.38808 -1.3507,4.32783 -1.3507,6.53276 0,2.20493 -0.45661,4.29117 -1.0147,4.63609 -1.55183,0.95908 -5.0029,-2.04008 -7.2127,-6.2682 -1.84389,-3.52804 -2.14165,-3.64201 -4.18258,-1.60108 -1.80991,1.80991 -1.90872,2.66906 -0.56036,4.87242 1.37017,2.23901 1.25666,2.89113 -0.69632,4.00068 -2.8064,1.59437 -3.14508,8.591 -0.49022,10.12685 1.01372,0.58644 2.1781,3.46625 2.58751,6.39959 0.97759,7.00438 4.49101,25.26215 6.15788,31.99999 0.72567,2.93334 0.9802,8.63334 0.56563,12.66667 -0.90968,8.85015 -7.51663,27.05329 -11.94527,32.91104 -3.26507,4.31869 -4.30356,9.75563 -1.8634,9.75563 0.74001,0 2.99001,-1.65 5,-3.66667 z m 12.3212,-71.07869 c 0,-0.77661 0.6,-1.0412 1.33333,-0.58797 C 239.4,322.45322 240,323.08864 240,323.41202 240,323.73541 239.4,324 238.66666,324 c -0.73333,0 -1.33333,-0.63542 -1.33333,-1.41203 z m -34.66667,64.07869 c 0,-0.73333 -0.53188,-1.33333 -1.18194,-1.33333 -0.65007,0 -1.60126,-2.85 -2.11375,-6.33334 -0.51249,-3.48333 -2.1682,-7.66522 -3.67935,-9.2931 -2.13125,-2.29588 -3.04034,-5.88475 -4.05293,-16 -0.71796,-7.17212 -1.26483,-14.84023 -1.21525,-17.04023 0.32113,-14.24958 0.0715,-27.01201 -0.56862,-29.07281 -1.33582,-4.30041 -7.43964,3.98377 -9.50322,12.89791 -1.54864,6.68966 -1.53735,8.14067 0.0779,9.99999 3.3488,3.85507 3.30032,6.08115 -0.23557,10.81612 -3.68916,4.94022 -4.57569,13.51027 -1.69551,16.39046 0.82592,0.82592 1.50167,2.55158 1.50167,3.83482 0,3.32544 7.30608,13.70898 14.48865,20.59154 6.15355,5.89656 8.17796,7.02089 8.17796,4.54197 z m 21.8559,-17.5322 c 1.52706,-2.1802 2.1441,-6.06789 2.1441,-13.50907 0,-11.77409 -2.29685,-28.97646 -4.12469,-30.89206 -0.66476,-0.69667 -1.20864,-4.06915 -1.20864,-7.49441 0,-4.08464 -1.44573,-9.50092 -4.20119,-15.73938 -3.93022,-8.89813 -4.05922,-9.66849 -2,-11.9439 1.21066,-1.33775 2.20119,-3.73504 2.20119,-5.3273 0,-4.25224 -4.10741,-3.67593 -10.89635,1.52884 -5.01256,3.84292 -5.73198,5.0248 -5.47837,9 2.01159,31.53065 3.53819,47.03943 5.17533,52.57615 1.08418,3.66666 2.32528,12.66666 2.758,20 0.63886,10.82661 1.29614,13.89393 3.49612,16.31518 l 2.70934,2.98186 3.64052,-7.21739 c 2.00229,-3.96956 4.60537,-8.59489 5.78464,-10.27852 z m -150.522561,8.19887 c -0.453225,-0.73334 -1.388635,-1.33334 -2.078689,-1.33334 -0.690055,0 -1.254644,0.6 -1.254644,1.33334 0,0.73333 0.93541,1.33333 2.078689,1.33333 1.143279,0 1.707869,-0.6 1.254644,-1.33333 z m 268.762851,-6.253 c 0.66961,-1.76122 2.28188,-3.08034 3.76486,-3.08034 3.14406,0 5.0056,-6.55596 2.95142,-10.39424 -0.75079,-1.40286 -1.78523,-6.6516 -2.29875,-11.66386 -0.51352,-5.01227 -1.73549,-10.64967 -2.71548,-12.52755 -0.98,-1.87789 -1.79371,-5.21435 -1.80823,-7.41435 C 342.61827,320.17861 341.25799,316 339.40146,316 c -1.15063,0 -1.44341,-2.13972 -1.00924,-7.37539 0.45196,-5.45005 0.0727,-7.97352 -1.45308,-9.66667 -1.1356,-1.2602 -2.48608,-3.9794 -3.00107,-6.04266 -0.90949,-3.64375 -16.72836,-21.00154 -20.65299,-22.6622 -1.07347,-0.45422 4.43775,-0.46915 12.24715,-0.0332 14.04939,0.78432 14.28004,0.74872 21.90344,-3.38028 4.2375,-2.29514 8.81732,-4.17296 10.1774,-4.17296 2.98543,0 5.65915,-5.7789 2.96843,-6.41587 -1.54505,-0.36577 -8.08664,3.01445 -9.91484,5.12327 -0.86745,1.00061 -12.56612,3.99294 -19.13261,4.89382 -3.86436,0.53016 -6.04576,0.0291 -8.82802,-2.02794 -2.03245,-1.50267 -7.22277,-3.74382 -11.53403,-4.98032 -4.31127,-1.23652 -8.58318,-2.8447 -9.49312,-3.57371 -0.90995,-0.72903 -3.60995,-0.92812 -6,-0.44244 -11.27667,2.29156 -12.50362,2.30924 -14.2496,0.20547 -0.9657,-1.16356 -3.06766,-2.11559 -4.67104,-2.11559 -1.60338,0 -4.07991,-0.88092 -5.5034,-1.9576 -2.6129,-1.97629 -10.10122,-2.75157 -11.64696,-1.20584 -0.9784,0.9784 9.61569,8.43677 12.0346,8.47251 1.55477,0.0229 17.01986,7.26016 29.33378,13.72732 17.60607,9.24653 35.29901,35.28508 37.08495,54.57758 0.49485,5.34565 1.73352,11.04825 2.7526,12.67245 1.51692,2.41767 2.84796,21.50054 1.51952,21.78494 -0.18334,0.0392 -9.33334,0.39946 -20.33334,0.80048 -18.14507,0.66148 -20.68013,0.46944 -27.33333,-2.0707 -4.03333,-1.53989 -8.7407,-2.8001 -10.46084,-2.80048 -3.19188,-6.8e-4 -10.70297,-4.51076 -12.57892,-7.55309 -1.74672,-2.83275 -16.56526,-13.73144 -17.45728,-12.83943 -1.91306,1.91308 -0.54882,5.24048 4.10098,10.00231 2.71549,2.78092 5.51825,5.05621 6.22834,5.05621 0.7101,0 2.2594,0.87632 3.44291,1.94738 4.84341,4.38322 23.21765,12.71929 28.03569,12.71929 3.19683,0 5.7686,0.91285 7.28148,2.58456 2.45298,2.71051 12.43104,5.41544 19.97668,5.41544 2.44077,0 5.13644,0.84184 5.99036,1.87075 2.22347,2.6791 11.93133,-1.23442 13.53679,-5.45708 z M 302.8882,265.49846 c -1.48239,-0.93968 -1.48239,-1.23653 0,-1.78317 2.43317,-0.89723 5.29857,0.23715 4.37474,1.73192 -0.92809,1.50169 -2.06558,1.51503 -4.37474,0.0512 z M 294.66666,260 c 0,-0.73334 0.6,-1.33334 1.33334,-1.33334 0.73333,0 1.33333,0.6 1.33333,1.33334 0,0.73333 -0.6,1.33333 -1.33333,1.33333 -0.73334,0 -1.33334,-0.6 -1.33334,-1.33333 z m -194.49999,93.33333 c 2.21323,0 5.07882,-1.2679 6.78031,-3 1.62084,-1.65 4.47084,-3.60584 6.33334,-4.34631 1.86249,-0.74048 7.88634,-4.26753 13.38634,-7.83791 8.12114,-5.2719 11.0647,-8.18084 15.66667,-15.48231 C 145.45,317.7219 148,313.07244 148,312.33464 c 0,-0.7378 0.92828,-2.11186 2.06285,-3.05347 1.13456,-0.94161 3.56323,-5.06508 5.39703,-9.16327 1.83381,-4.09817 5.10552,-11.11201 7.27049,-15.5863 4.36017,-9.01107 4.91873,-12.5316 1.98824,-12.5316 -2.92781,0 -7.61169,5.65684 -6.90896,8.34409 0.37263,1.42495 -0.41367,2.9088 -1.98779,3.75124 -1.43234,0.76657 -5.38557,4.05872 -8.78493,7.31588 -3.39937,3.25717 -6.6658,5.92212 -7.25875,5.92212 -0.89262,0 -4.69182,5.08407 -9.36543,12.53279 -0.50633,0.80697 -1.23763,2.99717 -1.62512,4.86712 -0.43151,2.08238 -2.39986,4.2835 -5.07941,5.68008 -10.82329,5.64107 -16.3719,9.58721 -22.06364,15.69153 -3.637551,3.90121 -7.272688,6.56181 -8.965331,6.56181 -1.565854,0 -4.506932,1.73259 -6.535729,3.8502 l -3.688721,3.85019 3.105933,2.21926 c 1.986909,1.4197 4.487028,1.95404 6.939267,1.48314 2.108333,-0.40487 5.558333,-0.73612 7.666671,-0.73612 z m 234.01976,-14 c -0.34978,-1.46667 -1.55849,-5.06667 -2.68602,-8 -1.12752,-2.93334 -2.07638,-8.10987 -2.10856,-11.50341 -0.036,-3.79703 -0.82774,-6.80846 -2.05852,-7.82992 -1.1,-0.91292 -2,-3.04354 -2,-4.7347 0,-1.69116 -0.76536,-3.86769 -1.70082,-4.83673 -0.93544,-0.96905 -2.90717,-3.69765 -4.38162,-6.06356 -2.94187,-4.72055 -18.91081,-18.62865 -25.25089,-21.9922 -2.2,-1.16715 -7.6,-3.33388 -12,-4.81496 -13.34792,-4.49301 -19.73403,-6.91801 -25.596,-9.71956 -6.57007,-3.13995 -11.76944,-1.6948 -10.46808,2.90957 0.4019,1.42202 1.04345,3.6981 1.42564,5.05796 0.72009,2.56219 11.38772,13.26336 18.49638,18.55458 2.23676,1.66488 9.18375,7.98186 15.43778,14.03773 6.25402,6.05587 16.96036,15.7212 23.79186,21.47852 6.83151,5.7573 14.33151,13.00954 16.66667,16.11608 5.29494,7.04401 8.90577,8.98741 11.32362,6.09454 0.95951,-1.148 1.45836,-3.28728 1.10856,-4.75394 z m -34.58161,-43.47149 c 1.0546,-1.0546 2.16899,-1.0661 3.93334,-0.0405 2.15817,1.25444 1.97665,1.43595 -1.4715,1.4715 -2.86844,0.0296 -3.53494,-0.35784 -2.46184,-1.43095 z m -12.21454,-7.76971 c -0.42192,-0.68267 -0.1232,-1.63915 0.66374,-2.12552 2.02906,-1.25403 8.21835,0.51399 7.25515,2.07248 -1.0204,1.65105 -6.90691,1.69048 -7.91889,0.0531 z M 91.538592,333.66666 c 1.246704,-2.01667 4.496116,-6.06667 7.220917,-9 2.724801,-2.93333 5.403331,-6.8229 5.952291,-8.64349 1.69281,-5.61408 11.63376,-16.99341 15.57986,-17.83417 1.99376,-0.42479 5.74837,-3.04108 8.34359,-5.814 C 137.27892,283.13949 148,269.4365 148,267.62422 c 0,-0.98417 1.81668,-3.13253 4.03708,-4.77414 2.22038,-1.6416 3.68498,-3.55444 3.25464,-4.25075 -1.82848,-2.95853 -7.4778,-0.83405 -16.1142,6.05991 -5.04764,4.02924 -9.66134,7.32924 -10.25268,7.33333 -0.59134,0.004 -2.69134,1.68425 -4.66667,3.73372 -1.97533,2.04945 -6.14151,5.43105 -9.25817,7.51467 -3.11667,2.0836 -5.66667,4.27862 -5.66667,4.87781 0,0.5992 -2.1,2.08596 -4.66666,3.30392 -2.56667,1.21797 -4.666672,3.10544 -4.666672,4.19439 0,3.33664 -3.922366,10.47889 -9.034975,16.45182 -4.885006,5.70703 -8.639188,17.57117 -7.256106,22.93109 0.912548,3.53643 5.278846,2.79288 7.829675,-1.33333 z M 193.08856,292.9886 c 0.33953,-2.94166 -0.116,-3.65527 -2.33334,-3.65527 -2.18708,0 -2.75522,0.84499 -2.75522,4.09776 0,3.18232 0.52126,3.99892 2.33333,3.65527 1.40731,-0.26688 2.50077,-1.89316 2.75523,-4.09776 z M 67.999999,278.51116 c 0,-0.6478 -1.5,-1.17783 -3.333333,-1.17783 -3.13671,0 -4.26414,1.29141 -2.58946,2.96609 1.072568,1.07258 5.922793,-0.39185 5.922793,-1.78826 z M 205.42098,261.28642 c 4.4462,-2.37953 3.0849,-9.49934 -2.08765,-10.91877 -1.46667,-0.40248 -3.66247,-1.14324 -4.87955,-1.64615 -2.99326,-1.23682 -4.28952,3.11683 -2.40433,8.07526 2.1736,5.71698 4.7616,6.95682 9.37153,4.48966 z M 57.75432,259.8194 c 1.601791,-0.83267 3.126267,-1.6966 3.387727,-1.91983 1.053096,-0.89915 -8.944898,-9.78248 -16.142048,-14.3424 -4.216666,-2.67156 -7.666666,-5.46484 -7.666666,-6.20728 0,-0.74244 -1.2,-1.34989 -2.666667,-1.34989 -3.693721,0 -3.339022,3.25276 0.63892,5.85921 1.818072,1.19124 4.228563,3.95075 5.356645,6.13221 2.369514,4.58214 10.775595,13.34191 12.803201,13.34191 0.757099,0 2.687099,-0.68127 4.288888,-1.51393 z m 164.91234,-5.91706 c 0,-1.04629 -0.63944,-1.90234 -1.42098,-1.90234 -3.00188,0 -6.57902,2.86977 -6.57902,5.27805 0,2.35184 0.26331,2.3862 4,0.52209 2.2,-1.09749 4,-2.8515 4,-3.8978 z m -117.30507,-0.56901 c 1.67575,0 6.85653,-1.8 11.51284,-4 4.65631,-2.2 9.17575,-4 10.04319,-4 2.14108,0 7.74904,-5.39864 7.74904,-7.45981 0,-0.91391 -1.95,-2.0761 -4.33333,-2.58264 -2.38333,-0.50655 -5.36231,-1.82819 -6.61994,-2.93698 -1.55459,-1.37058 -3.47541,-1.71596 -6,-1.07881 -10.95882,2.76571 -28.276473,2.86977 -33.437449,0.20093 -4.70474,-2.4329 -9.060501,-2.77598 -10.275942,-0.80936 -1.51534,2.45187 -14.846237,1.53079 -19.754028,-1.36488 -3.627945,-2.14053 -5.297142,-2.42293 -8.076213,-1.36633 -6.441695,2.44913 -5.013589,5.00281 8.496908,15.19384 5.5,4.14868 10.714613,8.13237 11.588029,8.85265 0.873416,0.72028 5.073416,1.68491 9.333333,2.14362 4.259917,0.4587 10.145304,1.61504 13.078637,2.56964 4.763678,1.55025 5.777386,1.4634 9.490712,-0.81312 2.286563,-1.40182 5.528453,-2.54875 7.204213,-2.54875 z m 83.97174,1.22473 c 0,-2.73734 -3.72943,-5.22473 -7.83365,-5.22473 -4.10535,0 -4.43483,1.98757 -0.9524,5.74519 3.60381,3.88857 8.78605,3.5816 8.78605,-0.52046 z m 154,0.88204 c 2.2,-1.14969 4.65701,-2.09404 5.46001,-2.09856 0.80301,-0.004 2.5398,-1.20136 3.85953,-2.65964 1.31974,-1.45829 5.31272,-4.52084 8.87332,-6.80566 4.22434,-2.71076 6.4738,-5.08719 6.4738,-6.83922 0,-1.47674 1.80618,-4.7421 4.01372,-7.25636 3.27463,-3.7296 3.75703,-5.051 2.61976,-7.17602 -1.73108,-3.23454 -2.08317,-3.23106 -6.26965,0.062 -2.00507,1.57718 -5.40904,2.66666 -8.33173,2.66666 -2.71788,0 -7.88698,0.89867 -11.48686,1.99704 -3.59988,1.09838 -10.74524,1.94411 -15.87857,1.87942 -5.47167,-0.0689 -11.19809,0.68496 -13.84032,1.8222 -3.33225,1.43424 -5.91004,1.62461 -9.88997,0.73037 -6.84233,-1.53737 -12.2606,-0.35095 -15.25345,3.34001 -1.57931,1.94767 -3.51747,2.76262 -5.91196,2.4858 -2.88274,-0.33326 -3.4373,0.0483 -2.90678,2 1.23547,4.54515 7.20687,7.65532 14.12032,7.35451 5.73615,-0.24959 6.54762,0.0732 7.68159,3.0558 1.03701,2.72755 2.18445,3.34503 6.30091,3.39075 2.76814,0.0307 7.13299,1.24194 9.69966,2.69158 5.38285,3.04019 14.14269,2.76862 20.66667,-0.6407 z m -16.66667,-13.3932 c 0,-0.34086 1.2,-1.26197 2.66667,-2.0469 2.1284,-1.13908 2.66666,-1.01399 2.66666,0.61976 0,1.15801 -1.15802,2.0469 -2.66666,2.0469 -1.46667,0 -2.66667,-0.27889 -2.66667,-0.61976 z m -10.93333,-4.98024 c 1.24444,-1.24444 1.95556,-1.24444 3.2,0 1.24444,1.24444 0.88889,1.6 -1.6,1.6 -2.48889,0 -2.84444,-0.35556 -1.6,-1.6 z m -180.49615,13.33266 c 1.52748,-2.18078 1.65136,-3.18351 0.48256,-3.90586 -1.90577,-1.17784 -9.39763,3.87035 -8.3234,5.6085 1.37962,2.23225 5.74936,1.28337 7.84084,-1.70264 z m 152.40171,0.79512 c -0.44307,-0.44306 -1.59307,-0.49042 -2.55556,-0.1052 -1.06364,0.42562 -0.74771,0.74157 0.80556,0.80554 1.40555,0.0579 2.19305,-0.25724 1.75,-0.70029 z m -8.42227,-2.66748 c 1.15576,-0.44352 1.76943,-1.34352 1.3637,-2 C 279.6492,245.02036 272,244.94681 272,246.44444 c 0,2.70632 3.1912,3.62721 7.21662,2.08252 z m -78.40993,-4.22328 c 6.04671,-4.96302 4.05395,-10.34839 -4.99669,-13.50346 -3.33627,-1.16302 -4.09991,-0.93061 -5.88282,1.79044 -2.72592,4.16028 -1.26509,9.62016 3.22694,12.06079 4.42074,2.40189 4.2956,2.40759 7.65257,-0.34777 z m 25.36073,-0.50311 c 1.84852,-1.45964 -0.79693,-10.11453 -3.64233,-11.91628 -2.73257,-1.73032 -12.40513,-1.47092 -14.25843,0.38237 -1.78901,1.78902 -2.10108,7.5475 -0.54194,10.00026 2.52828,3.97734 14.12654,4.94184 18.4427,1.53365 z m -42.96677,-4.97432 c 1.08771,-3.81575 0.88964,-4.79628 -1.29128,-6.39253 -1.48932,-1.09007 -4.82592,-1.71986 -7.90937,-1.49292 -4.67955,0.34441 -5.3841,0.8321 -5.74744,3.97842 -0.58603,5.07475 4.00134,9.35894 9.45066,8.82606 3.50364,-0.34262 4.4289,-1.17052 5.49743,-4.91903 z m 190.13268,3.84041 c 0,-0.73333 -0.6,-1.33333 -1.33334,-1.33333 -0.73333,0 -1.33333,0.6 -1.33333,1.33333 0,0.73334 0.6,1.33334 1.33333,1.33334 0.73334,0 1.33334,-0.6 1.33334,-1.33334 z M 278,233.33333 C 277.54677,232.6 275.07596,232 272.50929,232 c -2.77159,0 -4.33204,0.54145 -3.84263,1.33333 0.45323,0.73333 2.92404,1.33333 5.49071,1.33333 2.77159,0 4.33204,-0.54145 3.84263,-1.33333 z m -80.57902,-6.71357 C 199.37085,225.57621 200,223.80844 200,219.37322 c 0,-3.22646 -0.56711,-7.3579 -1.26024,-9.18097 -1.04578,-2.75059 -0.75363,-3.64663 1.71668,-5.26523 2.46724,-1.6166 2.88657,-2.89772 2.44932,-7.48285 -0.56943,-5.97095 -1.22379,-6.12748 -9.57243,-2.28999 -4.9436,2.27235 -5.28977,8.31532 -0.59876,10.4527 l 3.57617,1.62941 -4.90246,4.11588 c -3.16346,2.65587 -5.29231,5.84437 -6.00147,8.98871 -1.01336,4.49309 -0.82525,4.9732 2.41376,6.16072 4.71787,1.72969 6.54715,1.75221 9.60041,0.11813 z m 20.88123,0.0651 c 2.15959,-0.0133 3.70471,-1.54118 5.66823,-5.60521 2.92708,-6.05835 2.46076,-7.06055 -3.97044,-8.53315 -1.83334,-0.4198 -4.9289,-1.36473 -6.87903,-2.09986 -5.07076,-1.91151 -8.58323,0.38972 -9.53357,6.24604 -0.42792,2.63693 -0.47514,5.58376 -0.10494,6.54849 0.96002,2.50176 6.04963,4.74781 9.1842,4.053 1.46667,-0.32511 4.00267,-0.59929 5.63555,-0.60931 z m -37.18361,-1.1906 c 1.34433,-0.85209 1.5501,-3.0137 0.83313,-8.75213 -1.05428,-8.4382 -2.51137,-9.73219 -8.89685,-7.90085 -3.17238,0.90982 -4.54743,2.39369 -5.93668,6.40646 -1.6827,4.86035 -1.60626,5.43718 1.10264,8.32066 2.98302,3.17529 9.41202,4.13525 12.89776,1.92586 z M 234.66666,222 c 0,-1.83334 -0.6,-3.33334 -1.33333,-3.33334 -0.73333,0 -1.33333,1.5 -1.33333,3.33334 0,1.83333 0.6,3.33333 1.33333,3.33333 0.73333,0 1.33333,-1.5 1.33333,-3.33333 z m -128,-0.87519 c 1.1,-0.0479 7.4,0.35109 14,0.88656 21.22583,1.72207 30.413,-3.45908 17,-9.58723 -3.48333,-1.59146 -8.09334,-3.33061 -10.24446,-3.86476 -2.15112,-0.53416 -5.45112,-1.77484 -7.33333,-2.75706 -1.88221,-0.98224 -4.69677,-1.78959 -6.25457,-1.79411 -1.5578,-0.004 -5.4578,-0.97945 -8.66667,-2.16653 -4.19093,-1.55039 -10.214375,-2.14035 -21.384491,-2.09448 -17.297005,0.0711 -20.531568,1.09012 -28.384231,8.94277 -2.553844,2.55385 -5.770361,4.64336 -7.147814,4.64336 -1.377453,0 -3.590447,1.2 -4.917761,2.66667 -1.327315,1.46666 -3.220308,2.66666 -4.206651,2.66666 -0.986341,0 -1.793349,0.57748 -1.793349,1.2833 0,2.08156 34.900677,2.67294 69.333327,1.17485 z m 176.71799,-3.83969 c 3.14069,-2.95054 5.94868,-2.61308 5.94868,0.71488 0,3.19154 2.52495,3.59449 9.02996,1.44105 4.84104,-1.60259 13.72711,-2.18291 38.30337,-2.50145 30.86049,-0.4 31.98379,-0.5072 31.54453,-3.01052 -0.25052,-1.42766 -1.10902,-2.83192 -1.9078,-3.12058 -0.79878,-0.28864 -2.76262,-1.93864 -4.36409,-3.66666 C 360.33783,205.41382 358.39563,204 357.62331,204 c -0.77232,0 -4.45317,-1.5314 -8.17965,-3.40311 -11.74793,-5.90065 -29.84036,-7.01668 -38.71004,-2.38784 -1.87016,0.97599 -4.71488,1.77821 -6.3216,1.78273 -1.60672,0.004 -3.26508,0.56444 -3.68524,1.24427 -0.42016,0.67984 -3.00557,1.94973 -5.74536,2.82199 -2.73978,0.87225 -8.58142,3.2404 -12.98142,5.26254 -4.4,2.02216 -10.06063,4.0594 -12.57918,4.5272 -4.66786,0.86703 -9.42082,4.17227 -9.42082,6.55132 0,0.82166 3.8278,1.02964 10.15002,0.55148 7.89552,-0.59713 10.83519,-1.4113 13.23463,-3.66546 z m 105.2069,-1.16359 c 0.96207,-1.55667 -7.08632,-8.38515 -8.70445,-7.38509 -1.86357,1.15174 -1.45756,4.16929 0.8748,6.50165 2.30039,2.30039 6.65057,2.79123 7.82965,0.88344 z M 182.4,203.73333 c 0.88,-0.88 1.55262,-3.73 1.49473,-6.33333 -0.0579,-2.60334 -0.40789,-3.98334 -0.77777,-3.06667 -0.36988,0.91667 -1.4885,1.66667 -2.4858,1.66667 -2.9454,0 -6.15787,5.49376 -4.42994,7.5758 1.81506,2.187 4.11096,2.24534 6.19878,0.15753 z m 192.59999,-1.94971 c -0.91666,-0.36988 -2.41666,-0.36988 -3.33333,0 -0.91667,0.36988 -0.16667,0.67252 1.66667,0.67252 1.83333,0 2.58333,-0.30264 1.66666,-0.67252 z M 266.12685,195.33333 271.03878,192 h -3.74773 c -3.61445,0 -8.62439,3.21818 -8.62439,5.53998 0,1.9457 2.37776,1.24238 7.46019,-2.20665 z M 147.32954,182.6786 c 0.94879,-2.98935 -0.0748,-5.34527 -2.3223,-5.34527 -0.82612,0 -2.82656,-1.24432 -4.44542,-2.76516 -1.61886,-1.52084 -4.95753,-3.77084 -7.41927,-5 C 129.43418,167.71656 128.55235,166.41878 128,162 c -0.66494,-5.3195 -0.68121,-5.3327 -6.27112,-5.08707 -4.43687,0.19495 -5.76959,-0.27404 -6.39712,-2.25123 -0.43597,-1.37361 -2.71397,-4.1919 -5.06222,-6.26288 -2.34825,-2.07097 -5.0433,-5.25793 -5.989,-7.08212 -4.518458,-8.71577 -5.806411,-10.09757 -11.205892,-12.02239 -6.385956,-2.27648 -7.879883,-5.45791 -4.379291,-9.32602 2.151406,-2.37727 1.973944,-2.87951 -3.616116,-10.23413 C 81.453656,104.96413 78.204105,102 76.600345,102 c -2.75337,0 -2.677807,-0.90206 -1.647417,19.66666 0.137761,2.75 0.682036,5 1.209499,5 0.527464,0 1.345265,1.75855 1.817337,3.90787 0.472071,2.14933 1.719744,4.6228 2.772607,5.4966 1.052861,0.8738 1.914294,2.32225 1.914294,3.21881 0,0.89655 1.249532,2.7609 2.776739,4.143 1.527205,1.38211 3.603025,4.4905 4.612931,6.90755 2.28554,5.47007 14.495615,17.52584 19.526305,19.27955 2.06288,0.71912 3.75069,1.85496 3.75069,2.52408 0,0.66913 4.65,3.33052 10.33333,5.91418 5.68334,2.58368 11.23334,5.24224 12.33334,5.90791 1.1,0.66567 3.90957,1.24559 6.24348,1.28871 3.10733,0.0575 4.46908,-0.63238 5.08606,-2.57632 z m 25.4979,-1.9501 c 0.40905,-1.06598 -0.20978,-3.29949 -1.37519,-4.96334 -1.1654,-1.66384 -2.11892,-4.25818 -2.11892,-5.76516 0,-1.50699 -1.0096,-4.18139 -2.24355,-5.94311 -1.23396,-1.76171 -4.61188,-7.74521 -7.50649,-13.29667 -2.89463,-5.55145 -6.08503,-11.0408 -7.08979,-12.19854 -1.00476,-1.15775 -1.82684,-2.64155 -1.82684,-3.29735 0,-0.6558 -2.16916,-5.52377 -4.82037,-10.81771 -3.64263,-7.27365 -7.10793,-11.68027 -14.18322,-18.03599 -5.14957,-4.62584 -10.6304,-9.097279 -12.17963,-9.936517 -4.20025,-2.275333 -35.015316,-4.81847 -38.137625,-3.147461 -2.161334,1.156709 -2.329712,1.94448 -1.143147,5.348265 0.765343,2.195463 1.887771,3.991753 2.494285,3.991753 1.23969,0 8.790266,6.77078 28.250977,25.33333 13.7525,13.11778 17.44052,15.87248 21.35779,15.95274 1.26814,0.026 5.94436,4.69726 10.39158,10.38059 9.5959,12.26308 9.16351,11.79177 19.301,21.03812 8.56934,7.81604 9.67554,8.36327 10.82914,5.35705 z m 101.83922,-1.25062 c 0,-1.02051 1.62454,-2.26319 3.61007,-2.76152 1.98553,-0.49835 5.88725,-2.96339 8.67051,-5.47788 2.78324,-2.5145 5.99412,-4.57182 7.13529,-4.57182 1.14116,0 1.74204,-0.53849 1.33528,-1.19665 -0.40677,-0.65816 -2.69569,-1.10464 -5.08649,-0.9922 -4.18524,0.19685 -6.15139,1.4558 -14.03654,8.98781 -1.99546,1.9061 -4.67812,3.83726 -5.96145,4.29148 -3.47548,1.23012 -2.81945,3.57623 1,3.57623 1.95867,0 3.33333,-0.76519 3.33333,-1.85545 z m -60.41674,-4.52543 c 2.4645,-1.56708 4.41674,-7.88509 4.41674,-14.29389 0,-3.20899 0.6,-6.20534 1.33334,-6.65856 0.73333,-0.45323 1.33333,-1.78075 1.33333,-2.95004 0,-1.1693 1.5238,-5.34704 3.38623,-9.2839 2.04138,-4.31513 3.70066,-10.72065 4.17794,-16.12865 0.43838,-4.96715 1.67771,-9.99065 2.77694,-11.25603 4.13473,-4.75968 6.0174,-28.424561 2.91128,-36.594272 -0.78442,-2.063181 -4.83711,-8.859309 -9.00596,-15.102506 -7.00967,-10.497515 -12.24643,-20.193564 -12.24643,-22.674699 0,-0.567721 1.22396,-1.352292 2.71991,-1.743492 2.23046,-0.58328 2.55717,-1.391026 1.81556,-4.488841 -1.46099,-6.102712 -2.91742,-8.083689 -6.62784,-9.014945 C 207.22788,23.755404 204,25.830634 204,29.417904 c 0,1.333594 -0.65227,2.827842 -1.4495,3.320551 -0.82232,0.508226 -1.05014,2.128763 -0.52654,3.745356 0.50762,1.567238 1.11432,12.149522 1.34821,23.516188 0.23389,11.366667 1.07635,30.566666 1.87213,42.666671 0.79578,12.09999 1.92974,32.82669 2.51991,46.05933 1.19591,26.81385 1.78915,29.21277 6.48571,26.22645 z m -5.5089,-138.832128 c -0.91848,-1.486144 0.48242,-5.453656 1.92564,-5.453656 1.07374,0 2.66667,3.250997 2.66667,5.442383 0,1.584357 -3.6146,1.593229 -4.59231,0.01133 z M 70.666666,166.66666 c 1.617278,-1.04516 1.425917,-1.2964 -1,-1.31292 -1.65,-0.0112 -3,0.57959 -3,1.31292 0,1.67056 1.414988,1.67056 4,0 z M 309.61317,159.9053 c 1.98725,-2.10521 5.14033,-4.21094 7.00685,-4.67941 2.04239,-0.5126 4.20751,-2.56677 5.43756,-5.15892 1.12413,-2.36895 3.83525,-5.63159 6.02472,-7.25033 5.02544,-3.71547 11.91769,-18.08142 11.91769,-24.84078 0,-2.80457 0.90334,-6.09739 2.0074,-7.31737 1.616,-1.78566 1.72055,-3.04097 0.53623,-6.43832 -2.17965,-6.252573 -7.99397,-5.517977 -9.63969,1.21791 -0.462,1.89094 -2.31406,4.10971 -4.11568,4.93058 -2.95223,1.34513 -3.13278,1.87112 -1.82842,5.32678 2.01764,5.34533 0.51567,9.91848 -4.1658,12.68389 -5.60624,3.31168 -12.51505,13.89453 -11.55859,17.70533 0.61089,2.43398 -0.5805,4.09696 -6.2402,8.71038 -3.84739,3.13613 -7.51296,6.13793 -8.14574,6.67066 -0.63276,0.53274 -0.7595,1.60124 -0.28162,2.37444 1.49488,2.41878 9.2581,0.0772 13.04529,-3.93484 z m -74.85885,0.0477 c 1.89878,-1.01616 2.57901,-2.80606 2.57901,-6.78623 0,-3.8404 0.79135,-6.04715 2.73247,-7.61976 3.23346,-2.61961 5.4241,-10.93209 3.69517,-14.02154 -1.04133,-1.86074 -1.87353,-1.50184 -5.93481,2.55945 -3.00971,3.0097 -4.43154,5.4849 -3.91858,6.82168 0.4428,1.1539 0.22616,2.7956 -0.48142,3.64818 -1.78758,2.15388 -4.03394,12.71388 -3.17867,14.94268 0.84443,2.20054 1.18251,2.23471 4.50683,0.45559 z m -41.08175,-14.06927 c -0.61169,-19.70951 -0.65184,-22.54593 -0.40416,-28.55044 0.13613,-3.3 0.19227,-7.2 0.1248,-8.66667 -0.0675,-1.46666 0.25733,-6.3311 0.72188,-10.809854 0.68356,-6.590461 0.32251,-9.323518 -1.89357,-14.333333 -1.50606,-3.404577 -3.41242,-6.190141 -4.2364,-6.190141 -2.45566,0 0.0199,-5.601378 4.20202,-9.508149 3.93542,-3.676237 4.9718,-8.799571 2.31704,-11.454324 -3.00445,-3.004464 -7.942,0.781321 -15.1671,11.62914 -2.19794,3.3 -4.36139,6.3 -4.80768,6.666667 -0.44628,0.366666 -1.24162,3.004385 -1.7674,5.861598 -0.52579,2.857212 -1.90098,6.637177 -3.05596,8.399924 -1.82344,2.782907 -1.87374,4.148136 -0.38198,10.366513 0.94491,3.938839 1.3637,8.933159 0.93063,11.098489 -0.58261,2.91307 0.0439,5.06378 2.40912,8.26961 1.75808,2.38294 3.57411,6.05178 4.0356,8.15296 0.46149,2.10118 1.37584,4.15206 2.03187,4.55751 1.81332,1.12069 6.39261,12.11207 7.36754,17.68387 0.87311,4.98976 3.95876,8.70575 6.51392,7.8446 0.84263,-0.28398 1.25871,-4.60954 1.05983,-11.01797 z m -10.98549,-24.13842 c 0.0152,-3.77002 0.35346,-4.56333 1.31292,-3.07869 1.68514,2.60758 1.68514,6.29186 0,7.33334 -0.8009,0.49498 -1.32519,-1.20401 -1.31292,-4.25465 z m -4.7924,-26.205675 c -0.5035,-1.312074 -0.31544,-2.98559 0.41789,-3.718923 1.78728,-1.787275 3.16156,1.794045 1.63579,4.262792 -0.92054,1.489471 -1.31334,1.385449 -2.05368,-0.543869 z M 168,142.78632 c 0,-1.40086 -1.65,-5.07914 -3.66667,-8.17396 -3.62465,-5.5625 -3.67163,-5.58543 -4.09995,-2.00175 -0.23829,1.99387 0.42051,4.62215 1.464,5.84063 1.04351,1.21849 2.26966,3.26542 2.72478,4.54876 1.10817,3.12481 3.57784,2.97732 3.57784,-0.21368 z m 78.66666,-35.45299 c 0,-1.11111 -1.18518,-2 -2.66666,-2 -1.48148,0 -2.66667,0.88889 -2.66667,2 0,1.11111 1.18519,2 2.66667,2 1.48148,0 2.66666,-0.88889 2.66666,-2 z m 1.98262,-19.160211 c 0.82861,-8.25101 0.56274,-9.927996 -2.65092,-16.721151 -1.96455,-4.152716 -5.31787,-9.461964 -7.4518,-11.798329 -2.13395,-2.336365 -3.8799,-4.71422 -3.8799,-5.284121 0,-0.569903 -1.2,-1.036185 -2.66666,-1.036185 -3.62302,0 -3.50022,4.598281 0.19185,7.184306 5.106,3.576384 7.79007,9.097752 7.79936,16.044038 0.005,4.106894 0.79928,7.435163 2.12179,8.896512 1.16214,1.284159 2.43948,4.769015 2.83853,7.744126 1.04065,7.758645 2.63069,5.596077 3.69775,-5.029196 z M 266,81.333332 c 0.45322,-0.733333 -0.11134,-1.333333 -1.25464,-1.333333 -1.14328,0 -2.0787,0.6 -2.0787,1.333333 0,0.733333 0.56459,1.333333 1.25464,1.333333 0.69006,0 1.62547,-0.6 2.0787,-1.333333 z M 226.812,47.086879 c -1.04286,-3.899356 -4.14534,-5.875486 -4.14534,-2.640374 0,3.385676 1.53144,6.220161 3.36068,6.220161 1.23899,0 1.46558,-1.033731 0.78466,-3.579787 z m -5.46988,385.913111 c 0.005,-0.91666 1.20088,-3.46666 2.65788,-5.66666 1.457,-2.2 2.65305,-5.40194 2.65788,-7.1154 0.0155,-5.50639 14.76109,-19.31894 27.2044,-25.48304 5.99717,-2.97086 12.25037,-5.40156 13.89601,-5.40156 1.64564,0 3.33293,-0.88828 3.74955,-1.97396 1.55692,-4.05728 19.15882,-6.55451 19.15882,-2.71811 0,2.03481 -1.49118,2.58319 -12.35149,4.5422 -3.49333,0.63015 -8.59333,2.68373 -11.33333,4.56355 -2.74002,1.87981 -6.64396,3.82384 -8.67546,4.32005 -2.03148,0.49621 -8.03764,4.95907 -13.34701,9.91743 -9.49724,8.86937 -15.62604,18.21521 -15.62604,23.82821 0,2.28217 -0.80139,2.85396 -4,2.85396 -2.3158,0 -3.99631,-0.70175 -3.99121,-1.66667 z M 164,314.74536 c 0,-0.69006 0.6,-1.62547 1.33333,-2.0787 0.73333,-0.45322 1.33333,0.11134 1.33333,1.25464 0,1.14328 -0.6,2.0787 -1.33333,2.0787 C 164.6,316 164,315.43541 164,314.74536 Z M 0,204.18577 c 0,-3.26075 1.1125288,-4.43225 7.6666665,-8.07313 16.9324055,-9.40608 22.2202815,-14.22759 30.6400345,-27.9377 4.01019,-6.5299 4.041498,-6.61641 5.008796,-13.84161 0.472168,-3.52684 1.550245,-6.33393 2.432866,-6.33468 1.142503,-9.6e-4 1.698138,-6.037 1.990352,-21.62185 0.398566,-21.25693 0.344459,-21.74092 -3.217506,-28.781016 -2.192951,-4.334291 -4.890983,-7.642641 -6.835734,-8.382033 -2.034022,-0.773335 -3.050544,-2.076218 -2.770501,-3.550971 0.335289,-1.765681 2.017235,-2.42964 6.9497,-2.743433 3.579045,-0.227692 7.094487,0.173146 7.812093,0.890753 0.717606,0.717605 1.42581,6.465809 1.573787,12.773787 0.156737,6.681433 0.9259,12.125903 1.84258,13.042583 2.648672,2.64867 1.998532,23.86323 -0.961445,31.37277 -1.752462,4.44602 -2.322355,8.31766 -1.846182,12.54226 0.425334,3.77355 0.11996,6.46255 -0.798356,7.0301 -0.817933,0.5055 -1.487152,2.61024 -1.487152,4.67716 0,2.06693 -0.9,4.50498 -2,5.4179 -1.1,0.91292 -2,2.46528 -2,3.44968 0,0.98442 -1.130982,2.39512 -2.513296,3.13491 -1.382312,0.73979 -2.893742,2.86089 -3.358736,4.71357 -0.464992,1.85268 -1.41313,3.36851 -2.106976,3.36851 -0.693844,0 -3.474173,1.95 -6.178507,4.33333 -2.704335,2.38334 -6.860067,5.53334 -9.234959,7 C 7.9974251,204.4543 1.8974478,207.97625 0.99999998,207.98749 0.44999999,207.99437 0,206.2836 0,204.18577 Z m 134.66666,-6.85244 c 2.62066,-1.6936 6.66667,-1.6936 6.66667,0 0,0.73333 -1.95,1.32415 -4.33333,1.31292 -3.2883,-0.0155 -3.85101,-0.33212 -2.33334,-1.31292 z m -11.38815,-4.08871 c -0.48338,-0.78212 -0.5617,-1.73922 -0.17403,-2.12688 1.09437,-1.09437 8.89552,0.94155 8.89552,2.32154 0,1.71358 -7.64762,1.5429 -8.72149,-0.19466 z M 330.66666,75.999999 c 0,-0.733333 0.56459,-1.333333 1.25464,-1.333333 0.69005,0 1.62547,0.6 2.07869,1.333333 0.45323,0.733333 -0.11133,1.333333 -1.25464,1.333333 -1.14328,0 -2.07869,-0.6 -2.07869,-1.333333 z m -5.42587,-9.300631 c -1.0491,-0.555221 -11.30887,-1.37752 -22.79949,-1.82733 -20.54902,-0.804411 -21.06345,-0.898586 -31.33333,-5.736008 -5.74272,-2.704994 -10.92112,-5.717189 -11.50756,-6.693767 -0.58644,-0.976578 -1.97185,-1.775597 -3.07869,-1.775597 -1.10684,0 -1.64162,-0.6 -1.18839,-1.333333 1.19021,-1.925811 4.74251,-1.627278 9.33333,0.784372 6.01275,3.158609 25.62443,6.998463 34.68067,6.790274 5.65721,-0.130053 8.96195,0.490768 11.28905,2.120736 6.13956,4.300319 24.62299,2.158843 28.13688,-3.259919 0.42529,-0.655848 1.72803,-0.826072 2.89496,-0.378278 1.72889,0.663438 1.86963,1.537258 0.76017,4.719864 -1.38918,3.98502 -5.9346,6.209393 -9.72017,4.756733 -1.08041,-0.414596 -2.77339,0.05519 -3.76217,1.043968 -1.02772,1.02772 -2.61482,1.365373 -3.70526,0.788285 z M 132,58.666666 c 2.61116,-1.687463 4.37624,-1.687463 3.33333,0 -0.45323,0.733333 -1.83864,1.324145 -3.07869,1.312916 -1.94303,-0.0176 -1.97822,-0.199051 -0.25464,-1.312916 z m 7.50442,-3.72317 c -0.45902,-0.742719 0.9647,-1.977634 3.16383,-2.744255 2.19912,-0.766622 3.99841,-2.025068 3.99841,-2.796548 0,-0.771482 1.5,-1.402694 3.33334,-1.402694 3.75557,0 4.05917,0.931102 1.43281,4.394136 -2.07685,2.73846 -10.67572,4.576228 -11.92839,2.549361 z"
     style="fill:#000000;stroke-width:1" />
</svg>
