<?xml version="1.0" encoding="UTF-8" standalone="no"?>
<svg
   xmlns:dc="http://purl.org/dc/elements/1.1/"
   xmlns:cc="http://creativecommons.org/ns#"
   xmlns:rdf="http://www.w3.org/1999/02/22-rdf-syntax-ns#"
   xmlns:svg="http://www.w3.org/2000/svg"
   xmlns="http://www.w3.org/2000/svg"
   width="40.203274mm"
   height="25.866182mm"
   viewBox="0 0 142.45254 91.651827"
   id="svg4216"
   version="1.1">
  <defs
     id="defs4218" />
  <metadata
     id="metadata4221">
    <rdf:RDF>
      <cc:Work
         rdf:about="">
        <dc:format>image/svg+xml</dc:format>
        <dc:type
           rdf:resource="http://purl.org/dc/dcmitype/StillImage" />
        <dc:title></dc:title>
      </cc:Work>
    </rdf:RDF>
  </metadata>
  <g
     style="fill:#ab907c;fill-opacity:1"
     id="layer1"
     transform="translate(-0.43607698,-0.30686185)">
    <path
       style="fill:#ab907c;fill-opacity:1"
       d="M 13.180261,91.267443 C 8.2947811,90.387063 3.0904111,83.967563 2.1436311,77.653963 c -1.18793997,-7.9217 0.044,-19.536429 2.46384,-23.229608 4.35893,-6.652569 3.97953,-6.615725 68.1264399,-6.615725 66.542229,0 63.844309,-0.354049 68.263289,8.958235 3.07912,6.488795 2.24369,23.875388 -1.38211,28.763538 -4.73284,6.3806 -6.60603,6.55835 -67.382929,6.39403 -30.9375,-0.0836 -57.51085,-0.37928 -59.0519,-0.65699 z m 42.1769,-22.83381 0,-7.500003 -8.125,0 -8.125,0 0,7.500003 0,7.5 8.125,0 8.125,0 0,-7.5 z m 51.249999,0 0,-7.500003 -8.749999,0 -8.75,0 0,7.500003 0,7.5 8.75,0 8.749999,0 0,-7.5 z M 11.930261,43.767447 C 7.0447811,42.887059 1.8404111,36.467565 0.89363113,30.15396 c -1.18794,-7.9217 0.044,-19.536426 2.46383997,-23.2296049 4.35893,-6.65256827 3.97953,-6.61572527 68.1264399,-6.61572527 66.542229,0 63.844309,-0.354048 68.263289,8.95823527 3.07912,6.4887949 2.24369,23.8753849 -1.38211,28.7635349 -4.73284,6.3806 -6.60603,6.558349 -67.382929,6.394036 -30.9375,-0.08364 -57.51085,-0.379285 -59.0519,-0.656989 z m 42.1769,-22.833817 0,-7.5 -8.125,0 -8.125,0 0,7.5 0,7.5 8.125,0 8.125,0 0,-7.5 z m 51.249999,0 0,-7.5 -8.749999,0 -8.75,0 0,7.5 0,7.5 8.75,0 8.749999,0 0,-7.5 z"
       id="path4305" />
  </g>
</svg>
