<?xml version="1.0" encoding="UTF-8" standalone="no"?>
<!-- Created with Inkscape (http://www.inkscape.org/) -->

<svg
   xmlns:dc="http://purl.org/dc/elements/1.1/"
   xmlns:cc="http://creativecommons.org/ns#"
   xmlns:rdf="http://www.w3.org/1999/02/22-rdf-syntax-ns#"
   xmlns:svg="http://www.w3.org/2000/svg"
   xmlns="http://www.w3.org/2000/svg"
   xmlns:sodipodi="http://sodipodi.sourceforge.net/DTD/sodipodi-0.dtd"
   xmlns:inkscape="http://www.inkscape.org/namespaces/inkscape"
   version="1.1"
   id="svg4761"
   width="74"
   height="50.16"
   viewBox="0 0 74 50.159998"
   sodipodi:docname="oxcart.svg"
   inkscape:version="0.92.4 (5da689c313, 2019-01-14)">
  <metadata
     id="metadata4767">
    <rdf:RDF>
      <cc:Work
         rdf:about="">
        <dc:format>image/svg+xml</dc:format>
        <dc:type
           rdf:resource="http://purl.org/dc/dcmitype/StillImage" />
        <dc:title></dc:title>
      </cc:Work>
    </rdf:RDF>
  </metadata>
  <defs
     id="defs4765" />
  <sodipodi:namedview
     pagecolor="#ffffff"
     bordercolor="#666666"
     borderopacity="1"
     objecttolerance="10"
     gridtolerance="10"
     guidetolerance="10"
     inkscape:pageopacity="0"
     inkscape:pageshadow="2"
     inkscape:window-width="2560"
     inkscape:window-height="1412"
     id="namedview4763"
     showgrid="false"
     inkscape:zoom="3.9316406"
     inkscape:cx="126.15271"
     inkscape:cy="27.99356"
     inkscape:window-x="2560"
     inkscape:window-y="0"
     inkscape:window-maximized="1"
     inkscape:current-layer="g4771" />
  <g
     id="g4771"
     transform="translate(-0.50869346,-82.12718)">
    <path
       style="fill:#926c59;fill-opacity:1;stroke-width:0.08989586"
       d="m 49.397406,128.03429 c -0.350967,-0.24238 -0.380627,-0.24673 -1.51472,-0.22213 -1.150484,0.025 -1.15944,0.0236 -1.655845,-0.25658 -0.274505,-0.15493 -0.6946,-0.33974 -0.93354,-0.41069 -0.378704,-0.11247 -0.468906,-0.18911 -0.703079,-0.59743 -0.147749,-0.25762 -0.269016,-0.54331 -0.269482,-0.63485 -8.43e-4,-0.15224 0.05477,-0.16133 0.650902,-0.10654 0.703924,0.0647 2.278436,0.40729 3.205431,0.69746 0.462904,0.1449 0.700375,0.16803 1.209641,0.11785 0.667013,-0.0657 0.870349,-0.14439 1.538085,-0.59504 0.226256,-0.15269 0.562085,-0.32041 0.746284,-0.37269 l 0.33491,-0.0951 -0.269688,-0.11692 c -0.594324,-0.25766 -1.193943,-0.34179 -1.564474,-0.2195 -0.301531,0.0995 -0.41156,0.0941 -0.78644,-0.0384 -0.239721,-0.0848 -0.70929,-0.18641 -1.043483,-0.22589 -0.334196,-0.0395 -0.673711,-0.12662 -0.754479,-0.19365 -0.08594,-0.0713 -0.393202,-0.12787 -0.740812,-0.13632 -0.326676,-0.008 -0.705992,-0.0582 -0.84292,-0.11162 -0.275236,-0.10744 -1.261936,-0.0409 -1.543518,0.10416 -0.09589,0.0494 -0.455041,0.1206 -0.798103,0.15826 -0.355103,0.039 -0.655552,0.11992 -0.697587,0.18793 -0.08448,0.13669 0.14639,0.4382 0.335539,0.4382 0.329076,0 -0.08806,0.50509 -0.4836,0.58557 -0.137226,0.0279 -0.482642,0.11017 -0.767593,0.18278 -0.462286,0.11781 -0.554275,0.11688 -0.85401,-0.009 -0.229799,-0.0962 -0.465832,-0.12286 -0.747161,-0.0843 -0.317501,0.0435 -0.481435,0.0163 -0.719167,-0.1192 -0.27652,-0.15761 -0.337719,-0.16281 -0.600086,-0.051 -0.458483,0.19546 -0.348922,0.30383 0.307169,0.30383 0.515991,0 0.678933,0.0437 1.171742,0.31464 0.380456,0.20912 0.690894,0.31463 0.925736,0.31463 0.391027,0 0.476316,0.0959 0.575876,0.64772 0.05582,0.30939 0.03945,0.34376 -0.230128,0.48317 -0.253023,0.13084 -0.383089,0.13711 -1.014646,0.0489 -0.39843,-0.0557 -0.987366,-0.10259 -1.308744,-0.10427 -0.650379,-0.003 -1.642633,-0.19013 -1.828096,-0.34405 -0.06628,-0.055 -0.169019,-0.26192 -0.228305,-0.4598 -0.07941,-0.26505 -0.167515,-0.37476 -0.334615,-0.41671 -0.422137,-0.10594 -0.931762,0.0364 -1.631469,0.45567 -0.564296,0.33813 -0.748409,0.40694 -0.966735,0.36128 -0.148328,-0.031 -0.674016,-0.0902 -1.168194,-0.13149 -0.868042,-0.0726 -0.906894,-0.0851 -1.145804,-0.37132 l -0.247295,-0.29622 -0.517269,0.1157 c -0.284501,0.0636 -0.800444,0.1496 -1.146543,0.19103 -0.346099,0.0414 -0.77059,0.11911 -0.943314,0.17262 -0.467214,0.14475 -0.893566,0.11908 -1.536449,-0.0925 -0.442879,-0.14577 -0.698659,-0.17716 -1.102302,-0.13531 -0.484501,0.0502 -0.569815,0.0298 -1.090894,-0.26163 -0.530914,-0.29691 -0.588789,-0.36248 -0.951737,-1.07829 -0.212546,-0.41918 -0.439687,-0.76215 -0.504757,-0.76215 -0.242276,0 -0.458774,0.3436 -0.517766,0.82175 -0.03269,0.26496 -0.08138,0.6486 -0.108195,0.85254 l -0.04876,0.37079 -0.664086,0.1136 c -0.413369,0.0707 -0.825906,0.0868 -1.092706,0.0428 -0.235741,-0.0389 -0.665314,-0.0622 -0.954607,-0.0517 -0.388454,0.0142 -0.570022,-0.0207 -0.694398,-0.13326 -0.127815,-0.11567 -0.256419,-0.13834 -0.533505,-0.094 -0.231751,0.0371 -0.543776,0.006 -0.85433,-0.0839 -0.320836,-0.0933 -0.626168,-0.12169 -0.887055,-0.0826 -0.501439,0.0752 -1.340124,-0.15575 -1.634434,-0.45005 -0.116481,-0.11649 -0.24031,-0.32652 -0.275177,-0.46674 -0.118593,-0.47695 -0.393368,-0.74939 -0.755813,-0.74939 -0.444481,0 -1.298465,0.30394 -1.624271,0.57809 -0.418332,0.352 -1.229796,0.41861 -1.578105,0.12954 -0.159132,-0.13207 -0.153875,-0.44992 0.01105,-0.66797 0.277202,-0.36649 0.197642,-0.39924 -0.969981,-0.39924 -0.792833,0 -1.2312246,0.0421 -1.5423117,0.14809 -0.3620115,0.12335 -0.5233431,0.1316 -0.9656265,0.0493 -0.3880352,-0.0722 -0.5960228,-0.0718 -0.7725074,0.001 -0.132829,0.055 -0.2819607,0.0899 -0.3314034,0.0776 -0.049443,-0.0123 -0.5324745,-0.0389 -1.0734037,-0.0591 -1.0709173,-0.0399 -1.2288685,-0.11282 -1.598084,-0.73785 -0.14953,-0.25313 -0.1474838,-0.26517 0.090605,-0.53308 0.2985616,-0.33596 0.8164724,-0.5399 1.8131023,-0.71395 0.8700978,-0.15197 0.9126247,-0.16931 0.8453183,-0.34471 -0.037304,-0.0972 -0.2295895,-0.1291 -0.7826626,-0.12981 -1.0115565,-0.001 -1.2661834,-0.0829 -1.2970393,-0.4157 -0.013546,-0.1461 0.056041,-0.39409 0.1559963,-0.55592 0.1592468,-0.25783 0.2268139,-0.29216 0.5750017,-0.29216 0.2170027,0 0.5665349,0.0607 0.7767384,0.13484 0.6566387,0.23168 0.9826025,0.17867 1.4158598,-0.23023 0.3311592,-0.31255 0.3822408,-0.41105 0.3834339,-0.7394 0.00171,-0.4716 0.032321,-0.51878 0.621994,-0.95873 0.2637316,-0.19677 0.5691941,-0.49063 0.6788049,-0.65304 0.291842,-0.43239 0.436512,-1.14841 0.365677,-1.80985 -0.05768,-0.53862 -0.05062,-0.56711 0.169785,-0.68507 0.126483,-0.0677 0.229968,-0.15833 0.229968,-0.20142 0,-0.0431 0.09102,-0.20162 0.202266,-0.35229 0.187511,-0.25396 0.200468,-0.3537 0.177638,-1.36727 -0.01402,-0.62245 0.01958,-1.25621 0.07803,-1.47153 0.09845,-0.36271 0.09024,-0.39385 -0.200112,-0.75973 -0.350493,-0.44166 -0.456388,-0.61207 -0.695751,-1.11959 -0.0959,-0.20335 -0.4320295,-0.62811 -0.7469493,-0.94391 -0.4403425,-0.44158 -0.6854792,-0.79921 -1.0614147,-1.5485 -0.4100802,-0.81735 -0.5415591,-1.00121 -0.8161137,-1.14128 -0.366622,-0.18704 -0.4934738,-0.43641 -0.9816279,-1.92973 -0.2854818,-0.87332 -0.4763107,-1.32917 -0.6454604,-1.54187 -0.100089,-0.12586 -0.7212227,0.006 -2.2160754,0.47124 l -1.0173965,0.31636 -0.4209387,-0.24288 C 2.2133175,104.18251 1.7750806,103.82082 1.470974,103.51234 l -0.55292107,-0.56087 -0.0635575,-0.763 c -0.0349566,-0.41965 -0.038399,-0.83893 -0.00765,-0.93173 0.0307492,-0.0928 0.22220197,-0.28624 0.42545047,-0.42986 0.2032486,-0.14361 0.4479053,-0.39393 0.5436816,-0.55626 0.095776,-0.16233 0.3151946,-0.378368 0.4875962,-0.480088 0.3529383,-0.20824 0.5743319,-0.64514 0.5743319,-1.13341 0,-0.26577 -0.066337,-0.38357 -0.3686417,-0.65463 -0.6574002,-0.58944 -0.7982484,-1.12134 -0.3833499,-1.4477 0.1302746,-0.10248 0.3273882,-0.18632 0.4380302,-0.18632 0.2854353,0 0.9087143,-0.70661 1.0341381,-1.1724 0.056223,-0.208792 0.1364431,-0.445064 0.1782669,-0.525045 0.041824,-0.07998 0.1651603,-0.378714 0.2740812,-0.663852 0.1089207,-0.285138 0.2341259,-0.540736 0.2782333,-0.567996 0.044108,-0.02726 0.1419335,-0.198497 0.217391,-0.380526 0.1521625,-0.367069 1.5363432,-1.814244 1.7352713,-1.814244 0.2168282,0 0.061252,0.660542 -0.2928796,1.243506 -0.178073,0.29314 -0.3237692,0.629935 -0.3237692,0.748434 0,0.46875 0.7518901,1.266264 1.4346688,1.521722 0.2739506,0.102497 0.7205844,0.319714 0.9925194,0.482701 0.2719349,0.16299 0.6497478,0.34615 0.8395841,0.40702 0.6869019,0.22024 1.3649615,-0.11 1.7135725,-0.834568 0.298777,-0.620992 1.196025,-1.686809 1.585178,-1.882989 0.171331,-0.08637 0.323084,-0.122446 0.337228,-0.08016 0.01414,0.04228 -0.121435,0.477027 -0.301291,0.966102 -0.524339,1.425825 -0.554869,1.717305 -0.26353,2.516115 0.249526,0.68415 0.497302,0.93515 0.923157,0.93515 0.356672,0 0.993919,-0.29017 1.275696,-0.58089 0.357541,-0.36889 0.454121,-0.81002 0.347705,-1.588144 -0.06173,-0.451382 -0.125962,-0.606922 -0.311846,-0.75514 -0.222593,-0.177491 -0.230894,-0.214304 -0.168852,-0.748865 0.06244,-0.537971 0.07527,-0.561011 0.2978,-0.53466 0.184063,0.02179 0.369532,0.231905 0.889544,1.00773 0.361347,0.539106 0.656995,1.016042 0.656995,1.059857 0,0.04382 0.08256,0.241492 0.183466,0.439282 0.198653,0.3894 0.404152,0.50305 1.124232,0.62178 0.249527,0.0412 0.811415,0.24009 1.248639,0.44209 0.954221,0.44084 1.167344,0.45878 1.346004,0.11329 0.172866,-0.33428 0.758028,-0.85695 1.240146,-1.10769 0.491133,-0.25544 1.258986,-0.34835 1.729856,-0.20933 l 0.359121,0.10604 -0.357008,0.25622 c -0.390796,0.28046 -1.151647,1.15988 -1.316456,1.52159 -0.07651,0.16793 -0.07814,0.31247 -0.0062,0.54698 0.09311,0.30337 0.07901,0.34184 -0.292315,0.79773 -0.397182,0.48763 -0.40587,0.67973 -0.03074,0.67973 0.255711,0 0.37949,0.32457 0.213924,0.56095 -0.07636,0.109018 -0.138844,0.229678 -0.138844,0.268118 0,0.12619 0.334959,0.073 0.455567,-0.0723 0.200545,-0.241638 1.051524,-0.622888 2.690788,-1.205508 2.341654,-0.83227 2.066897,-0.79513 3.053068,-0.41272 1.405246,0.54492 1.534862,0.71125 1.806367,2.318028 l 0.101818,0.60256 0.418513,0.0574 c 0.629064,0.0863 1.105099,0.21246 1.425131,0.37778 0.270148,0.13955 0.318832,0.13817 0.809062,-0.0228 0.592698,-0.19467 1.353391,-0.2775 3.3663,-0.36655 1.249957,-0.0553 1.459428,-0.0433 1.88363,0.10756 0.262504,0.0934 0.609286,0.30124 0.770626,0.46192 0.161344,0.16069 0.32959,0.29217 0.37388,0.29217 0.04429,0 0.233243,0.12136 0.41989,0.26968 0.270415,0.2149 0.42685,0.26969 0.770017,0.26969 h 0.43066 l 0.18625,-0.4978 c 0.253939,-0.67871 0.250301,-1.49974 -0.0088,-1.97567 -0.107251,-0.19703 -0.299404,-0.660748 -0.427005,-1.030468 -0.261429,-0.75749 -0.09478,-0.66376 -1.607782,-0.90433 -0.766396,-0.12186 -0.83177,-0.28077 -0.241143,-0.58615 0.230833,-0.11935 0.390376,-0.27937 0.448277,-0.44963 0.04944,-0.14538 0.125175,-0.31903 0.168294,-0.38588 0.13379,-0.20742 0.671966,-0.37907 1.30236,-0.41538 0.581396,-0.0335 0.610441,-0.0252 0.777189,0.22296 0.192512,0.28643 0.666342,0.57902 1.078638,0.66605 0.148514,0.0314 0.807939,0.0741 1.465393,0.0951 0.879027,0.028 1.204065,0.01 1.228224,-0.0697 0.01806,-0.0593 0.05797,-0.22197 0.08867,-0.36153 0.08125,-0.36942 0.695516,-0.62803 1.300975,-0.54771 0.403343,0.0535 0.452365,0.0852 0.505333,0.32632 0.041,0.18665 0.14394,0.30271 0.341846,0.38539 0.440004,0.18383 1.643914,0.32839 2.477873,0.29753 l 0.756352,-0.028 0.09766,-0.28986 c 0.17385,-0.51599 0.439672,-0.69764 1.038429,-0.70961 l 0.531251,-0.0106 0.197122,0.48568 c 0.230029,0.56676 0.416518,0.6948 0.894349,0.61407 0.191169,-0.0323 1.032088,-0.0691 1.868713,-0.0817 1.380334,-0.0208 1.550299,-0.041 1.836271,-0.21773 0.41228,-0.2548 1.133936,-0.25833 1.685258,-0.008 0.345765,0.15684 0.650919,0.18926 2.165561,0.23011 2.011582,0.0542 2.37043,-0.002 2.681838,-0.42364 0.377526,-0.51063 1.351983,-0.79469 1.662149,-0.48453 0.07575,0.0758 0.164136,0.27847 0.196405,0.45048 0.03227,0.17199 0.104226,0.34089 0.159905,0.37529 0.08794,0.0543 1.285955,0.13407 1.945987,0.1295 0.123607,-8.4e-4 0.603522,-0.0868 1.06648,-0.19099 0.668339,-0.1504 0.896624,-0.24431 1.108169,-0.45586 0.743053,-0.74305 1.587201,-0.29039 1.945495,1.04324 0.256374,0.95427 0.249893,1.02756 -0.123017,1.3916 -0.454845,0.44401 -0.929374,1.200668 -1.179375,1.880548 -0.118769,0.32299 -0.259501,0.67348 -0.312736,0.77886 -0.108342,0.21445 -0.03296,0.69344 0.130217,0.82737 0.05863,0.0481 0.207724,0.10148 0.331331,0.11858 0.197964,0.0274 0.227945,0.0805 0.251643,0.44593 0.03531,0.54453 -0.261597,0.92013 -0.861236,1.08949 -0.565976,0.15985 -0.832888,0.54593 -0.818105,1.18337 0.01865,0.80488 0.09072,0.98605 0.439621,1.10533 0.399048,0.13642 1.655469,0.14351 2.471358,0.014 1.017149,-0.16152 1.04416,-0.15735 1.251935,0.19338 0.1614,0.27243 0.183963,0.44414 0.168232,1.28027 l -0.01818,0.96564 -0.334303,0.36132 c -0.33673,0.36394 -0.497161,0.43163 -1.487768,0.62774 -0.6403,0.12677 -0.953722,0.48347 -1.03612,1.17921 -0.04492,0.37928 -0.114396,0.51714 -0.396646,0.78711 -0.45612,0.43628 -0.91203,0.65696 -2.147531,1.03953 -0.568591,0.17606 -1.088338,0.35562 -1.154993,0.39902 -0.127242,0.0828 -0.463132,1.17405 -0.463132,1.50455 0,0.27015 -0.319299,1.23952 -0.498245,1.51262 -0.08213,0.12534 -0.186961,0.39542 -0.232968,0.60018 -0.124582,0.55448 -0.585259,1.43007 -0.950003,1.80564 -0.28493,0.29338 -0.315691,0.36944 -0.268075,0.66288 0.02958,0.1823 0.0693,0.34697 0.08827,0.36594 0.01896,0.019 0.3281,0.0713 0.686973,0.11641 0.434042,0.0545 0.717234,0.14086 0.845852,0.25794 0.386022,0.35141 0.757558,0.39768 1.921159,0.23924 0.848732,-0.11556 1.152839,-0.12473 1.453341,-0.0438 0.367842,0.099 0.379133,0.11297 0.352406,0.43459 l -0.02759,0.33226 -0.854011,0.005 c -0.861171,0.005 -2.026356,0.16601 -2.198973,0.30369 -0.05135,0.041 -0.437223,0.0972 -0.857486,0.1249 -0.827528,0.0546 -2.024028,0.25694 -2.126725,0.35964 -0.147595,0.14759 0.183904,0.25392 1.304355,0.41836 1.04128,0.15283 1.251406,0.2136 1.703546,0.49268 0.402399,0.24838 0.610345,0.31834 0.946129,0.31834 0.550528,0 1.226839,0.16417 1.440985,0.34978 0.286698,0.2485 0.538375,0.84142 0.538375,1.26835 0,0.6411 -0.509614,1.53261 -1.135089,1.9857 -0.517899,0.37517 -0.955383,0.35679 -1.643063,-0.069 l -0.534086,-0.33069 -1.116155,-0.0169 c -0.96456,-0.0146 -1.132441,-0.0392 -1.236068,-0.18092 -0.187781,-0.25681 -0.153447,-0.67706 0.05988,-0.73285 0.207038,-0.0541 0.211396,-0.0687 0.08895,-0.29751 -0.104212,-0.19472 -1.550785,-1.34666 -1.691098,-1.34666 -0.05116,0 -0.149014,-0.056 -0.217442,-0.12441 -0.166057,-0.16606 -2.757114,-0.3596 -3.24726,-0.24255 -0.2775,0.0663 -0.472939,0.042 -0.972221,-0.12078 l -0.624903,-0.20373 -0.853176,0.23616 c -0.860831,0.23827 -1.019071,0.34497 -1.021579,0.68884 -0.0014,0.18188 0.03054,0.18705 0.89643,0.14535 0.615711,-0.0296 0.937954,-0.01 1.025583,0.0628 0.08361,0.0694 0.281382,0.0857 0.572094,0.0471 0.361578,-0.048 0.454654,-0.032 0.499827,0.0857 0.04323,0.11268 0.190275,0.14553 0.665125,0.1486 0.335289,0.002 0.77143,0.0673 0.969201,0.14462 0.197771,0.0774 0.541049,0.18684 0.762845,0.24327 0.455848,0.11597 1.109,0.6938 1.062148,0.93965 -0.02231,0.11704 -0.198811,0.17593 -0.770919,0.25719 -0.502074,0.0713 -0.879645,0.18543 -1.167719,0.35291 -1.094213,0.63615 -1.27592,0.69974 -2.113986,0.73981 -0.928467,0.0444 -1.429546,-0.0459 -2.789246,-0.50233 l -0.971564,-0.32618 -0.421822,0.16381 c -0.232002,0.0901 -0.579502,0.17926 -0.772225,0.19814 -0.366031,0.0359 -0.840588,0.27816 -1.222775,0.62432 -0.157818,0.14294 -1.062841,0.57255 -1.215201,0.57685 -8.43e-4,3e-5 -0.162694,-0.1112 -0.359583,-0.24717 z m 7.88855,-2.09668 0.29358,-0.27629 -0.71729,0.0572 c -0.394511,0.0314 -0.738363,0.0784 -0.764115,0.10424 -0.02576,0.0259 0.04868,0.12449 0.1654,0.21912 0.31522,0.25555 0.679593,0.21841 1.022425,-0.10423 z m -27.65202,-0.21703 c 0.02823,-0.0736 -0.05673,-0.31812 -0.188801,-0.54347 -0.186076,-0.31752 -0.278157,-0.39766 -0.409124,-0.35609 -0.103526,0.0329 -0.234957,-0.0123 -0.339235,-0.11659 -0.09379,-0.0938 -0.368332,-0.19793 -0.611396,-0.23192 -0.401016,-0.0561 -0.459572,-0.0405 -0.643431,0.17064 -0.111246,0.12779 -0.202265,0.2887 -0.202265,0.35759 0,0.15135 0.475975,0.52656 0.902938,0.71177 0.421852,0.183 1.422111,0.18841 1.491314,0.008 z m 36.423982,-1.37202 c 0.02304,-0.23895 -0.0036,-0.29217 -0.146311,-0.29217 -0.240272,0 -0.403509,0.2221 -0.331044,0.45041 0.09966,0.314 0.442787,0.20026 0.477355,-0.15824 z M 8.6254601,122.89322 c 0.1061724,-0.0672 0.1084841,-0.10646 0.013035,-0.22147 -0.1367737,-0.1648 -0.4567333,-0.0428 -0.4567333,0.17421 0,0.14673 0.2452306,0.17285 0.4436984,0.0473 z m 45.9787869,-0.41 c -0.0048,-0.0494 -0.166613,-0.18079 -0.359583,-0.29187 -0.267659,-0.15408 -0.436124,-0.18989 -0.710441,-0.15102 -0.256718,0.0364 -0.475308,-0.002 -0.764115,-0.13316 -0.518587,-0.23603 -2.153793,-0.27433 -2.336057,-0.0547 -0.09181,0.11063 -0.06972,0.14892 0.129689,0.22474 0.132201,0.0503 0.308523,0.092 0.391828,0.0928 0.08331,8.4e-4 0.495318,0.0996 0.915581,0.21974 0.628566,0.17962 0.93953,0.21525 1.752969,0.20087 0.594712,-0.0105 0.985377,-0.0533 0.980129,-0.10737 z m 3.289925,-0.35369 c 0.37082,-0.0675 1.029687,-0.25247 1.464148,-0.41111 2.437902,-0.89015 4.54503,-3.27712 5.231495,-5.92627 0.352529,-1.36046 -0.03592,-2.23219 -0.845277,-1.89694 -0.44163,0.18293 -0.632249,0.47833 -0.861548,1.33515 -0.546499,2.04209 -1.772662,3.5675 -3.595432,4.47288 -1.054392,0.52373 -1.886052,0.69833 -3.05646,0.64169 -2.769494,-0.13403 -5.114473,-2.05501 -5.977647,-4.89682 -0.353625,-1.16423 -0.920334,-1.67881 -1.432165,-1.30042 -0.127233,0.0941 -0.287771,0.34583 -0.356746,0.55948 -0.110151,0.34118 -0.107086,0.46601 0.02517,1.02579 0.463694,1.96267 1.891501,3.99281 3.635402,5.16903 1.669661,1.12614 3.816198,1.58288 5.769064,1.22754 z m -34.237598,-0.22476 c 0.358187,-0.1351 0.522857,-0.24988 0.560621,-0.39075 0.08183,-0.30523 0.06271,-1.29642 -0.03852,-1.99736 -0.09644,-0.66779 -0.57182,-1.75297 -0.767909,-1.75297 -0.193553,0 -0.754055,0.73746 -0.850434,1.11892 -0.05063,0.2004 -0.210438,0.70821 -0.355128,1.12847 -0.248821,0.72272 -0.449172,1.61796 -0.449172,2.00707 0,0.16398 0.04805,0.17274 0.696693,0.12702 0.383181,-0.027 0.924912,-0.13519 1.203845,-0.2404 z m 13.577543,-0.0252 c 0.04152,-0.0636 0.09667,-0.21669 0.122565,-0.3403 0.0259,-0.1236 0.131866,-0.38655 0.235504,-0.58432 0.103639,-0.19777 0.308942,-0.58753 0.45623,-0.86614 0.347206,-0.65678 0.553604,-2.0934 0.435683,-3.03254 -0.131433,-1.04673 -0.701968,-2.03799 -0.975847,-1.69545 -0.196763,0.2461 -0.212424,0.55313 -0.05848,1.14666 0.25945,1.00033 0.132433,1.35746 -1.122035,3.15476 -0.642281,0.92021 -0.664011,1.5162 -0.07749,2.1255 0.251994,0.26178 0.337272,0.29813 0.601024,0.25622 0.169049,-0.0269 0.341331,-0.10084 0.382849,-0.16439 z m -23.714461,-0.11152 c 0.07954,-0.12139 0.235889,-0.30578 0.347449,-0.40974 0.170967,-0.15933 0.199343,-0.26885 0.180608,-0.69706 -0.01223,-0.27941 0.03963,-0.80749 0.115232,-1.17351 0.0756,-0.36601 0.113645,-0.74051 0.08454,-0.83222 -0.02911,-0.0917 -0.0052,-0.40919 0.05308,-0.70552 0.09859,-0.50113 0.09188,-0.56258 -0.09612,-0.87947 -0.128072,-0.21587 -0.219167,-0.54936 -0.248664,-0.91031 -0.05485,-0.67124 -0.164562,-0.75327 -0.604562,-0.45202 -0.314612,0.2154 -0.764559,1.04014 -0.764559,1.4014 0,0.0976 -0.136805,0.43641 -0.304011,0.75288 -0.167205,0.31646 -0.333883,0.75743 -0.370394,0.97993 -0.03651,0.22249 -0.147952,0.66747 -0.247644,0.98885 -0.209304,0.67473 -0.214788,1.12345 -0.01952,1.59713 0.199004,0.48273 0.349086,0.56037 1.083253,0.56037 0.587461,0 0.659944,-0.0202 0.791312,-0.22071 z m -0.66331,-4.67861 c 0,-0.0742 0.04045,-0.13485 0.0899,-0.13485 0.04944,0 0.0899,0.0607 0.0899,0.13485 0,0.0742 -0.04045,0.13484 -0.0899,0.13484 -0.04944,0 -0.0899,-0.0607 -0.0899,-0.13484 z m 17.351553,4.58034 c 0.09648,-0.25375 0.581556,-0.49824 1.012859,-0.51051 0.200066,-0.006 0.331668,0.0665 0.504561,0.27687 0.295735,0.35978 0.608662,0.36977 1.269397,0.0405 0.709129,-0.35337 1.500642,-1.19055 1.931064,-2.04246 0.340882,-0.6747 0.359075,-0.75201 0.34979,-1.4866 -0.01267,-1.00341 -0.182143,-1.38169 -1.008654,-2.25154 -0.352344,-0.37082 -0.666755,-0.75512 -0.698687,-0.85401 -0.03193,-0.0989 -0.194642,-0.30661 -0.361581,-0.4616 -0.16694,-0.155 -0.303525,-0.36738 -0.303525,-0.47196 0,-0.21288 -0.110974,-0.24747 -0.249517,-0.0778 -0.108283,0.13264 -0.0014,0.92221 0.203622,1.50308 0.184183,0.52202 0.171266,0.91871 -0.05475,1.68129 -0.135318,0.45656 -0.277478,0.72851 -0.486943,0.93153 -0.333725,0.32346 -0.395275,0.30743 -0.761618,-0.19829 l -0.258582,-0.35696 -0.285768,0.38841 c -0.296482,0.40298 -0.803124,1.39187 -0.803248,1.56782 -3.6e-5,0.0554 -0.08205,0.35729 -0.182252,0.67095 -0.165838,0.51911 -0.291311,1.73645 -0.189475,1.83828 0.111111,0.11112 0.294976,0.019 0.373309,-0.18704 z m 11.353552,-0.54956 c 0.706559,-0.53916 0.828208,-0.57472 1.583004,-0.46269 0.557329,0.0827 0.663449,0.0758 0.805442,-0.0527 0.133658,-0.12096 0.277792,-0.13738 0.788771,-0.0899 0.658308,0.0612 1.199354,-0.0996 1.199354,-0.35642 0,-0.13707 -0.58462,-0.98942 -1.088492,-1.58699 -0.192414,-0.22818 -0.349841,-0.45739 -0.349841,-0.50935 0,-0.0519 -0.08062,-0.19695 -0.179154,-0.32221 -0.09853,-0.12527 -0.444802,-0.73813 -0.769481,-1.36192 -0.449855,-0.86428 -0.598476,-1.24364 -0.624579,-1.59428 -0.0254,-0.34118 -0.09378,-0.52225 -0.264539,-0.70048 l -0.230282,-0.24036 0.18236,-0.37744 c 0.275901,-0.57106 0.298049,-0.82762 0.129461,-1.49984 -0.14739,-0.58771 -0.147092,-0.6206 0.0067,-0.73302 0.14176,-0.10366 0.148218,-0.16023 0.05414,-0.47423 -0.146527,-0.48905 -0.486412,-0.74178 -0.951632,-0.70759 l -0.364466,0.0268 0.02714,0.58432 c 0.03495,0.75229 0.265075,2.03311 0.41874,2.33061 0.06574,0.12729 0.147275,0.5146 0.18118,0.8607 0.05938,0.60613 0.120882,0.8023 0.51589,1.64544 0.174341,0.37213 0.175434,0.40216 0.02862,0.78659 -0.170622,0.44676 -0.379605,0.51744 -0.670345,0.2267 -0.227009,-0.22702 -0.494154,-0.36639 -0.702294,-0.36639 -0.193563,0 -0.42598,0.58539 -0.508875,1.2817 -0.02801,0.23522 -0.110016,0.5184 -0.182253,0.62927 -0.228125,0.35014 -0.501186,1.84299 -0.501186,2.74003 v 0.83884 l 0.471953,-0.0581 c 0.369183,-0.0455 0.585787,-0.14499 0.994706,-0.45702 z m -21.870548,0.0893 c 0.122247,-0.0825 0.233994,-0.15827 0.248326,-0.1684 0.01433,-0.0101 0.104446,-0.23287 0.200251,-0.49498 0.122956,-0.33639 0.146778,-0.5096 0.08099,-0.58887 -0.06625,-0.0798 -0.0401,-0.21639 0.09042,-0.47223 0.100993,-0.19796 0.286309,-0.71427 0.411814,-1.14737 0.198444,-0.68479 0.220988,-0.89364 0.172931,-1.60215 -0.03039,-0.4481 -0.1164,-1.04336 -0.191128,-1.32282 l -0.135869,-0.5081 -0.82216,-0.061 c -0.452188,-0.0335 -1.186238,-0.15884 -1.631223,-0.27843 -1.060178,-0.2849 -1.550778,-0.28944 -1.653168,-0.0153 -0.07246,0.19401 -0.192942,1.05912 -0.507091,3.64103 -0.140753,1.15682 -0.114527,2.17972 0.05588,2.17972 0.04255,0 0.20973,0.14547 0.371518,0.32326 0.285751,0.31403 0.307014,0.32131 0.743821,0.25509 0.655629,-0.0994 0.938705,-0.0671 1.581813,0.18022 0.695931,0.26768 0.704189,0.26836 0.982872,0.0803 z m 5.722936,-0.27703 c -0.02261,-0.0865 -0.04111,-0.0157 -0.04111,0.15732 0,0.17305 0.0185,0.24384 0.04111,0.15732 0.02261,-0.0865 0.02261,-0.22811 0,-0.31464 z m 24.80753,-0.33933 c 0.05758,-0.15006 -0.314312,-0.76452 -0.680545,-1.12445 -0.208376,-0.20478 -0.332702,-0.38842 -0.705042,-1.04138 -0.06256,-0.10972 -0.294227,-0.28685 -0.514803,-0.39363 -0.220579,-0.10678 -0.502279,-0.31445 -0.626004,-0.46149 -0.123722,-0.14703 -0.414816,-0.41773 -0.646874,-0.60155 -0.326397,-0.25854 -0.474498,-0.4661 -0.654127,-0.91677 -0.210418,-0.52791 -0.258619,-0.58514 -0.513771,-0.60999 l -0.281568,-0.0274 -0.0573,-0.69175 c -0.121618,-1.46821 -0.147215,-1.57346 -0.452468,-1.8604 -0.157795,-0.14833 -0.476471,-0.32478 -0.708166,-0.39211 -0.372388,-0.10821 -0.447291,-0.10537 -0.645567,0.0246 -0.123366,0.0808 -0.223883,0.1966 -0.223372,0.25726 0.0031,0.3624 0.378726,2.1807 0.498321,2.41197 0.07867,0.15213 0.122281,0.33066 0.09692,0.39675 -0.02537,0.0661 0.01216,0.16852 0.08339,0.22763 0.07123,0.0591 0.129501,0.15423 0.129501,0.21138 0,0.18892 0.602724,1.36557 0.975999,1.90536 0.201864,0.29192 0.7702,0.91434 1.262973,1.38316 0.832876,0.79239 0.951721,0.8725 1.688252,1.13794 0.908117,0.32729 1.880765,0.40854 1.974248,0.16493 z m -24.858896,-0.77859 c -0.06849,-0.52387 -0.07016,-1.00284 -0.0056,-1.60143 0.05066,-0.4697 0.110932,-1.12673 0.133944,-1.46006 0.02301,-0.33332 0.114102,-0.81876 0.202422,-1.07875 l 0.160583,-0.4727 -0.300592,-1.16326 c -0.165327,-0.6398 -0.460303,-1.55275 -0.655504,-2.02878 -0.371371,-0.90565 -0.465309,-1.67489 -0.267931,-2.19404 0.07258,-0.1909 0.120942,-0.21627 0.292162,-0.15324 0.290443,0.10691 0.489816,0.49347 0.704587,1.36612 0.225293,0.91539 0.519388,1.39683 0.96736,1.58358 0.182134,0.0759 0.432284,0.20918 0.555891,0.29612 0.207247,0.14576 0.723164,0.37745 1.825268,0.81969 l 0.431882,0.1733 0.82666,-0.2166 c 0.454663,-0.11913 1.183106,-0.26595 1.618761,-0.32626 0.713185,-0.0987 0.821361,-0.13978 1.085795,-0.41206 0.430958,-0.44374 0.752788,-1.09281 0.908218,-1.83171 0.143674,-0.68299 0.191973,-0.81218 0.303643,-0.81218 0.0372,0 0.257513,0.34099 0.489584,0.75776 0.232069,0.41677 0.522871,0.87771 0.646225,1.02431 0.123354,0.1466 0.224279,0.31254 0.224279,0.36875 0,0.0562 0.05914,0.12491 0.131419,0.15265 0.165608,0.0636 1.127123,1.0277 1.127123,1.13021 0,0.0419 0.108881,0.12572 0.241958,0.18635 0.294012,0.13397 0.770868,0.57705 0.915058,0.85026 0.05812,0.11012 0.236215,0.23374 0.395764,0.2747 0.18173,0.0466 0.357243,0.1828 0.469877,0.36449 0.513213,0.82785 0.549221,0.86859 0.767696,0.86859 0.196414,0 0.224279,-0.0433 0.249063,-0.38737 0.0204,-0.28308 -0.03074,-0.48879 -0.189919,-0.76411 -0.119801,-0.20721 -0.305717,-0.61471 -0.413151,-0.90555 -0.107431,-0.29084 -0.365036,-0.87741 -0.572454,-1.30349 -0.207417,-0.42608 -0.38052,-0.79491 -0.384672,-0.81963 -0.0042,-0.0247 -0.05312,-0.20676 -0.108808,-0.40454 -0.298547,-1.06018 -0.311222,-1.17255 -0.170322,-1.50977 0.07496,-0.17942 0.162726,-0.51991 0.195026,-0.75666 0.0323,-0.23674 0.140429,-0.73147 0.240289,-1.0994 0.113643,-0.4187 0.163302,-0.80514 0.132743,-1.03297 -0.03137,-0.2339 -0.0069,-0.4125 0.06837,-0.49969 0.06446,-0.0746 0.142165,-0.44752 0.172679,-0.82866 l 0.05548,-0.69298 -0.534737,-0.79944 c -0.816715,-1.221 -1.353652,-1.63685 -1.958615,-1.51691 -0.135054,0.0268 -0.497534,-0.0138 -0.805509,-0.0902 l -0.559958,-0.13887 -0.968271,0.34756 -0.968271,0.34757 -1.438334,-8.2e-4 c -1.582105,-9e-4 -2.453415,-0.12376 -3.162435,-0.44602 -0.542134,-0.24641 -0.688167,-0.4751 -0.83649,-1.30997 -0.117011,-0.65863 -0.440277,-1.22095 -0.775079,-1.34824 -0.338144,-0.12856 -1.062816,-0.10451 -1.681535,0.0558 -0.735686,0.19063 -1.021786,0.35017 -1.181356,0.65874 -0.174684,0.3378 -0.543511,0.4577 -1.407926,0.4577 -0.650256,0 -0.725191,0.0198 -1.005418,0.26586 -0.231939,0.20365 -0.348572,0.42341 -0.498424,0.93914 -0.107597,0.3703 -0.23454,0.69733 -0.282098,0.72672 -0.04756,0.0294 -0.167517,0.22369 -0.26658,0.43177 -0.09906,0.20809 -0.220592,0.43902 -0.270067,0.51318 -0.04948,0.0742 -0.151531,0.27643 -0.226791,0.44948 -0.07526,0.17305 -0.207713,0.42378 -0.29434,0.55717 -0.38214,0.58844 -0.703737,1.01882 -0.786777,1.05293 -0.04944,0.0203 -0.221369,0.16796 -0.382058,0.32812 -0.217784,0.21707 -0.292161,0.37078 -0.292161,0.60382 0,0.17194 -0.06068,0.36297 -0.134844,0.42453 -0.154732,0.12841 -0.18156,0.58978 -0.0394,0.67764 0.05249,0.0324 0.133725,0.14608 0.180515,0.25252 0.179553,0.40846 0.587841,1.06144 0.810687,1.29654 0.127946,0.13499 0.340105,0.4162 0.471463,0.62493 0.131358,0.20872 0.365038,0.44476 0.51929,0.52452 0.723803,0.3743 1.393693,1.24472 1.599291,2.07804 0.04669,0.18925 0.191429,0.59849 0.32164,0.90943 0.194752,0.46506 0.22543,0.64047 0.172949,0.98885 -0.101722,0.67527 -0.0685,2.10555 0.05577,2.40122 l 0.113349,0.26969 0.170338,-0.53937 c 0.09369,-0.29666 0.227161,-0.91752 0.296613,-1.37971 0.125864,-0.83759 0.125526,-0.84191 -0.103662,-1.32596 -0.126466,-0.26708 -0.265655,-0.48562 -0.30931,-0.48562 -0.04365,0 -0.07937,-0.13665 -0.07937,-0.30366 0,-0.32542 -0.208306,-0.90634 -0.358222,-0.99899 -0.05019,-0.031 -0.09126,-0.17298 -0.09126,-0.31548 0,-0.14249 -0.0356,-0.28107 -0.0791,-0.30796 -0.123047,-0.076 -0.382804,-0.94317 -0.432384,-1.44339 -0.04428,-0.44671 0.07478,-0.94552 0.22567,-0.94552 0.04302,0 0.187071,0.36271 0.320116,0.80603 0.133045,0.44332 0.343161,0.92638 0.466925,1.07347 0.123766,0.14708 0.283482,0.49185 0.354927,0.76615 0.07145,0.27429 0.312982,0.86325 0.536748,1.3088 0.493981,0.98357 0.854497,2.05553 0.854497,2.54076 0,0.31966 0.10878,0.63978 0.603227,1.77521 0.07536,0.17305 0.208417,0.65848 0.295686,1.07875 0.344435,1.65871 0.544991,2.03924 0.370231,0.70246 z m 32.109969,-0.0246 c 0.287198,-0.0686 0.619512,-0.18854 0.738478,-0.26649 0.118966,-0.078 0.288518,-0.14209 0.376781,-0.14254 0.267766,-10e-4 1.017627,-0.40666 1.247617,-0.67432 0.324165,-0.37725 0.288937,-0.77224 -0.108069,-1.21167 -0.178434,-0.19751 -0.359288,-0.33756 -0.401896,-0.31122 -0.04261,0.0263 -0.101995,-0.0498 -0.13197,-0.16926 -0.06042,-0.24074 -0.325001,-0.39095 -0.831157,-0.47189 -0.2827,-0.0452 -0.404366,-0.006 -0.777316,0.25111 -0.661012,0.45553 -0.806321,0.69562 -0.821086,1.35667 -0.0073,0.32827 -0.07567,0.68332 -0.164636,0.85536 -0.129621,0.25066 -0.135498,0.34004 -0.03977,0.60477 0.125772,0.34782 0.171128,0.35673 0.913024,0.17948 z m -30.285656,-0.16734 c 0.330693,-0.33069 0.545852,-1.97086 0.328807,-2.5065 -0.04602,-0.11357 -0.107216,-0.30763 -0.135988,-0.43123 -0.05951,-0.25566 -0.817436,-1.15037 -0.902464,-1.06534 -0.03068,0.0307 -0.09744,0.43463 -0.14836,0.89767 -0.05092,0.46303 -0.147401,1.20403 -0.214411,1.64666 l -0.121837,0.80478 0.316597,0.43129 c 0.35642,0.48554 0.562501,0.53783 0.877656,0.22267 z m -16.231592,-0.3428 c 0.09773,-0.1565 0.09837,-0.20509 0.0034,-0.26376 -0.16604,-0.10262 -0.259793,-0.0174 -0.259793,0.23616 0,0.27044 0.0981,0.281 0.256348,0.0276 z m 43.68493,-0.47318 c 0.133628,-0.0691 0.313967,-0.2041 0.400753,-0.3 0.198858,-0.21973 0.361634,-1.44289 0.266364,-2.00155 -0.0661,-0.38762 -0.08581,-0.40871 -0.471523,-0.50455 -0.500526,-0.12437 -0.684574,-0.0422 -1.410542,0.62994 -0.917393,0.84934 -0.933341,1.12376 -0.110058,1.89384 0.47837,0.44746 0.851797,0.52703 1.325006,0.28232 z m -25.851689,-0.22834 c -0.01343,-0.059 0.05579,-0.21986 0.153834,-0.35755 0.354842,-0.49833 0.454132,-1.4177 0.219265,-2.03029 -0.07583,-0.19777 -0.148918,-0.47867 -0.162431,-0.62421 -0.0159,-0.17115 -0.132518,-0.35606 -0.330143,-0.52345 -0.688655,-0.58327 -1.142213,-0.65132 -1.463199,-0.21952 l -0.186548,0.25095 0.187248,0.37832 c 0.497691,1.00556 0.662494,1.38129 0.662494,1.51037 0,0.0773 0.125808,0.33056 0.279574,0.5627 0.246833,0.37265 0.272439,0.46966 0.218648,0.82837 -0.06087,0.40591 -0.06069,0.40625 0.192379,0.36891 0.139318,-0.0206 0.242313,-0.0856 0.228879,-0.1446 z m -17.503116,-0.10227 c 0.06736,-0.21225 0.01021,-0.30894 -0.131013,-0.22166 -0.117907,0.0729 -0.127796,0.40822 -0.01204,0.40822 0.04611,0 0.110485,-0.084 0.143053,-0.18656 z m 25.321089,-0.055 c 0.219144,-0.20996 0.252133,-0.30936 0.252133,-0.75969 0,-0.28498 -0.0449,-0.73251 -0.09977,-0.99451 -0.115404,-0.551 -0.428326,-1.33039 -0.534148,-1.33039 -0.03982,0 -0.133756,-0.0614 -0.208746,-0.13635 -0.31997,-0.31997 -0.969263,-0.76261 -1.118639,-0.76261 -0.08901,0 -0.239196,0.0566 -0.333755,0.12571 -0.1664,0.12168 -0.161167,0.14694 0.163012,0.78659 0.184216,0.36348 0.334755,0.73032 0.334533,0.81519 -1.8e-4,0.0849 0.176553,0.35356 0.392831,0.59708 0.380625,0.42856 0.448507,0.59825 0.643427,1.60837 0.06856,0.35532 0.179556,0.36636 0.509125,0.0506 z m -6.052393,-1.34827 c 0.425393,-0.74629 0.51603,-1.133 0.396424,-1.69137 -0.07036,-0.32845 -0.103965,-0.36162 -0.388137,-0.38305 -0.561211,-0.0423 -0.580794,0.007 -0.580794,1.45851 0,0.81142 0.03406,1.30604 0.0899,1.30559 0.04944,-2.8e-4 0.26662,-0.31075 0.482612,-0.68968 z m -18.687529,-0.78294 c -0.107008,-0.10903 -0.216343,0.3521 -0.130924,0.55217 0.05288,0.12386 0.08249,0.0903 0.138556,-0.15711 0.03922,-0.17305 0.03578,-0.35083 -0.0076,-0.39506 z m 3.46944,0.10289 c 0.22543,-0.71283 0.256103,-1.98666 0.06115,-2.53955 -0.149354,-0.42358 -0.176625,-0.44948 -0.473125,-0.44948 h -0.314635 v 0.98885 c 0,0.77563 0.04631,1.14878 0.214756,1.7305 0.118116,0.4079 0.248022,0.74164 0.288679,0.74164 0.04066,0 0.141086,-0.21238 0.223175,-0.47196 z m 46.261121,-0.0449 c 0.349192,-0.3744 0.432334,-0.59307 0.432334,-1.1371 0,-0.57642 -0.11342,-0.6833 -0.725119,-0.6833 -0.696963,0 -1.297147,0.56015 -1.071584,1.0001 0.142993,0.27889 0.907487,1.06751 1.034864,1.06751 0.05441,0 0.20269,-0.11125 0.329505,-0.24721 z M 47.39585,115.03809 c 0.01087,-0.81319 -0.163645,-1.4689 -0.408434,-1.53456 -0.423673,-0.11363 -0.510018,-0.0706 -0.510018,0.25442 0,0.30441 0.342742,1.37206 0.605488,1.88611 0.117353,0.22959 0.144996,0.24339 0.219834,0.10966 0.04708,-0.0841 0.08899,-0.40616 0.09313,-0.71563 z m 4.604291,0.30062 c 0.176435,-0.0671 0.230592,-0.15068 0.230592,-0.35597 0,-0.23511 -0.04446,-0.28163 -0.359337,-0.37597 -0.310809,-0.0931 -0.382335,-0.0868 -0.529624,0.0465 -0.191439,0.17325 -0.16186,0.48053 0.06361,0.66079 0.169229,0.1353 0.290605,0.14034 0.594762,0.0247 z M 12.454107,114.9755 c 0.350416,-0.21657 0.585233,-0.67031 0.520146,-1.00509 -0.02967,-0.15263 0.01467,-0.33586 0.119749,-0.49481 0.311006,-0.47045 0.391858,-0.61077 0.481672,-0.83598 0.04929,-0.12361 0.129681,-0.28542 0.178636,-0.35958 0.04895,-0.0742 0.168136,-0.28062 0.264847,-0.45878 0.208305,-0.38375 0.853757,-0.70058 1.568761,-0.77005 0.376816,-0.0366 0.659804,0.0228 1.569051,0.32928 0.610126,0.20567 1.132444,0.35082 1.160708,0.32256 0.151691,-0.15169 -0.57237,-1.54615 -0.937686,-1.80588 -0.261082,-0.18562 -0.464688,-0.67921 -0.72284,-1.75234 -0.07362,-0.30606 -0.578532,-1.02648 -0.921904,-1.31541 -0.154795,-0.13025 -0.396152,-0.46403 -0.536349,-0.74172 -0.140638,-0.27857 -0.482666,-0.72029 -0.763001,-0.9854 -0.479104,-0.45307 -0.519435,-0.473 -0.706716,-0.34927 -0.109238,0.0722 -0.232943,0.24793 -0.2749,0.39059 -0.228088,0.77556 -0.46317,0.87475 -0.940911,0.39701 -0.149855,-0.14986 -0.337276,-0.27247 -0.416491,-0.27247 -0.07921,0 -0.404931,-0.24272 -0.723814,-0.53937 -0.318883,-0.29666 -0.631375,-0.53923 -0.694426,-0.53904 -0.248735,7.3e-4 -0.7168075,0.38 -0.8436641,0.68361 -0.086865,0.2079 -0.1289149,0.57816 -0.1197351,1.05431 0.00778,0.40363 -0.024468,0.85524 -0.071666,1.00356 -0.093167,0.2928 0.061511,0.99634 0.3016641,1.37209 0.1399201,0.21893 1.4342451,1.27984 1.5614171,1.27984 0.04228,0 0.105253,-0.13147 0.139951,-0.29216 0.192359,-0.89082 0.431702,-1.45353 0.778076,-1.8293 0.200566,-0.21759 0.420195,-0.39562 0.488061,-0.39562 0.206988,0 0.153896,0.92749 -0.09213,1.60954 -0.244296,0.67725 -0.361832,1.40351 -0.513137,3.17074 -0.09329,1.08963 -0.08852,1.27124 0.04202,1.59747 0.165182,0.41283 0.193458,0.81392 0.05738,0.81392 -0.186012,0 -0.449479,0.36885 -0.449479,0.62927 0,0.31696 0.0986,0.33453 0.496719,0.0885 z m -1.605149,-6.80786 c -0.114621,-0.18238 -0.146684,-0.47229 -0.05223,-0.47229 0.115236,0 0.195203,0.21783 0.154829,0.42175 -0.02329,0.11764 -0.05164,0.13161 -0.102595,0.0505 z m 46.779108,6.62766 c 0.4134,-0.21091 0.43797,-0.29991 0.137201,-0.49698 -0.175081,-0.11472 -0.422059,-0.1378 -1.236068,-0.11552 -0.923947,0.0253 -1.047105,0.009 -1.342514,-0.17334 -0.364499,-0.22547 -0.593795,-0.24963 -0.927292,-0.0977 -0.18416,0.0839 -0.350993,0.0674 -0.880716,-0.0871 -0.359434,-0.10481 -0.876009,-0.2185 -1.147944,-0.25266 -0.277214,-0.0348 -0.538802,-0.12246 -0.595437,-0.19949 -0.08931,-0.12148 -0.162203,-0.12271 -0.629271,-0.0107 -0.290543,0.0697 -0.619281,0.11621 -0.730527,0.10335 -0.43247,-0.05 -0.171859,0.16447 0.404531,0.33295 1.080593,0.31587 1.365479,0.37713 2.161184,0.46469 0.430598,0.0474 1.207663,0.18549 1.726812,0.30689 1.901446,0.44466 2.538423,0.49159 3.060041,0.22548 z m 1.954125,-0.40781 c 0.174884,-0.12249 0.281369,-0.39943 0.153584,-0.39943 -0.09232,0 -0.670763,0.40634 -0.671845,0.47195 -0.002,0.11688 0.310211,0.0732 0.518261,-0.0725 z m 1.561208,-0.27421 c 0.27907,-0.0689 0.616809,-0.12522 0.750529,-0.12522 0.133717,0 0.370598,-0.0588 0.526399,-0.13076 0.155801,-0.0719 0.490115,-0.21072 0.742922,-0.30847 0.252804,-0.0977 0.596414,-0.26089 0.763578,-0.36255 l 0.303932,-0.18483 -0.763581,0.0543 c -0.498483,0.0355 -0.866792,0.1131 -1.060878,0.22362 -0.360249,0.20514 -0.499222,0.21204 -0.648489,0.0322 -0.101371,-0.12214 -0.133048,-0.11969 -0.290192,0.0225 -0.12046,0.10897 -0.321948,0.15958 -0.635353,0.15958 -0.440844,0 -0.466837,0.014 -0.658841,0.35521 -0.10994,0.19536 -0.180741,0.38619 -0.157337,0.42406 0.04655,0.0753 0.348658,0.0325 1.127311,-0.15962 z m -20.275641,-0.90491 c 0.08866,-0.47258 -0.02219,-2.49922 -0.149732,-2.73753 -0.05908,-0.11039 -0.143696,-0.52496 -0.188034,-0.92126 -0.04434,-0.3963 -0.09988,-0.73981 -0.123419,-0.76335 -0.09126,-0.0913 -0.49434,0.39364 -0.636373,0.76554 -0.101784,0.26652 -0.131776,0.51902 -0.0942,0.79314 0.06954,0.50738 0.958329,3.19367 1.056655,3.19367 0.04024,0 0.101035,-0.14859 0.135105,-0.33021 z m 24.944407,-0.92833 c 0.09812,0 0.318695,-0.0586 0.490157,-0.13026 0.281978,-0.11782 0.311748,-0.16455 0.311748,-0.48941 0,-0.48981 -0.327788,-0.89012 -0.606657,-0.74087 -0.104821,0.0561 -0.413765,0.102 -0.686537,0.102 -0.272772,0 -0.720538,0.0585 -0.995035,0.12999 -0.274497,0.0715 -1.095645,0.21491 -1.824776,0.3187 -1.777769,0.25305 -2.364888,0.36882 -2.311186,0.4557 0.049,0.0793 0.300724,0.0563 1.524867,-0.13935 2.187475,-0.3496 2.398045,-0.35229 2.568993,-0.0329 0.05405,0.10099 0.06637,0.39212 0.03015,0.71228 l -0.06126,0.54148 0.690566,-0.3637 c 0.379813,-0.20003 0.770851,-0.36369 0.868975,-0.36369 z m -17.644964,0.37274 c 0.151477,-0.0961 -0.0078,-0.232 -0.374818,-0.31987 -0.288139,-0.069 -1.135081,-0.75781 -1.135149,-0.92324 -2.5e-5,-0.0584 0.121315,-0.19266 0.269643,-0.29828 0.148328,-0.10562 0.269687,-0.24996 0.269687,-0.32075 0,-0.17733 -0.52845,-0.1719 -0.596762,0.006 -0.07081,0.18452 -0.235198,0.16909 -0.482387,-0.0453 -0.376953,-0.32693 -1.553086,-0.54544 -1.827481,-0.33953 -0.132392,0.0994 -0.152287,0.19041 -0.101159,0.46294 0.139943,0.74597 0.810403,1.17269 2.468414,1.57105 1.248005,0.29986 1.342918,0.31286 1.510012,0.20686 z m 10.356242,-0.32877 c 0.271935,-0.0659 0.615786,-0.1714 0.764115,-0.23436 0.265704,-0.11279 0.26106,-0.11554 -0.314636,-0.18612 -0.967985,-0.11868 -5.124064,-0.193 -5.124064,-0.0916 0,0.0492 0.11721,0.215 0.260465,0.36836 0.256197,0.27426 0.271286,0.27801 0.921432,0.22928 0.363534,-0.0273 0.782328,-0.0115 0.930656,0.0349 0.347068,0.10871 1.922333,0.0346 2.562032,-0.12046 z m -9.131782,-1.08739 c 0.275318,-0.10565 0.136662,-0.19811 -0.388482,-0.25906 -0.37143,-0.0431 -0.593987,-0.0263 -0.741641,0.0562 -0.209603,0.117 -0.208935,0.11813 0.103673,0.17578 0.437259,0.0806 0.85803,0.0918 1.02645,0.0271 z m 8.824664,-0.56509 c 0.193635,-0.19248 0.469211,-0.49807 0.612387,-0.67909 0.330637,-0.41802 0.466197,-0.31653 0.34379,0.25739 -0.04863,0.22803 -0.0609,0.43162 -0.02725,0.45242 0.145907,0.0902 0.795812,-0.39499 1.063744,-0.7941 0.160689,-0.23936 0.292161,-0.46587 0.292161,-0.50336 0,-0.0375 -0.194706,-0.094 -0.43268,-0.12555 l -0.432677,-0.0574 0.03596,-0.51603 c 0.03409,-0.48922 0.02037,-0.53057 -0.264013,-0.79583 -0.244231,-0.22781 -0.447744,-0.30833 -1.095218,-0.43333 -0.437386,-0.0844 -0.805751,-0.14058 -0.818592,-0.12474 -0.01284,0.0158 -0.11176,0.38057 -0.219824,0.81051 -0.141535,0.5631 -0.181039,0.91506 -0.141263,1.25854 0.06604,0.57028 0.225926,1.43891 0.282192,1.53311 0.102543,0.17168 0.477263,0.0396 0.801292,-0.28254 z m -4.816946,0.20921 c 0,-0.29376 -0.884168,-0.8481 -1.352714,-0.8481 -0.149603,0 -0.169254,0.0405 -0.119845,0.24722 0.09513,0.39795 0.200367,0.54674 0.416086,0.58827 0.31427,0.0605 1.056473,0.0694 1.056473,0.0126 z m 10.476952,-0.25969 c 0.459986,-0.45998 0.215326,-1.37334 -0.700904,-2.61661 -3.079942,-4.17928 -8.846753,-4.6433 -12.406196,-0.99824 -0.975966,0.99945 -1.864645,2.46246 -1.864645,3.06972 0,0.26337 0.05092,0.34999 0.292161,0.49708 0.341647,0.20831 0.85012,0.23222 1.107312,0.0521 0.09952,-0.0697 0.388339,-0.46614 0.641829,-0.88096 0.809593,-1.32485 1.725312,-2.16694 3.010314,-2.76827 1.561036,-0.73049 3.612381,-0.72034 5.211182,0.0258 1.321089,0.61653 2.402486,1.65084 3.086063,2.95168 0.19368,0.36858 0.422524,0.67098 0.567206,0.74952 0.378344,0.20539 0.801264,0.17263 1.055678,-0.0818 z m 1.636515,-0.54692 c 0.259574,-0.0918 0.471953,-0.19936 0.471953,-0.23904 0,-0.0397 -0.222492,-0.0721 -0.494427,-0.0721 -0.271935,0 -0.524767,-0.0101 -0.561849,-0.0225 -0.03708,-0.0124 -0.08051,0.11447 -0.0965,0.28184 -0.02124,0.22243 0.0029,0.2928 0.0899,0.26151 0.06543,-0.0235 0.33135,-0.1179 0.590925,-0.2097 z m -9.99263,-0.92074 c 0.03169,-0.60294 0.0044,-0.88755 -0.118387,-1.2333 l -0.159585,-0.44948 -0.448457,0.0239 c -0.629265,0.0336 -0.777242,0.20807 -0.830194,0.97879 -0.03702,0.53879 -0.01593,0.654 0.169344,0.92565 0.117609,0.17243 0.42854,0.42359 0.699887,0.56534 0.603036,0.31503 0.629873,0.28337 0.687392,-0.81095 z m -8.549967,0.65115 c 1.164809,-0.3034 1.866817,-0.98281 1.947228,-1.88456 l 0.03206,-0.35947 -0.674219,-0.0607 c -0.370821,-0.0334 -0.916938,-0.12376 -1.213594,-0.20086 -0.369183,-0.0959 -0.964858,-0.14105 -1.887813,-0.14292 -0.878187,-0.002 -1.548892,-0.05 -1.923235,-0.13823 -0.471993,-0.11125 -0.670949,-0.11657 -1.112425,-0.0297 -0.508459,0.10003 -0.546289,0.12575 -0.697106,0.47393 -0.290782,0.67129 -0.293987,0.86788 -0.02287,1.40326 0.137341,0.27122 0.320501,0.5062 0.407026,0.52219 0.132462,0.0245 0.157318,-0.0409 0.157318,-0.41359 0,-0.86068 0.303999,-1.27137 0.80209,-1.08362 0.119775,0.0452 0.267693,0.0629 0.328707,0.0395 0.144859,-0.0556 0.284711,0.31478 0.357313,0.94626 l 0.05824,0.5065 0.642685,0.18882 c 1.390237,0.40845 1.947392,0.45487 2.798613,0.23316 z m 18.711087,-0.70376 c 0.223414,-0.0787 0.422569,-0.0953 0.555115,-0.0462 0.11369,0.0421 0.80754,0.0962 1.541888,0.12017 1.019832,0.0333 1.45935,0.0113 1.860901,-0.0933 0.289144,-0.0753 0.558753,-0.16983 0.599133,-0.21014 0.117407,-0.11718 -0.197849,-1.07119 -0.370666,-1.12169 -0.388558,-0.11355 -3.443643,-0.15846 -4.242491,-0.0624 -1.542785,0.18557 -1.438334,0.13611 -1.438334,0.68103 v 0.47316 l 0.471953,0.18101 c 0.590192,0.22635 0.600263,0.22712 1.022501,0.0783 z m -0.264238,-2.13011 c 0.352973,-0.13308 0.817328,-0.60288 0.921107,-0.93191 0.153966,-0.48816 0.303418,-1.76786 0.216601,-1.85468 -0.04504,-0.045 -0.301342,-0.12351 -0.569552,-0.17437 -0.287245,-0.0545 -0.5815,-0.17952 -0.716006,-0.30425 -0.184377,-0.17099 -0.296688,-0.20308 -0.583166,-0.16664 -0.606199,0.0771 -1.086684,0.87733 -1.273428,2.12084 -0.175432,1.16818 -0.203086,1.08909 0.437118,1.25009 0.673006,0.16925 1.223269,0.19063 1.567326,0.0609 z m -19.27302,-0.74198 c 0.102004,-0.14567 0.0091,-1.71136 -0.134344,-2.26402 l -0.116659,-0.44948 -1.456794,-0.008 c -1.181018,-0.006 -1.466066,0.0163 -1.505792,0.11982 -0.02694,0.0702 -0.07535,0.52984 -0.107563,1.02135 -0.05629,0.85899 -0.05019,0.90262 0.157354,1.12479 0.118755,0.12712 0.337278,0.29588 0.485606,0.37502 0.504207,0.269 2.504083,0.32903 2.678192,0.0804 z m 4.180289,-0.59608 c 0.02202,-0.6338 -0.01301,-0.8724 -0.211983,-1.44402 l -0.238375,-0.68477 -0.628145,0.007 c -0.571799,0.006 -0.64748,0.0291 -0.843656,0.25717 -0.118527,0.1378 -0.241193,0.35289 -0.272592,0.47799 -0.04751,0.1893 0.117654,1.22948 0.295325,1.85992 0.06979,0.24765 0.36335,0.32521 1.153864,0.30485 l 0.719167,-0.0185 0.02641,-0.75925 z m -32.294907,0.40313 c 0.969737,-0.43066 1.420415,-1.07194 1.698088,-2.41624 0.241029,-1.16689 0.195859,-1.68373 -0.235475,-2.69436 -0.35764,-0.83797 -0.387889,-0.87917 -0.60541,-0.82457 -0.125929,0.0316 -0.431918,0.23025 -0.679977,0.44144 -0.605295,0.51533 -2.506762,1.66969 -2.750318,1.66969 -0.05104,0 -0.263911,0.078 -0.473045,0.17322 -0.209135,0.0953 -0.5002,0.20199 -0.646813,0.23714 -0.37385,0.0896 -0.478282,0.1929 -0.542781,0.5367 -0.06187,0.3298 -0.332258,0.63242 -0.482239,0.53972 -0.05256,-0.0325 -0.09556,-0.17803 -0.09556,-0.32344 0,-0.14541 -0.03714,-0.26438 -0.08254,-0.26438 -0.205338,0 -0.384337,0.13247 -0.511641,0.37865 -0.126188,0.24402 -0.124704,0.28172 0.01726,0.43859 0.223366,0.24681 1.334045,0.23734 2.162182,-0.0185 0.503491,-0.15551 0.665688,-0.17185 0.892336,-0.0899 0.578618,0.20923 1.277494,0.014 1.896913,-0.52983 0.331713,-0.29125 0.766119,-0.35456 1.132836,-0.1651 0.110575,0.0571 0.261725,0.13233 0.33589,0.16712 0.196677,0.0922 0.164851,0.21917 -0.06309,0.2516 -0.147847,0.021 -0.244527,0.15269 -0.382058,0.52027 -0.101267,0.27067 -0.184123,0.52761 -0.184123,0.571 0,0.17078 -0.808852,0.77774 -1.245831,0.93487 -0.506446,0.18212 -0.555239,0.28406 -0.278268,0.58135 0.210759,0.22623 0.398364,0.20701 1.123669,-0.1151 z m 23.269307,-0.2805 c 0.08329,-0.21706 0.06427,-0.76083 -0.04062,-1.1613 -0.168661,-0.64394 -0.465627,-1.31132 -0.568434,-1.27745 -0.186483,0.0614 -0.322577,0.4655 -0.323909,0.9617 -0.0011,0.43354 0.04496,0.56124 0.380732,1.05413 0.210131,0.30846 0.408071,0.5618 0.43986,0.56297 0.03179,10e-4 0.08236,-0.0618 0.112371,-0.14005 z M 8.8783819,105.0659 c 0.1553257,-0.16069 0.4687883,-0.65624 0.6965841,-1.10123 l 0.4141741,-0.80906 -0.056866,-0.76412 c -0.052214,-0.70162 -0.3782955,-2.03011 -0.5709741,-2.32621 -0.099739,-0.153278 -0.547661,-0.0581 -2.1154914,0.44935 -0.5889382,0.19063 -1.3373212,0.371 -1.6630734,0.40082 -0.325752,0.0298 -0.7237491,0.11308 -0.8844379,0.18503 -0.2626336,0.11758 -0.2921276,0.16899 -0.2918256,0.50864 1.888e-4,0.21349 0.075214,0.50064 0.1724751,0.66014 0.1595103,0.2616 0.2204909,0.28735 0.8312007,0.35107 0.362484,0.0378 1.0130266,0.0644 1.4456504,0.0591 0.4326238,-0.005 0.7865888,0.004 0.7865888,0.0211 0,0.0169 0.062977,0.36273 0.1399482,0.76849 0.1244119,0.65585 0.6209966,1.8891 0.7606703,1.8891 0.029132,0 0.1800513,-0.13148 0.3353771,-0.29216 z m 52.5728261,-0.20343 c 0.03901,-0.20796 0.002,-0.49193 -0.108297,-0.83154 l -0.16754,-0.51574 -1.056277,-0.005 c -0.580952,-0.003 -1.056276,0.004 -1.056276,0.015 0,0.13083 0.391075,0.86735 0.579342,1.09109 0.26437,0.31419 0.852665,0.54483 1.416767,0.55543 0.311329,0.006 0.336899,-0.0143 0.392281,-0.30953 z m -8.101997,-0.20986 c 0.340436,-0.0564 0.360393,-0.079 0.507777,-0.5759 0.08438,-0.28448 0.117485,-0.53944 0.07357,-0.56658 -0.132959,-0.0822 -1.789313,-0.001 -1.789524,0.0876 -9e-5,0.0454 0.04519,0.34317 0.100667,0.66173 l 0.100863,0.5792 0.326142,-0.0637 c 0.179379,-0.035 0.485606,-0.0901 0.680506,-0.12236 z m 1.173866,-1.09247 c 0.07074,-0.11445 -0.137529,-0.11445 -0.314636,0 -0.109625,0.0708 -0.09801,0.0874 0.06212,0.0885 0.10833,7.3e-4 0.221964,-0.0391 0.25252,-0.0885 z m -40.597393,-1.24977 c 0.639069,-0.23323 1.557519,-0.76484 2.156651,-1.24829 l 0.214476,-0.17306 -0.206129,-0.27881 c -0.174386,-0.23587 -0.187834,-0.30085 -0.08733,-0.42195 0.175822,-0.211848 0.751527,-0.14617 0.794862,0.0907 0.05872,0.32095 0.180036,0.39982 0.463158,0.30112 0.340719,-0.11878 0.758299,-0.653208 0.604326,-0.773438 -0.184133,-0.14378 -0.703676,-0.29179 -1.024234,-0.29179 -0.167242,0 -0.646236,-0.16228 -1.068838,-0.36211 -0.704527,-0.33314 -0.794079,-0.35449 -1.119492,-0.26686 -0.265232,0.0714 -0.422839,0.19572 -0.630088,0.49695 -0.152009,0.22094 -0.312203,0.4017 -0.355986,0.4017 -0.04378,0 -0.09241,0.11096 -0.108052,0.246578 -0.02089,0.18113 -0.14524,0.32282 -0.468524,0.53389 -0.563511,0.36792 -1.070362,0.86363 -1.278837,1.25075 -0.149013,0.2767 -0.151108,0.31744 -0.02292,0.44563 0.128352,0.12836 0.717408,0.27261 1.222344,0.29935 0.109823,0.006 0.521396,-0.10684 0.914608,-0.25034 z m 42.439893,-0.48073 c -1.8e-4,-0.35846 -0.02666,-1.16752 -0.05882,-1.79791 l -0.05846,-1.146178 h -2.243536 -2.243537 l 0.05247,1.325968 c 0.02885,0.72928 0.05359,1.49469 0.05496,1.70092 l 0.0025,0.37496 1.620404,-0.0256 c 0.891219,-0.0141 1.642043,0.009 1.668498,0.0522 0.02646,0.0428 0.202386,0.0532 0.390963,0.023 0.211148,-0.0338 0.366511,-0.0166 0.40441,0.0447 0.03385,0.0548 0.140063,0.0996 0.236033,0.0996 0.156705,0 0.174448,-0.0664 0.17412,-0.65175 z m -12.375221,0.50238 c 1.115992,-0.0739 1.08447,-0.0112 0.998431,-1.98566 l -0.06365,-1.460808 H 43.229134 41.53313 v 0.54971 c 0,0.30234 0.09765,0.919258 0.216998,1.370918 0.119348,0.45166 0.242033,0.97019 0.272631,1.15228 0.07552,0.44944 0.268486,0.48607 1.967602,0.37356 z m 4.737716,-0.0304 h 1.157221 l 0.06549,-0.33711 c 0.09067,-0.46674 0.09195,-1.55167 0.0028,-2.378108 l -0.0747,-0.69257 -1.481683,-0.0266 -1.481683,-0.0266 0.0551,0.67421 c 0.139223,1.703718 0.245952,2.746388 0.288102,2.814588 0.02526,0.0409 0.105838,0.0513 0.179045,0.0233 0.07321,-0.0281 0.653851,-0.0511 1.290323,-0.0511 z m 18.290529,-0.0259 0.719167,-0.019 0.0216,-0.85401 c 0.01188,-0.46971 0.04666,-1.21809 0.07727,-1.663068 l 0.05567,-0.80907 h -1.380767 c -0.75942,0 -1.436558,0.036 -1.504753,0.0799 -0.188843,0.12171 -0.70046,1.307408 -0.75658,1.753418 -0.06618,0.52598 0.07883,1.3771 0.256861,1.50768 0.0947,0.0695 0.420749,0.091 0.967594,0.064 0.453617,-0.0224 1.148386,-0.0494 1.543927,-0.0598 z m -4.747344,-1.39605 c -0.02983,-0.77536 -0.08922,-1.531098 -0.131989,-1.679428 l -0.07776,-0.26969 -1.899868,-0.0243 -1.899867,-0.0242 -0.138853,0.46758 c -0.184677,0.62187 -0.176536,0.940088 0.05152,2.014028 l 0.192155,0.90488 1.979451,0.0104 1.979447,0.0104 z m -41.556971,0.31994 c 0.04869,-0.32465 0.0087,-0.48184 -0.263265,-1.0338 -0.287509,-0.583598 -0.347523,-0.650928 -0.580192,-0.650928 h -0.259514 l 0.262159,0.516898 c 0.198501,0.39138 0.262436,0.64241 0.263298,1.0338 0.0011,0.50962 0.0048,0.5169 0.26062,0.5169 0.236438,0 0.264578,-0.034 0.316894,-0.38287 z m -9.956183,-0.26887 c 0.368272,-0.39223 0.425138,-0.58998 0.263798,-0.91737 -0.0742,-0.150568 -0.158849,-0.425448 -0.188108,-0.610858 -0.06569,-0.41627 -0.300216,-0.45212 -0.587986,-0.0899 -0.175378,0.22076 -0.190592,0.31745 -0.142136,0.903428 0.05245,0.63424 0.167546,1.00686 0.311016,1.00686 0.038,0 0.192541,-0.13148 0.343416,-0.29216 z m 12.288915,-0.0223 c 0.0317,-0.0826 -0.03519,-0.19158 -0.172979,-0.28186 -0.277457,-0.1818 -0.370991,-0.1058 -0.235574,0.19141 0.11401,0.25022 0.328979,0.29782 0.408553,0.0904 z M 5.0772349,100.21332 c 0.644471,-0.1597 1.1851112,-0.297778 1.2014225,-0.306838 0.016311,-0.009 -0.031295,-0.111 -0.1057903,-0.22654 -0.2910834,-0.45144 0.1851832,-1.15546 0.7797235,-1.15259 0.4719361,0.002 0.5461424,0.0977 0.3818203,0.49097 -0.077827,0.18627 -0.1415039,0.4405 -0.1415039,0.56495 0,0.21966 0.013591,0.22468 0.4640643,0.17133 0.2552354,-0.0302 0.6496535,-0.14711 0.8764846,-0.25974 0.3880858,-0.19269 0.4141104,-0.22852 0.4410623,-0.60728 0.068805,-0.96692 -0.1855619,-1.26057 -1.0919496,-1.26057 -0.2683523,0 -0.6243262,-0.0569 -0.7910529,-0.12648 -0.1667271,-0.0696 -0.6672183,-0.15461 -1.1122028,-0.18898 -0.7466205,-0.0577 -0.8281423,-0.0474 -1.0562764,0.13301 -0.2990899,0.23653 -0.3232663,0.57992 -0.07508,1.0664 0.094673,0.18557 0.2326156,0.56902 0.3065389,0.8521 0.118639,0.45432 0.1188053,0.5303 0.0014,0.647688 -0.100793,0.10079 -0.176049,0.10995 -0.3108422,0.0378 -0.2298517,-0.123018 -0.3490266,-0.445378 -0.3490266,-0.944118 0,-0.42977 -0.065883,-0.47171 -0.4885337,-0.31102 -0.3890471,0.14791 -0.6054027,0.60095 -0.537716,1.12594 0.031873,0.247208 0.07594,0.479818 0.097927,0.516898 0.066642,0.1124 0.2884773,0.0796 1.5095268,-0.22294 z M 12.75749,98.592072 c 0.008,-0.38405 -0.01896,-0.4453 -0.26114,-0.59258 -0.148554,-0.0903 -0.484667,-0.21228 -0.746917,-0.27097 -0.399143,-0.0893 -0.530873,-0.0841 -0.808651,0.0319 -0.182507,0.0763 -0.331832,0.15766 -0.331832,0.18088 0,0.0232 0.2047,0.14596 0.45489,0.27274 0.250189,0.12678 0.703884,0.45942 1.00821,0.73919 0.542709,0.49893 0.554502,0.50445 0.6149,0.28791 0.03387,-0.12143 0.06561,-0.41353 0.07054,-0.64911 z m 5.260516,0.32882 c 0.111797,-0.0429 0.217382,-0.39492 0.118453,-0.39492 -0.01306,0 -0.245093,-0.0809 -0.515632,-0.17979 -0.563817,-0.20608 -1.887813,-0.25833 -1.887813,-0.0745 0,0.17634 0.286183,0.43389 0.485886,0.43727 0.103583,0.002 0.289466,0.061 0.413072,0.13166 0.226567,0.12951 1.122492,0.18141 1.386034,0.0803 z m 2.485398,-0.84756 c 0.186294,-0.0997 0.238036,-0.48595 0.07832,-0.58466 -0.143766,-0.0888 -0.443815,0.22681 -0.443815,0.46691 0,0.22991 0.09733,0.26126 0.365493,0.11775 z M 8.2192842,96.560282 c 0.026474,-0.0428 -0.031588,-0.15003 -0.1290252,-0.23821 -0.2310105,-0.20906 -1.4021878,-0.29664 -1.7943964,-0.13418 -0.6067917,0.25134 -0.1879694,0.43677 1.0041089,0.44457 0.4791486,0.003 0.8928392,-0.0294 0.9193127,-0.0722 z"
       id="path4773"
       inkscape:connector-curvature="0" />
  </g>
</svg>
