<?xml version="1.0" encoding="UTF-8" standalone="no"?>
<!-- Created with Inkscape (http://www.inkscape.org/) -->

<svg
   xmlns:dc="http://purl.org/dc/elements/1.1/"
   xmlns:cc="http://creativecommons.org/ns#"
   xmlns:rdf="http://www.w3.org/1999/02/22-rdf-syntax-ns#"
   xmlns:svg="http://www.w3.org/2000/svg"
   xmlns="http://www.w3.org/2000/svg"
   xmlns:sodipodi="http://sodipodi.sourceforge.net/DTD/sodipodi-0.dtd"
   xmlns:inkscape="http://www.inkscape.org/namespaces/inkscape"
   width="78"
   height="78"
   viewBox="0 0 20.637499 20.637499"
   version="1.1"
   id="svg3888"
   sodipodi:docname="typing.svg"
   inkscape:version="0.92.4 (5da689c313, 2019-01-14)">
  <defs
     id="defs3882">
    <inkscape:perspective
       sodipodi:type="inkscape:persp3d"
       inkscape:vp_x="233.57042 : -42.244832 : 0"
       inkscape:vp_y="-3954.4104 : -26459.578 : 0"
       inkscape:vp_z="494.69472 : -481.71483 : 1"
       inkscape:persp3d-origin="575.33301 : -446.30367 : 1"
       id="perspective4006" />
    <inkscape:perspective
       sodipodi:type="inkscape:persp3d"
       inkscape:vp_x="-55.577564 : 29.243248 : 0"
       inkscape:vp_y="6096.9245 : 3647.2461 : 1"
       inkscape:vp_z="20.171594 : 8.2181898 : 1"
       inkscape:persp3d-origin="35.826536 : -9.0418893 : 1"
       id="perspective3890" />
  </defs>
  <sodipodi:namedview
     id="base"
     pagecolor="#ffffff"
     bordercolor="#666666"
     borderopacity="1.0"
     inkscape:pageopacity="0.0"
     inkscape:pageshadow="2"
     inkscape:zoom="2.8"
     inkscape:cx="-168.20977"
     inkscape:cy="46.653434"
     inkscape:document-units="mm"
     inkscape:current-layer="layer1"
     showgrid="false"
     units="px"
     inkscape:window-width="2560"
     inkscape:window-height="1412"
     inkscape:window-x="2560"
     inkscape:window-y="0"
     inkscape:window-maximized="1" />
  <metadata
     id="metadata3885">
    <rdf:RDF>
      <cc:Work
         rdf:about="">
        <dc:format>image/svg+xml</dc:format>
        <dc:type
           rdf:resource="http://purl.org/dc/dcmitype/StillImage" />
        <dc:title></dc:title>
      </cc:Work>
    </rdf:RDF>
  </metadata>
  <g
     inkscape:label="Layer 1"
     inkscape:groupmode="layer"
     id="layer1"
     transform="translate(0,-276.36251)">
    <g
       sodipodi:type="inkscape:box3d"
       id="g3948"
       inkscape:perspectiveID="#perspective3890"
       inkscape:corner0="1.1917227 : 0.003205067 : 0 : 1"
       inkscape:corner7="1.1917227 : 0.0032050669 : 0.25 : 1">
      <path
         sodipodi:type="inkscape:box3dside"
         id="path3950"
         style="fill:#353564;fill-rule:evenodd;stroke:none;stroke-linejoin:round"
         inkscape:box3dsidetype="6"
         d="m -10.830744,259.62219 -1e-6,0 6.1846103,5.81701 5e-7,0 z"
         points="-10.830745,259.62219 -4.6461347,265.4392 -4.6461342,265.4392 -10.830744,259.62219 " />
      <path
         sodipodi:type="inkscape:box3dside"
         id="path3960"
         style="fill:#e9e9ff;fill-rule:evenodd;stroke:none;stroke-linejoin:round"
         inkscape:box3dsidetype="11"
         d="m -4.6461342,265.4392 2e-7,0 -5e-7,0 -2e-7,0 z"
         points="-4.646134,265.4392 -4.6461345,265.4392 -4.6461347,265.4392 -4.6461342,265.4392 " />
      <path
         sodipodi:type="inkscape:box3dside"
         id="path3952"
         style="fill:#4d4d9f;fill-rule:evenodd;stroke:none;stroke-linejoin:round"
         inkscape:box3dsidetype="5"
         d="m -10.830744,259.62219 0,0 6.18461,5.81701 -2e-7,0 z"
         points="-10.830744,259.62219 -4.646134,265.4392 -4.6461342,265.4392 -10.830744,259.62219 " />
      <path
         sodipodi:type="inkscape:box3dside"
         id="path3958"
         style="fill:#afafde;fill-rule:evenodd;stroke:none;stroke-linejoin:round"
         inkscape:box3dsidetype="13"
         d="m -10.830745,259.62219 0,0 6.1846105,5.81701 -2e-7,0 z"
         points="-10.830745,259.62219 -4.6461345,265.4392 -4.6461347,265.4392 -10.830745,259.62219 " />
      <path
         sodipodi:type="inkscape:box3dside"
         id="path3956"
         style="fill:#d7d7ff;fill-rule:evenodd;stroke:none;stroke-linejoin:round"
         inkscape:box3dsidetype="14"
         d="m -10.830744,259.62219 -1e-6,0 6.1846105,5.81701 5e-7,0 z"
         points="-10.830745,259.62219 -4.6461345,265.4392 -4.646134,265.4392 -10.830744,259.62219 " />
      <path
         sodipodi:type="inkscape:box3dside"
         id="path3954"
         style="fill:#8686bf;fill-rule:evenodd;stroke:none;stroke-linejoin:round"
         inkscape:box3dsidetype="3"
         d="m -10.830744,259.62219 0,0 -1e-6,0 0,0 z"
         points="-10.830744,259.62219 -10.830745,259.62219 -10.830745,259.62219 -10.830744,259.62219 " />
    </g>
    <rect
       id="rect4040"
       width="20.316219"
       height="20.056362"
       x="0.16536458"
       y="276.63654"
       rx="2.0000012"
       ry="2.0000012"
       style="stroke-width:0.26458332;fill:#000000;stroke:#000000;stroke-opacity:1;fill-opacity:0.10588235;opacity:1" />
    <path
       style="fill:#ffffff;fill-opacity:1;stroke:#000000;stroke-width:0.25370759;stroke-opacity:0.98431373;opacity:0.62"
       d="M 2.9804553,278.35103 H 17.666493 c 0.531212,0 0.958867,0.42769 0.958867,0.95893 v 14.70953 c 0,0.53125 -0.427655,0.95892 -0.958867,0.95892 H 2.9804553 c -0.5312122,0 -0.9588668,-0.42767 -0.9588668,-0.95892 v -14.70953 c 0,-0.53124 0.4276546,-0.95893 0.9588668,-0.95893 z"
       id="rect4042"
       inkscape:connector-curvature="0" />
    <g
       aria-label="अ"
       transform="matrix(0.47724686,0,0,0.53270438,-5.2254172,263.37242)"
       style="font-style:normal;font-weight:normal;font-size:37.33333206px;line-height:1.25;font-family:sans-serif;letter-spacing:0px;word-spacing:0px;fill:#000000;fill-opacity:1;stroke:none"
       id="flowRoot4852">
      <path
         d="m 33.15039,48.409095 q -0.21875,-0.164062 -0.346354,-0.273437 -0.109375,-0.109375 -0.164063,-0.236979 -0.05469,-0.145834 -0.07292,-0.328125 -0.01823,-0.182292 -0.01823,-0.492188 l 0.05469,-6.033854 q -0.255208,0.127604 -0.510417,0.182292 -0.236979,0.03646 -0.473958,0.03646 -0.382812,0 -0.729167,-0.127604 -0.328125,-0.127604 -0.63802,-0.309896 -0.309896,-0.200521 -0.583334,-0.4375 -0.255208,-0.236979 -0.492187,-0.473958 0.09115,0.145833 0.145833,0.346354 0.05469,0.182292 0.09115,0.364583 0.03646,0.182292 0.03646,0.346355 0.01823,0.145833 0.01823,0.21875 0,0.802083 -0.291666,1.622395 -0.291667,0.802084 -0.875,1.458334 -0.565104,0.65625 -1.440104,1.07552 -0.856771,0.401042 -2.023438,0.401042 -1.002604,0 -1.986979,-0.510417 -0.984375,-0.510416 -1.96875,-1.458333 -0.966146,-0.966146 -1.932291,-2.351562 -0.966146,-1.385417 -1.932292,-3.153646 0,-0.01823 0.109375,-0.127604 0.127604,-0.109375 0.273438,-0.21875 0.145833,-0.127604 0.291666,-0.21875 0.145834,-0.09115 0.200521,-0.09115 0.875,1.604167 1.695312,2.570312 0.838542,0.966146 1.604167,1.494792 0.783854,0.528646 1.513021,0.710937 0.747396,0.164063 1.458333,0.164063 0.565104,0 1.039063,-0.236979 0.492187,-0.236979 0.85677,-0.619792 0.364584,-0.382812 0.565105,-0.875 0.21875,-0.492187 0.21875,-1.020833 0,-0.309896 -0.127605,-0.565104 -0.109375,-0.273438 -0.291666,-0.473959 -0.182292,-0.21875 -0.401042,-0.364583 -0.21875,-0.145833 -0.4375,-0.236979 -0.747396,0.4375 -1.440104,0.674479 -0.674479,0.236979 -1.09375,0.236979 -0.164062,0 -0.565104,-0.309896 -0.401042,-0.309895 -0.820313,-0.710937 -0.401041,-0.401042 -0.710937,-0.765625 -0.309896,-0.382812 -0.309896,-0.510417 0,-0.164062 0.364583,-0.328125 0.364584,-0.164062 0.911459,-0.364583 0.546875,-0.200521 1.166666,-0.4375 0.638021,-0.255208 1.184896,-0.601562 0.546875,-0.364584 0.911458,-0.820313 0.364584,-0.473958 0.364584,-1.09375 0,-0.291667 -0.273438,-0.546875 -0.273437,-0.255208 -0.783854,-0.255208 -1.039062,0 -2.132812,0.4375 -1.09375,0.419271 -2.479167,1.221354 -0.200521,0.109375 -0.291667,0.182292 -0.09115,0.05469 -0.273437,0.05469 -0.03646,0 -0.21875,-0.182292 -0.164062,-0.182291 -0.401042,-0.455729 -0.236979,-0.273437 -0.492187,-0.583333 -0.255208,-0.328125 -0.473958,-0.601562 -0.21875,-0.291667 -0.364584,-0.492188 -0.145833,-0.200521 -0.145833,-0.236979 0.346354,-0.309896 0.893229,-0.601563 0.546875,-0.291666 1.130208,-0.528645 0.583334,-0.23698 1.130209,-0.364584 0.565104,-0.145833 0.929687,-0.145833 1.403646,0 2.643229,0.492187 1.239583,0.473959 2.151042,1.184896 0.929687,0.710938 1.458333,1.53125 0.546875,0.802083 0.546875,1.440104 0,0.820313 -0.4375,1.513021 -0.419271,0.674479 -1.057292,1.221354 0.565105,0.346354 1.002605,0.565104 0.455729,0.21875 0.820312,0.346354 0.364583,0.127605 0.674479,0.182292 0.309896,0.03646 0.619792,0.03646 0.346354,0 0.747396,-0.127604 0.401041,-0.127604 0.783854,-0.328125 0.401041,-0.200521 0.765625,-0.455729 0.364583,-0.255208 0.638021,-0.510416 l 0.03646,-3.882813 H 29.86914 l -1.257812,-2.333333 q -0.164063,-0.291667 -0.164063,-0.492188 0,-0.382812 0.638021,-0.382812 h 9.260416 v 3.208333 h -2.1875 v 11.830729 q 0,1.677083 0.03646,2.697916 0.05469,1.002605 0.09115,1.440105 0,0.03646 0,0.145833 0,0.09115 0,0.200521 0.01823,0.09115 0.01823,0.182291 0,0.07292 0,0.09115 0,0.145834 -0.03646,0.21875 -0.01823,0.07292 -0.20052,0.07292 -0.164063,0 -0.528646,-0.182292 -0.346354,-0.182291 -0.710938,-0.419271 z"
         style="font-style:normal;font-variant:normal;font-weight:normal;font-stretch:normal;font-size:37.33333206px;font-family:'Adishila Heavy';-inkscape-font-specification:'Adishila Heavy, '"
         id="path4926" />
    </g>
    <path
       style="fill:none;stroke:#000000;stroke-width:0.26458332px;stroke-linecap:butt;stroke-linejoin:miter;stroke-opacity:1"
       d="m 0.77957589,277.15626 1.55915181,1.39379 -0.094494,0.0472"
       id="path4860"
       inkscape:connector-curvature="0" />
    <path
       style="fill:none;stroke:#000000;stroke-width:0.26458332px;stroke-linecap:butt;stroke-linejoin:miter;stroke-opacity:1"
       d="m 18.377314,294.61601 1.559152,1.39379 -0.09449,0.0472"
       id="path4860-3"
       inkscape:connector-curvature="0" />
    <path
       style="fill:none;stroke:#000000;stroke-width:0.26458332px;stroke-linecap:butt;stroke-linejoin:miter;stroke-opacity:1"
       d="m 0.76600852,296.23419 1.39378998,-1.55915 0.0472,0.0945"
       id="path4860-3-5"
       inkscape:connector-curvature="0" />
    <path
       style="fill:none;stroke:#000000;stroke-width:0.26458332px;stroke-linecap:butt;stroke-linejoin:miter;stroke-opacity:1"
       d="m 18.192077,278.66995 1.39379,-1.55915 0.0472,0.0945"
       id="path4860-3-5-5"
       inkscape:connector-curvature="0" />
  </g>
</svg>
